<svg width="20" height="32" viewBox="0 0 20 32" fill="none" xmlns="http://www.w3.org/2000/svg">
<g opacity="0.5" filter="url(#filter0_i_1195_99176)">
<path fill-rule="evenodd" clip-rule="evenodd" d="M11.1849 0.712064C10.795 0.0735174 9.86775 0.0735177 9.47789 0.712065L6.67582 5.30163C6.26899 5.96799 6.74859 6.82272 7.52933 6.82272H13.1335C13.9142 6.82272 14.3938 5.96799 13.987 5.30163L11.1849 0.712064ZM1.0059 11.8285L18.9953 11.8285C19.3251 11.8285 19.5949 11.6408 19.5949 11.4114V10.5771C19.5949 10.3476 19.3251 10.1599 18.9953 10.1599L1.0059 10.1599C0.676091 10.1599 0.40625 10.3476 0.40625 10.5771V11.4114C0.40625 11.6408 0.676091 11.8285 1.0059 11.8285ZM18.9953 16.8343H1.0059C0.676091 16.8343 0.40625 16.6465 0.40625 16.4171V15.5828C0.40625 15.3534 0.676091 15.1657 1.0059 15.1657L18.9953 15.1657C19.3251 15.1657 19.5949 15.3534 19.5949 15.5828V16.4171C19.5949 16.6465 19.3251 16.8343 18.9953 16.8343ZM1.0059 21.84L18.9953 21.84C19.3251 21.84 19.5949 21.6523 19.5949 21.4229V20.5886C19.5949 20.3591 19.3251 20.1714 18.9953 20.1714L1.0059 20.1714C0.676091 20.1714 0.40625 20.3591 0.40625 20.5886V21.4229C0.40625 21.6523 0.676091 21.84 1.0059 21.84ZM10.5233 31.2878C10.1334 31.9263 9.20611 31.9263 8.81626 31.2878L6.01419 26.6982C5.60735 26.0318 6.08695 25.1771 6.86769 25.1771H12.4718C13.2526 25.1771 13.7322 26.0318 13.3253 26.6982L10.5233 31.2878Z" fill="white"/>
</g>
<defs>
<filter id="filter0_i_1195_99176" x="0.40625" y="0.233154" width="20.1875" height="32.5334" filterUnits="userSpaceOnUse" color-interpolation-filters="sRGB">
<feFlood flood-opacity="0" result="BackgroundImageFix"/>
<feBlend mode="normal" in="SourceGraphic" in2="BackgroundImageFix" result="shape"/>
<feColorMatrix in="SourceAlpha" type="matrix" values="0 0 0 0 0 0 0 0 0 0 0 0 0 0 0 0 0 0 127 0" result="hardAlpha"/>
<feOffset dx="1" dy="1"/>
<feGaussianBlur stdDeviation="0.5"/>
<feComposite in2="hardAlpha" operator="arithmetic" k2="-1" k3="1"/>
<feColorMatrix type="matrix" values="0 0 0 0 0 0 0 0 0 0 0 0 0 0 0 0 0 0 0.52 0"/>
<feBlend mode="normal" in2="shape" result="effect1_innerShadow_1195_99176"/>
</filter>
</defs>
</svg>
