<svg width="193" height="139" viewBox="0 0 193 139" fill="none" xmlns="http://www.w3.org/2000/svg">
<rect x="0.400391" y="0.5" width="191.8" height="138" rx="3" fill="#F0F0F0"/>
<rect x="1.40039" y="1.5" width="189.8" height="136" rx="2" stroke="black" stroke-opacity="0.35" stroke-width="2" stroke-dasharray="5 5"/>
<path opacity="0.4" d="M101.242 67.0221H75.5131C74.0169 67.0221 72.8008 65.854 72.8008 64.4127V33.1094C72.8008 31.67 74.0149 30.5 75.5131 30.5H113.475C114.972 30.5 116.188 31.67 116.188 33.1094V52.645C115.351 52.1363 114.443 51.7312 113.475 51.4562V33.1113H75.5131V64.4146H100.006C100.292 65.3453 100.715 66.2195 101.244 67.024L101.242 67.0221ZM103.701 38.8557V38.8501C103.701 36.8454 102.015 35.2214 99.9315 35.2214C97.8479 35.2176 96.1578 36.8436 96.1578 38.8463V38.8501C96.1559 40.8547 97.842 42.4806 99.9257 42.4806C102.009 42.4825 103.699 40.8584 103.699 38.8538L103.701 38.8557ZM78.2234 49.6154V61.8033H99.5732C99.5692 61.6865 99.5555 61.5734 99.5555 61.4547C99.5555 55.699 104.42 51.0191 110.403 51.0191C110.524 51.0191 110.642 51.0322 110.765 51.036V44.3948L99.9178 52.2211L86.3622 41.7854L78.2254 49.6117L78.2234 49.6154ZM119.801 61.4566C119.801 66.4493 115.592 70.5 110.401 70.5C105.209 70.5 101.001 66.4493 101.001 61.4566C101.001 56.4639 105.209 52.4132 110.401 52.4132C115.592 52.4132 119.801 56.462 119.801 61.4566ZM115.761 65.5488H105.041V67.0221H115.761V65.5488ZM115.761 59.6574L110.401 54.5008L105.041 59.6574H108.104V64.0773H112.698V59.6574H115.759H115.761Z" fill="black"/>
<g opacity="0.45">
<path d="M26.168 90.5V82.04H29.24C30.208 82.04 31.024 82.208 31.688 82.544C32.36 82.872 32.868 83.352 33.212 83.984C33.556 84.608 33.728 85.368 33.728 86.264C33.728 87.152 33.556 87.912 33.212 88.544C32.868 89.176 32.36 89.66 31.688 89.996C31.024 90.332 30.208 90.5 29.24 90.5H26.168ZM27.716 89.216H29.144C30.168 89.216 30.928 88.972 31.424 88.484C31.92 87.996 32.168 87.256 32.168 86.264C32.168 85.264 31.92 84.524 31.424 84.044C30.928 83.556 30.168 83.312 29.144 83.312H27.716V89.216ZM35.1767 90.5V85.988C35.1767 85.732 35.1687 85.472 35.1527 85.208C35.1447 84.944 35.1247 84.688 35.0927 84.44H36.5447L36.7127 86.096H36.4727C36.5527 85.696 36.6847 85.364 36.8687 85.1C37.0607 84.836 37.2927 84.64 37.5647 84.512C37.8367 84.384 38.1327 84.32 38.4527 84.32C38.5967 84.32 38.7127 84.328 38.8007 84.344C38.8887 84.352 38.9767 84.372 39.0647 84.404L39.0527 85.724C38.9007 85.66 38.7687 85.62 38.6567 85.604C38.5527 85.588 38.4207 85.58 38.2607 85.58C37.9167 85.58 37.6247 85.652 37.3847 85.796C37.1527 85.94 36.9767 86.14 36.8567 86.396C36.7447 86.652 36.6887 86.944 36.6887 87.272V90.5H35.1767ZM42.181 90.62C41.653 90.62 41.189 90.496 40.789 90.248C40.389 89.992 40.077 89.628 39.853 89.156C39.629 88.684 39.517 88.12 39.517 87.464C39.517 86.808 39.629 86.248 39.853 85.784C40.077 85.312 40.389 84.952 40.789 84.704C41.189 84.448 41.653 84.32 42.181 84.32C42.693 84.32 43.141 84.448 43.525 84.704C43.917 84.952 44.177 85.288 44.305 85.712H44.173L44.305 84.44H45.745C45.721 84.688 45.697 84.94 45.673 85.196C45.657 85.452 45.649 85.704 45.649 85.952V90.5H44.161L44.149 89.252H44.293C44.165 89.668 43.905 90 43.513 90.248C43.121 90.496 42.677 90.62 42.181 90.62ZM42.601 89.468C43.073 89.468 43.453 89.304 43.741 88.976C44.029 88.64 44.173 88.136 44.173 87.464C44.173 86.792 44.029 86.292 43.741 85.964C43.453 85.636 43.073 85.472 42.601 85.472C42.129 85.472 41.749 85.636 41.461 85.964C41.173 86.292 41.029 86.792 41.029 87.464C41.029 88.136 41.169 88.64 41.449 88.976C41.737 89.304 42.121 89.468 42.601 89.468ZM50.0904 93.188C49.5304 93.188 49.0224 93.128 48.5664 93.008C48.1184 92.888 47.7184 92.704 47.3664 92.456L47.6904 91.376C47.9224 91.528 48.1624 91.652 48.4104 91.748C48.6584 91.844 48.9144 91.916 49.1784 91.964C49.4424 92.012 49.7104 92.036 49.9824 92.036C50.5424 92.036 50.9584 91.896 51.2304 91.616C51.5104 91.344 51.6504 90.952 51.6504 90.44V88.988H51.7704C51.6424 89.404 51.3824 89.736 50.9904 89.984C50.6064 90.232 50.1624 90.356 49.6584 90.356C49.1144 90.356 48.6384 90.236 48.2304 89.996C47.8304 89.748 47.5184 89.396 47.2944 88.94C47.0704 88.484 46.9584 87.948 46.9584 87.332C46.9584 86.716 47.0704 86.184 47.2944 85.736C47.5184 85.28 47.8304 84.932 48.2304 84.692C48.6384 84.444 49.1144 84.32 49.6584 84.32C50.1704 84.32 50.6144 84.444 50.9904 84.692C51.3744 84.932 51.6304 85.26 51.7584 85.676L51.6504 85.604L51.7704 84.44H53.2224C53.1904 84.688 53.1664 84.94 53.1504 85.196C53.1344 85.452 53.1264 85.704 53.1264 85.952V90.26C53.1264 91.212 52.8664 91.936 52.3464 92.432C51.8344 92.936 51.0824 93.188 50.0904 93.188ZM50.0664 89.204C50.5464 89.204 50.9264 89.044 51.2064 88.724C51.4944 88.396 51.6384 87.932 51.6384 87.332C51.6384 86.732 51.4944 86.272 51.2064 85.952C50.9264 85.632 50.5464 85.472 50.0664 85.472C49.5784 85.472 49.1904 85.632 48.9024 85.952C48.6144 86.272 48.4704 86.732 48.4704 87.332C48.4704 87.932 48.6144 88.396 48.9024 88.724C49.1904 89.044 49.5784 89.204 50.0664 89.204ZM65.1202 90.62C64.7522 90.492 64.4002 90.32 64.0642 90.104C63.7282 89.88 63.4242 89.644 63.1522 89.396L63.4762 89.408C63.1082 89.784 62.6802 90.08 62.1922 90.296C61.7042 90.512 61.1842 90.62 60.6322 90.62C60.0162 90.62 59.4842 90.524 59.0362 90.332C58.5882 90.14 58.2442 89.876 58.0042 89.54C57.7642 89.196 57.6442 88.796 57.6442 88.34C57.6442 87.796 57.8042 87.332 58.1242 86.948C58.4442 86.564 58.8842 86.204 59.4442 85.868L59.8522 85.64L59.6242 85.916C59.2802 85.572 59.0242 85.24 58.8562 84.92C58.6882 84.6 58.6042 84.268 58.6042 83.924C58.6042 83.524 58.7002 83.176 58.8922 82.88C59.0922 82.576 59.3682 82.34 59.7202 82.172C60.0802 82.004 60.5002 81.92 60.9802 81.92C61.6042 81.92 62.1122 82.088 62.5042 82.424C62.8962 82.752 63.0922 83.2 63.0922 83.768C63.0922 84.072 63.0322 84.356 62.9122 84.62C62.7922 84.884 62.5962 85.136 62.3242 85.376C62.0602 85.616 61.7122 85.856 61.2802 86.096L61.3162 85.796L63.4162 87.968H63.1042C63.3122 87.64 63.4722 87.256 63.5842 86.816C63.6962 86.376 63.7642 85.912 63.7882 85.424H65.0482C65.0242 86.08 64.9202 86.7 64.7362 87.284C64.5522 87.868 64.3042 88.384 63.9922 88.832L63.9802 88.472C64.1962 88.696 64.4442 88.9 64.7242 89.084C65.0042 89.268 65.3082 89.42 65.6362 89.54L65.1202 90.62ZM60.7162 89.456C61.1162 89.456 61.4722 89.38 61.7842 89.228C62.1042 89.076 62.3882 88.852 62.6362 88.556L62.6002 88.916L60.0802 86.36L60.6922 86.372L60.3442 86.564C60.0722 86.732 59.8442 86.9 59.6602 87.068C59.4842 87.236 59.3522 87.416 59.2642 87.608C59.1762 87.792 59.1322 88.004 59.1322 88.244C59.1322 88.62 59.2682 88.916 59.5402 89.132C59.8122 89.348 60.2042 89.456 60.7162 89.456ZM60.9802 82.94C60.6762 82.94 60.4322 83.028 60.2482 83.204C60.0642 83.38 59.9722 83.612 59.9722 83.9C59.9722 84.052 60.0002 84.196 60.0562 84.332C60.1122 84.468 60.2042 84.616 60.3322 84.776C60.4602 84.928 60.6282 85.116 60.8362 85.34L60.4762 85.364C60.9722 85.092 61.3322 84.844 61.5562 84.62C61.7882 84.388 61.9042 84.124 61.9042 83.828C61.9042 83.548 61.8202 83.332 61.6522 83.18C61.4842 83.02 61.2602 82.94 60.9802 82.94ZM69.7149 90.5V82.04H72.7869C73.7549 82.04 74.5709 82.208 75.2349 82.544C75.9069 82.872 76.4149 83.352 76.7589 83.984C77.1029 84.608 77.2749 85.368 77.2749 86.264C77.2749 87.152 77.1029 87.912 76.7589 88.544C76.4149 89.176 75.9069 89.66 75.2349 89.996C74.5709 90.332 73.7549 90.5 72.7869 90.5H69.7149ZM71.2629 89.216H72.6909C73.7149 89.216 74.4749 88.972 74.9709 88.484C75.4669 87.996 75.7149 87.256 75.7149 86.264C75.7149 85.264 75.4669 84.524 74.9709 84.044C74.4749 83.556 73.7149 83.312 72.6909 83.312H71.2629V89.216ZM78.7235 90.5V85.988C78.7235 85.732 78.7155 85.472 78.6995 85.208C78.6915 84.944 78.6715 84.688 78.6395 84.44H80.0915L80.2595 86.096H80.0195C80.0995 85.696 80.2315 85.364 80.4155 85.1C80.6075 84.836 80.8395 84.64 81.1115 84.512C81.3835 84.384 81.6795 84.32 81.9995 84.32C82.1435 84.32 82.2595 84.328 82.3475 84.344C82.4355 84.352 82.5235 84.372 82.6115 84.404L82.5995 85.724C82.4475 85.66 82.3155 85.62 82.2035 85.604C82.0995 85.588 81.9675 85.58 81.8075 85.58C81.4635 85.58 81.1715 85.652 80.9315 85.796C80.6995 85.94 80.5235 86.14 80.4035 86.396C80.2915 86.652 80.2355 86.944 80.2355 87.272V90.5H78.7235ZM86.0887 90.62C85.4647 90.62 84.9247 90.492 84.4687 90.236C84.0127 89.98 83.6567 89.616 83.4007 89.144C83.1527 88.672 83.0287 88.112 83.0287 87.464C83.0287 86.816 83.1527 86.26 83.4007 85.796C83.6567 85.324 84.0127 84.96 84.4687 84.704C84.9247 84.448 85.4647 84.32 86.0887 84.32C86.7127 84.32 87.2527 84.448 87.7087 84.704C88.1727 84.96 88.5287 85.324 88.7767 85.796C89.0327 86.26 89.1607 86.816 89.1607 87.464C89.1607 88.112 89.0327 88.672 88.7767 89.144C88.5287 89.616 88.1727 89.98 87.7087 90.236C87.2527 90.492 86.7127 90.62 86.0887 90.62ZM86.0887 89.468C86.5607 89.468 86.9367 89.304 87.2167 88.976C87.4967 88.64 87.6367 88.136 87.6367 87.464C87.6367 86.792 87.4967 86.292 87.2167 85.964C86.9367 85.636 86.5607 85.472 86.0887 85.472C85.6167 85.472 85.2407 85.636 84.9607 85.964C84.6807 86.292 84.5407 86.792 84.5407 87.464C84.5407 88.136 84.6807 88.64 84.9607 88.976C85.2407 89.304 85.6167 89.468 86.0887 89.468ZM90.4543 93.092V85.952C90.4543 85.704 90.4463 85.452 90.4303 85.196C90.4143 84.94 90.3903 84.688 90.3583 84.44H91.8103L91.9423 85.712H91.8103C91.9303 85.288 92.1823 84.952 92.5663 84.704C92.9583 84.448 93.4103 84.32 93.9223 84.32C94.4583 84.32 94.9263 84.448 95.3263 84.704C95.7263 84.952 96.0383 85.312 96.2623 85.784C96.4863 86.248 96.5983 86.808 96.5983 87.464C96.5983 88.12 96.4863 88.684 96.2623 89.156C96.0383 89.628 95.7263 89.992 95.3263 90.248C94.9263 90.496 94.4583 90.62 93.9223 90.62C93.4183 90.62 92.9743 90.496 92.5903 90.248C92.2063 90 91.9503 89.668 91.8223 89.252H91.9543V93.092H90.4543ZM93.5023 89.468C93.9823 89.468 94.3663 89.304 94.6543 88.976C94.9423 88.64 95.0863 88.136 95.0863 87.464C95.0863 86.792 94.9423 86.292 94.6543 85.964C94.3663 85.636 93.9823 85.472 93.5023 85.472C93.0303 85.472 92.6503 85.636 92.3623 85.964C92.0743 86.292 91.9303 86.792 91.9303 87.464C91.9303 88.136 92.0743 88.64 92.3623 88.976C92.6503 89.304 93.0303 89.468 93.5023 89.468ZM101.069 93.224L100.721 92.036C101.097 91.956 101.413 91.864 101.669 91.76C101.925 91.656 102.137 91.52 102.305 91.352C102.473 91.184 102.613 90.968 102.725 90.704L103.025 89.996L102.989 90.584L100.349 84.44H101.945L103.841 89.168H103.493L105.401 84.44H106.913L104.153 90.836C103.969 91.268 103.769 91.624 103.553 91.904C103.337 92.192 103.105 92.42 102.857 92.588C102.609 92.764 102.337 92.9 102.041 92.996C101.745 93.092 101.421 93.168 101.069 93.224ZM110.323 90.62C109.699 90.62 109.159 90.492 108.703 90.236C108.247 89.98 107.891 89.616 107.635 89.144C107.387 88.672 107.263 88.112 107.263 87.464C107.263 86.816 107.387 86.26 107.635 85.796C107.891 85.324 108.247 84.96 108.703 84.704C109.159 84.448 109.699 84.32 110.323 84.32C110.947 84.32 111.487 84.448 111.943 84.704C112.407 84.96 112.763 85.324 113.011 85.796C113.267 86.26 113.395 86.816 113.395 87.464C113.395 88.112 113.267 88.672 113.011 89.144C112.763 89.616 112.407 89.98 111.943 90.236C111.487 90.492 110.947 90.62 110.323 90.62ZM110.323 89.468C110.795 89.468 111.171 89.304 111.451 88.976C111.731 88.64 111.871 88.136 111.871 87.464C111.871 86.792 111.731 86.292 111.451 85.964C111.171 85.636 110.795 85.472 110.323 85.472C109.851 85.472 109.475 85.636 109.195 85.964C108.915 86.292 108.775 86.792 108.775 87.464C108.775 88.136 108.915 88.64 109.195 88.976C109.475 89.304 109.851 89.468 110.323 89.468ZM116.873 90.62C116.129 90.62 115.573 90.416 115.205 90.008C114.837 89.6 114.653 88.976 114.653 88.136V84.44H116.153V88.124C116.153 88.572 116.245 88.904 116.429 89.12C116.613 89.328 116.893 89.432 117.269 89.432C117.693 89.432 118.037 89.288 118.301 89C118.573 88.712 118.709 88.332 118.709 87.86V84.44H120.209V90.5H118.745V89.264H118.913C118.737 89.696 118.469 90.032 118.109 90.272C117.757 90.504 117.345 90.62 116.873 90.62ZM121.825 90.5V85.988C121.825 85.732 121.817 85.472 121.801 85.208C121.793 84.944 121.773 84.688 121.741 84.44H123.193L123.361 86.096H123.121C123.201 85.696 123.333 85.364 123.517 85.1C123.709 84.836 123.941 84.64 124.213 84.512C124.485 84.384 124.781 84.32 125.101 84.32C125.245 84.32 125.361 84.328 125.449 84.344C125.537 84.352 125.625 84.372 125.713 84.404L125.701 85.724C125.549 85.66 125.417 85.62 125.305 85.604C125.201 85.588 125.069 85.58 124.909 85.58C124.565 85.58 124.273 85.652 124.033 85.796C123.801 85.94 123.625 86.14 123.505 86.396C123.393 86.652 123.337 86.944 123.337 87.272V90.5H121.825ZM130.249 90.5V85.568H129.085V84.44H130.669L130.249 84.824V83.9C130.249 83.148 130.437 82.58 130.813 82.196C131.197 81.812 131.753 81.62 132.481 81.62C132.657 81.62 132.841 81.632 133.033 81.656C133.233 81.68 133.405 81.724 133.549 81.788V82.964C133.445 82.924 133.321 82.892 133.177 82.868C133.033 82.844 132.893 82.832 132.757 82.832C132.445 82.832 132.197 82.924 132.013 83.108C131.829 83.284 131.737 83.572 131.737 83.972V84.704L131.521 84.44H135.733V90.5H134.233V85.568H131.749V90.5H130.249ZM134.149 83.3V81.836H135.817V83.3H134.149ZM137.364 90.5V81.668H138.864V90.5H137.364ZM143.421 90.62C142.405 90.62 141.609 90.34 141.033 89.78C140.457 89.22 140.169 88.452 140.169 87.476C140.169 86.844 140.293 86.292 140.541 85.82C140.789 85.348 141.133 84.98 141.573 84.716C142.021 84.452 142.541 84.32 143.133 84.32C143.717 84.32 144.205 84.444 144.597 84.692C144.989 84.94 145.285 85.288 145.485 85.736C145.693 86.184 145.797 86.708 145.797 87.308V87.704H141.381V86.912H144.729L144.525 87.08C144.525 86.52 144.405 86.092 144.165 85.796C143.933 85.5 143.593 85.352 143.145 85.352C142.649 85.352 142.265 85.528 141.993 85.88C141.729 86.232 141.597 86.724 141.597 87.356V87.512C141.597 88.168 141.757 88.66 142.077 88.988C142.405 89.308 142.865 89.468 143.457 89.468C143.801 89.468 144.121 89.424 144.417 89.336C144.721 89.24 145.009 89.088 145.281 88.88L145.725 89.888C145.437 90.12 145.093 90.3 144.693 90.428C144.293 90.556 143.869 90.62 143.421 90.62ZM149.228 90.62C148.708 90.62 148.228 90.56 147.788 90.44C147.356 90.312 146.992 90.136 146.696 89.912L147.116 88.904C147.42 89.112 147.756 89.272 148.124 89.384C148.492 89.496 148.864 89.552 149.24 89.552C149.64 89.552 149.936 89.484 150.128 89.348C150.328 89.212 150.428 89.028 150.428 88.796C150.428 88.612 150.364 88.468 150.236 88.364C150.116 88.252 149.92 88.168 149.648 88.112L148.448 87.884C147.936 87.772 147.544 87.58 147.272 87.308C147.008 87.036 146.876 86.68 146.876 86.24C146.876 85.864 146.976 85.532 147.176 85.244C147.384 84.956 147.676 84.732 148.052 84.572C148.436 84.404 148.884 84.32 149.396 84.32C149.844 84.32 150.264 84.38 150.656 84.5C151.056 84.62 151.392 84.8 151.664 85.04L151.232 86.012C150.984 85.812 150.7 85.656 150.38 85.544C150.06 85.432 149.748 85.376 149.444 85.376C149.028 85.376 148.724 85.452 148.532 85.604C148.34 85.748 148.244 85.936 148.244 86.168C148.244 86.344 148.3 86.492 148.412 86.612C148.532 86.724 148.716 86.808 148.964 86.864L150.164 87.092C150.7 87.196 151.104 87.38 151.376 87.644C151.656 87.9 151.796 88.252 151.796 88.7C151.796 89.1 151.688 89.444 151.472 89.732C151.256 90.02 150.956 90.24 150.572 90.392C150.188 90.544 149.74 90.62 149.228 90.62ZM159.108 90.62C158.484 90.62 157.944 90.492 157.488 90.236C157.032 89.98 156.676 89.616 156.42 89.144C156.172 88.672 156.048 88.112 156.048 87.464C156.048 86.816 156.172 86.26 156.42 85.796C156.676 85.324 157.032 84.96 157.488 84.704C157.944 84.448 158.484 84.32 159.108 84.32C159.732 84.32 160.272 84.448 160.728 84.704C161.192 84.96 161.548 85.324 161.796 85.796C162.052 86.26 162.18 86.816 162.18 87.464C162.18 88.112 162.052 88.672 161.796 89.144C161.548 89.616 161.192 89.98 160.728 90.236C160.272 90.492 159.732 90.62 159.108 90.62ZM159.108 89.468C159.58 89.468 159.956 89.304 160.236 88.976C160.516 88.64 160.656 88.136 160.656 87.464C160.656 86.792 160.516 86.292 160.236 85.964C159.956 85.636 159.58 85.472 159.108 85.472C158.636 85.472 158.26 85.636 157.98 85.964C157.7 86.292 157.56 86.792 157.56 87.464C157.56 88.136 157.7 88.64 157.98 88.976C158.26 89.304 158.636 89.468 159.108 89.468ZM163.462 90.5V85.988C163.462 85.732 163.454 85.472 163.438 85.208C163.43 84.944 163.41 84.688 163.378 84.44H164.83L164.998 86.096H164.758C164.838 85.696 164.97 85.364 165.154 85.1C165.346 84.836 165.578 84.64 165.85 84.512C166.122 84.384 166.418 84.32 166.738 84.32C166.882 84.32 166.998 84.328 167.086 84.344C167.174 84.352 167.262 84.372 167.35 84.404L167.338 85.724C167.186 85.66 167.054 85.62 166.942 85.604C166.838 85.588 166.706 85.58 166.546 85.58C166.202 85.58 165.91 85.652 165.67 85.796C165.438 85.94 165.262 86.14 165.142 86.396C165.03 86.652 164.974 86.944 164.974 87.272V90.5H163.462ZM75.7618 105.5V97.04H79.4698C80.3898 97.04 81.0978 97.236 81.5938 97.628C82.0898 98.012 82.3378 98.548 82.3378 99.236C82.3378 99.748 82.1858 100.18 81.8818 100.532C81.5778 100.884 81.1578 101.12 80.6218 101.24V101.06C81.2378 101.148 81.7138 101.372 82.0498 101.732C82.3938 102.084 82.5658 102.552 82.5658 103.136C82.5658 103.888 82.3058 104.472 81.7858 104.888C81.2658 105.296 80.5418 105.5 79.6138 105.5H75.7618ZM77.2498 104.324H79.4338C79.9538 104.324 80.3578 104.228 80.6458 104.036C80.9338 103.836 81.0778 103.512 81.0778 103.064C81.0778 102.608 80.9338 102.284 80.6458 102.092C80.3578 101.892 79.9538 101.792 79.4338 101.792H77.2498V104.324ZM77.2498 100.628H79.2058C79.7578 100.628 80.1658 100.528 80.4298 100.328C80.7018 100.12 80.8378 99.816 80.8378 99.416C80.8378 99.016 80.7018 98.716 80.4298 98.516C80.1658 98.308 79.7578 98.204 79.2058 98.204H77.2498V100.628ZM83.9149 105.5V100.988C83.9149 100.732 83.9069 100.472 83.8909 100.208C83.8829 99.944 83.8629 99.688 83.8309 99.44H85.2829L85.4509 101.096H85.2109C85.2909 100.696 85.4229 100.364 85.6069 100.1C85.7989 99.836 86.0309 99.64 86.3029 99.512C86.5749 99.384 86.8709 99.32 87.1909 99.32C87.3349 99.32 87.4509 99.328 87.5389 99.344C87.6269 99.352 87.7149 99.372 87.8029 99.404L87.7909 100.724C87.6389 100.66 87.5069 100.62 87.3949 100.604C87.2909 100.588 87.1589 100.58 86.9989 100.58C86.6549 100.58 86.3629 100.652 86.1229 100.796C85.8909 100.94 85.7149 101.14 85.5949 101.396C85.4829 101.652 85.4269 101.944 85.4269 102.272V105.5H83.9149ZM91.2801 105.62C90.6561 105.62 90.1161 105.492 89.6601 105.236C89.2041 104.98 88.8481 104.616 88.5921 104.144C88.3441 103.672 88.2201 103.112 88.2201 102.464C88.2201 101.816 88.3441 101.26 88.5921 100.796C88.8481 100.324 89.2041 99.96 89.6601 99.704C90.1161 99.448 90.6561 99.32 91.2801 99.32C91.9041 99.32 92.4441 99.448 92.9001 99.704C93.3641 99.96 93.7201 100.324 93.9681 100.796C94.2241 101.26 94.3521 101.816 94.3521 102.464C94.3521 103.112 94.2241 103.672 93.9681 104.144C93.7201 104.616 93.3641 104.98 92.9001 105.236C92.4441 105.492 91.9041 105.62 91.2801 105.62ZM91.2801 104.468C91.7521 104.468 92.1281 104.304 92.4081 103.976C92.6881 103.64 92.8281 103.136 92.8281 102.464C92.8281 101.792 92.6881 101.292 92.4081 100.964C92.1281 100.636 91.7521 100.472 91.2801 100.472C90.8081 100.472 90.4321 100.636 90.1521 100.964C89.8721 101.292 89.7321 101.792 89.7321 102.464C89.7321 103.136 89.8721 103.64 90.1521 103.976C90.4321 104.304 90.8081 104.468 91.2801 104.468ZM97.2085 105.5L94.8445 99.44H96.3925L98.0965 104.156H97.7845L99.5125 99.44H100.581L102.297 104.156H102.021L103.713 99.44H105.177L102.813 105.5H101.493L99.6805 100.676H100.317L98.5405 105.5H97.2085ZM108.165 105.62C107.645 105.62 107.165 105.56 106.725 105.44C106.293 105.312 105.929 105.136 105.633 104.912L106.053 103.904C106.357 104.112 106.693 104.272 107.061 104.384C107.429 104.496 107.801 104.552 108.177 104.552C108.577 104.552 108.873 104.484 109.065 104.348C109.265 104.212 109.365 104.028 109.365 103.796C109.365 103.612 109.301 103.468 109.173 103.364C109.053 103.252 108.857 103.168 108.585 103.112L107.385 102.884C106.873 102.772 106.481 102.58 106.209 102.308C105.945 102.036 105.813 101.68 105.813 101.24C105.813 100.864 105.913 100.532 106.113 100.244C106.321 99.956 106.613 99.732 106.989 99.572C107.373 99.404 107.821 99.32 108.333 99.32C108.781 99.32 109.201 99.38 109.593 99.5C109.993 99.62 110.329 99.8 110.601 100.04L110.169 101.012C109.921 100.812 109.637 100.656 109.317 100.544C108.997 100.432 108.685 100.376 108.381 100.376C107.965 100.376 107.661 100.452 107.469 100.604C107.277 100.748 107.181 100.936 107.181 101.168C107.181 101.344 107.237 101.492 107.349 101.612C107.469 101.724 107.653 101.808 107.901 101.864L109.101 102.092C109.637 102.196 110.041 102.38 110.313 102.644C110.593 102.9 110.733 103.252 110.733 103.7C110.733 104.1 110.625 104.444 110.409 104.732C110.193 105.02 109.893 105.24 109.509 105.392C109.125 105.544 108.677 105.62 108.165 105.62ZM114.945 105.62C113.929 105.62 113.133 105.34 112.557 104.78C111.981 104.22 111.693 103.452 111.693 102.476C111.693 101.844 111.817 101.292 112.065 100.82C112.313 100.348 112.657 99.98 113.097 99.716C113.545 99.452 114.065 99.32 114.657 99.32C115.241 99.32 115.729 99.444 116.121 99.692C116.513 99.94 116.809 100.288 117.009 100.736C117.217 101.184 117.321 101.708 117.321 102.308V102.704H112.905V101.912H116.253L116.049 102.08C116.049 101.52 115.929 101.092 115.689 100.796C115.457 100.5 115.117 100.352 114.669 100.352C114.173 100.352 113.789 100.528 113.517 100.88C113.253 101.232 113.121 101.724 113.121 102.356V102.512C113.121 103.168 113.281 103.66 113.601 103.988C113.929 104.308 114.389 104.468 114.981 104.468C115.325 104.468 115.645 104.424 115.941 104.336C116.245 104.24 116.533 104.088 116.805 103.88L117.249 104.888C116.961 105.12 116.617 105.3 116.217 105.428C115.817 105.556 115.393 105.62 114.945 105.62Z" fill="black"/>
<path d="M74.8258 106.784H117.777V107.312H74.8258V106.784Z" fill="black"/>
</g>
</svg>
