<svg width="50" height="43" viewBox="0 0 50 43" fill="none" xmlns="http://www.w3.org/2000/svg">
<path d="M46.9005 20.9473L37.6279 17.4725V7.05763C37.6279 5.61779 36.7352 4.33153 35.3818 3.82278L25.7828 0.223176C25.0053 -0.0743919 24.1414 -0.0743919 23.3543 0.223176L13.7553 3.82278C12.4019 4.33153 11.5092 5.61779 11.5092 7.05763V17.4725L2.23656 20.9473C0.892703 21.4561 0 22.7423 0 24.1822V34.7506C0 36.0561 0.73912 37.2559 1.91019 37.8415L11.5092 42.641C12.4786 43.1305 13.6305 43.1305 14.6 42.641L24.5733 37.6495L34.5467 42.641C35.5162 43.1305 36.668 43.1305 37.6375 42.641L47.2365 37.8415C48.4076 37.2559 49.1467 36.0561 49.1467 34.7506V24.1822C49.1467 22.7423 48.254 21.4561 46.9005 20.9473ZM34.3643 17.5493L26.2052 20.6114V14.0649L34.3643 10.5133V17.5493ZM14.7824 6.92325L24.5733 3.25645L34.3643 6.92325V6.98084L24.5733 10.9548L14.7824 6.98084V6.92325ZM22.8455 34.8658L14.6864 38.9454V31.3526L22.8455 27.6282V34.8658ZM22.8455 24.115L13.0546 28.0889L3.26365 24.115V24.0574L13.0546 20.3906L22.8455 24.0574V24.115ZM45.883 34.8658L37.7239 38.9454V31.3526L45.883 27.6282V34.8658ZM45.883 24.115L36.0921 28.0889L26.3012 24.115V24.0574L36.0921 20.3906L45.883 24.0574V24.115Z" fill="#6C6C6C"/>
</svg>
