<svg width="31" height="27" viewBox="0 0 31 27" fill="none" xmlns="http://www.w3.org/2000/svg">
<path d="M12.8865 20.4322L30.0389 3.51418C30.8596 2.70453 30.8528 1.39664 30.023 0.595897C29.1932 -0.204851 27.8527 -0.198178 27.032 0.611467L12.8865 14.5778L8.71927 10.5207C7.89402 9.71553 6.55356 9.71553 5.72831 10.5207C4.90306 11.3259 4.90306 12.6338 5.72831 13.439L12.8865 20.43V20.4322Z" fill="#290562"/>
<path fill-rule="evenodd" clip-rule="evenodd" d="M5.63396 5.07293C4.32777 5.07293 3.27028 6.12345 3.27028 7.42102V21.4031C3.27028 22.7007 4.32777 23.7512 5.63396 23.7512H19.5417C20.8479 23.7512 21.9054 22.7007 21.9054 21.4031V14.9544C21.9054 14.0573 22.6375 13.3301 23.5406 13.3301C24.4436 13.3301 25.1757 14.0573 25.1757 14.9544V21.4031C25.1757 24.4949 22.654 26.9999 19.5417 26.9999H5.63396C2.52165 26.9999 0 24.4949 0 21.4031V7.42102C0 4.32923 2.52165 1.82422 5.63396 1.82422H18.6043C19.5073 1.82422 20.2394 2.55147 20.2394 3.44857C20.2394 4.34568 19.5073 5.07293 18.6043 5.07293H5.63396Z" fill="#290562"/>
</svg>
