<svg width="32" height="44" viewBox="0 0 32 44" fill="none" xmlns="http://www.w3.org/2000/svg">
<path d="M28 6.00008H21.3333C21.3333 3.05841 18.9417 0.666748 16 0.666748C13.0583 0.666748 10.6667 3.05841 10.6667 6.00008H4C1.79167 6.00008 0 7.79175 0 10.0001V39.3334C0 41.5417 1.79167 43.3334 4 43.3334H28C30.2083 43.3334 32 41.5417 32 39.3334V10.0001C32 7.79175 30.2083 6.00008 28 6.00008ZM8 36.0001C6.89167 36.0001 6 35.1084 6 34.0001C6 32.8917 6.89167 32.0001 8 32.0001C9.10833 32.0001 10 32.8917 10 34.0001C10 35.1084 9.10833 36.0001 8 36.0001ZM8 28.0001C6.89167 28.0001 6 27.1084 6 26.0001C6 24.8917 6.89167 24.0001 8 24.0001C9.10833 24.0001 10 24.8917 10 26.0001C10 27.1084 9.10833 28.0001 8 28.0001ZM8 20.0001C6.89167 20.0001 6 19.1084 6 18.0001C6 16.8917 6.89167 16.0001 8 16.0001C9.10833 16.0001 10 16.8917 10 18.0001C10 19.1084 9.10833 20.0001 8 20.0001ZM16 4.00008C17.1083 4.00008 18 4.89175 18 6.00008C18 7.10841 17.1083 8.00008 16 8.00008C14.8917 8.00008 14 7.10841 14 6.00008C14 4.89175 14.8917 4.00008 16 4.00008ZM26.6667 34.6667C26.6667 35.0334 26.3667 35.3334 26 35.3334H14C13.6333 35.3334 13.3333 35.0334 13.3333 34.6667V33.3334C13.3333 32.9667 13.6333 32.6667 14 32.6667H26C26.3667 32.6667 26.6667 32.9667 26.6667 33.3334V34.6667ZM26.6667 26.6667C26.6667 27.0334 26.3667 27.3334 26 27.3334H14C13.6333 27.3334 13.3333 27.0334 13.3333 26.6667V25.3334C13.3333 24.9667 13.6333 24.6667 14 24.6667H26C26.3667 24.6667 26.6667 24.9667 26.6667 25.3334V26.6667ZM26.6667 18.6667C26.6667 19.0334 26.3667 19.3334 26 19.3334H14C13.6333 19.3334 13.3333 19.0334 13.3333 18.6667V17.3334C13.3333 16.9667 13.6333 16.6667 14 16.6667H26C26.3667 16.6667 26.6667 16.9667 26.6667 17.3334V18.6667Z" fill="#6C6C6C"/>
</svg>
