<svg width="38" height="38" viewBox="0 0 38 38" fill="none" xmlns="http://www.w3.org/2000/svg">
<path d="M8.31374 18.1282L18.1267 8.31674L14.9097 5.09972L10.4123 9.59713C10.3586 9.65087 10.2949 9.6935 10.2248 9.72259C10.1547 9.75168 10.0795 9.76665 10.0036 9.76665C9.92764 9.76665 9.85246 9.75168 9.78233 9.72259C9.7122 9.6935 9.6485 9.65087 9.59487 9.59713L8.77748 8.77976C8.55145 8.55372 8.55145 8.18768 8.77748 7.96238L13.2749 3.46496L10.822 1.01136C9.91861 0.107944 8.45447 0.107944 7.55104 1.01136L1.00979 7.55259C0.107091 8.45601 0.106362 9.92015 1.00979 10.8236L8.31374 18.1282ZM36.6393 9.61172C38.0072 8.24383 38.0064 6.02647 36.6393 4.65859L33.3398 1.35917C31.9719 -0.00872064 29.7538 -0.00872064 28.3852 1.35917L25.0296 4.714L33.2837 12.968L36.6393 9.61172ZM23.3796 6.3648L1.72363 28.0177L0.355733 35.8517C0.171257 36.9083 1.09145 37.8285 2.14873 37.6425L9.98351 36.2688L31.6336 14.6181L23.3796 6.3648ZM36.9878 27.177L34.5349 24.7241L30.0375 29.2215C29.8114 29.4476 29.4454 29.4476 29.2201 29.2215L28.4027 28.4042C28.1774 28.1781 28.1774 27.8121 28.4027 27.5868L32.9001 23.0894L29.6817 19.8709L19.8687 29.6824L27.1755 36.9885C28.079 37.8919 29.5431 37.8919 30.4465 36.9885L36.9878 30.448C37.8912 29.5446 37.8912 28.0804 36.9878 27.177Z" fill="#6C6C6C"/>
</svg>
