<?xml version="1.0" encoding="UTF-8"?>
<svg xmlns="http://www.w3.org/2000/svg" version="1.1" viewBox="0 0 652.6 444">
  <defs>
    <style>
      .cls-1 {
        fill: #317194;
      }

      .cls-2 {
        fill: #13093d;
      }

      .cls-3 {
        fill: #153657;
      }

      .cls-4 {
        fill: #1a498d;
      }

      .cls-5 {
        fill: #3d8bbb;
      }

      .cls-6 {
        fill: #c7cebe;
      }

      .cls-7 {
        fill: #230b5f;
      }

      .cls-8, .cls-9 {
        isolation: isolate;
      }

      .cls-10 {
        fill: #3f7b23;
      }

      .cls-11 {
        fill: #f2ab19;
      }

      .cls-12 {
        fill: #2b5118;
      }

      .cls-13 {
        fill: #8da652;
      }

      .cls-14 {
        fill: #fff;
      }

      .cls-15 {
        fill: #4e296e;
      }

      .cls-16 {
        fill: #e2ead5;
      }

      .cls-17 {
        fill: #662e91;
      }

      .cls-9 {
        font-family: HelveticaNeue-Bold, 'Helvetica Neue';
        font-size: 12.7px;
        font-weight: 700;
      }
    </style>
  </defs>
  <!-- Generator: Adobe Illustrator 28.7.1, SVG Export Plug-In . SVG Version: 1.2.0 Build 142)  -->
  <g>
    <g id="Layer_1">
      <path class="cls-6" d="M125.3,56.2c-.8.2-1.3.6-1.5,1s0,.7.2,1l6.4,6.4c.2.2.2.4.2.6,0,.3.1.5.5.6.2,0,.3,0,.5.3,4,3.9,7.4,8.7,10.3,14.4,7.5,14.9,9.6,30.7,6.1,47.5-1.7,8.3-2.3,13.1-5.6,18.7-3.7,6.5-8,12.6-12.8,18.4h-.2s-.1-.1,0-.2l2.5-2.7v-.2h-.2l-4.7,4.3c.5-1.3,1.5-2.4,2.9-3.3.2-.1.4-.3.4-.6s0-.3-.2-.1l-.3.3c-.1,0-.2.1-.2,0v-.2c0-.3,0-.5.1-.6,3.3-3.8,6.9-9.1,10.9-15.7.9-1.6,1.6-3.1,2.1-4.6.8-2.5,1.2-3.8,1.2-3.9,1.9-6,2.9-9.7,3-11.1.3-4,.5-7.9.8-11.9,0,0,0-.7.2-1.9.2-1.3.1-2.9,0-4.6-.8-7.1-2-12.9-3.3-17.3-2-6.4-5.1-12.7-9.2-18.9-1.1-1.7-1.7-2.1-1.6-1.1-4.7-6.3-8.1-10.3-10.2-12-5-4-8.3-6.6-10-7.7-7.5-5.1-16-8.5-25.7-10-1.6-.3-2.1-.7-1.5-1.3,18.8-13.7,40.9-22.2,64.1-23.6,1.6,0,2.9-.2,3.9-.4.3,0,.5-.2.5-.6-.1-4.8,0-8.8.3-12.1,0-.6.2-.6.5,0l18.5,29.3c.1.2.1.4,0,.6l-18.5,29.1c-.6.9-.9.8-.9-.2v-11.7c0-.4-.2-.6-.6-.6-9.8.6-19.4,2.8-28.7,6.6h-.2Z"/>
      <path class="cls-10" d="M401.9,99.3c-12-5.5-23.4-9.3-34-11.5-1.5-.3-2.7-.6-3.3-.9-.3,0-.6-.2-1-.2-1.5,0-3,0-4.5-.7-1.4-.5-2.9-.3-4.6-.3s-2-.2-3.4-.5c-1.8-.4-4.2-.6-7.3-.6-7.4,0-13,0-16.8.4.7-3.5-.4-6.1-3.3-7.8-2.7-1.6-4.9-1-7.2,1.2-4.5,4.4-8.6,8.5-12.2,12.4-.2.2-.6.3-.8,0h0l-14.4-14.4c-.4-.4-.8-.4-1.2,0l-7.8,7.8c-.4.4-.4,1,0,1.4l8.3,8.4c-1.2.8-3.3,1.8-6.1,3-3.7,1.5-8.6,4.2-14.8,8.1-3,1.9-6.3,4.2-9.9,6.9-3.2,2.4-6.4,4.9-9.6,7.3-.4-.8-.7-1.1-1.1-.9-19.3,7-43.2,15.7-71.8,26.1-.7.3-.9,0-.6-.7,17.4-36.5,45.8-66.5,81.8-84.9,23.8-12.2,48.8-18.8,74.8-19.8,3.8-.2,6.3-.3,7.5-.4.3,0,.5-.2.5-.6v-20.1c0-.7.2-.8.7-.2l62.1,81.3v.2Z"/>
      <g>
        <path d="M202.4,37.5h5.8s.2,0,.1,0v5.1q0,.2-.2.2h-15.8c-.3,0-.5-.2-.5-.5v-3.4c0-.3.1-.6.3-.8,4.6-4.1,7.2-6.5,7.8-7.1.8-.8,1.1-1.8.7-2.9-.1-.3-.4-.5-.7-.6-1.7-.4-2.9,0-3.8,1.3-.3.4-.6.5-1.1.3l-4-2.3c-.3-.2-.4-.5-.2-.8h0c3.4-3.9,7.6-4.9,12.3-3.3,4,1.3,5.3,4,4.1,7.9-.8,2.5-4.2,4.7-5.3,6.3-.3.5-.3.7.2.7l.3-.2Z"/>
        <path class="cls-14" d="M217.7,29.2c0-.3.2-.5.5-.5h1.4c1.1,0,1.9.7,1.9,1.5v.4c0,.8-.9,1.4-1.9,1.4h-1.3c-.3,0-.5-.2-.5-.5v-2.4h0Z"/>
        <rect class="cls-14" x="226.4" y="29" width="3.2" height="2.9" rx=".8" ry=".8" transform="translate(191.6 257.6) rotate(-88.5)"/>
        <rect class="cls-14" x="243.4" y="28.9" width="3.2" height="2.9" rx=".7" ry=".7" transform="translate(208.7 274.5) rotate(-88.6)"/>
        <path class="cls-14" d="M260.7,29.1c0-.2.1-.3.3-.3h1.5c1.1,0,1.9.7,1.9,1.5v.4c0,.8-.9,1.4-2,1.4h-1.5c-.2,0-.3-.2-.3-.3h0v-2.6h.1Z"/>
        <path class="cls-14" d="M253.3,29.7c.3,0,.6.6,1,2,.1.4,0,.6-.4.7h-1c-.4,0-.6-.2-.5-.6.4-1.3.7-2,.9-2h0Z"/>
        <g class="cls-8">
          <text class="cls-9" transform="translate(214.6 36.5)"><tspan x="0" y="0">PREPARE</tspan></text>
        </g>
      </g>
      <path class="cls-4" d="M475.6,241.6c-.4-1.7-.5-3.4-.2-5.3.4-2.9.6-4.6.6-5.2.2-7.5.1-14.9,0-22.4,0-1.6-1-3.8-.9-5.6,0-1.6,0-2.8-.4-3.7-.3-.9-.6-2.1-.7-3.6-.1-1.4-.6-3.6-1.4-6.6-2.1-8.2-4.9-16.2-8.2-24-1.2-2.8-2.4-4.8-3.7-5.9v-29.1c0-1.2-.6-2.1-1.8-2.7-1.3-.8-3.4-.4-4.5-.4s-.5-.3-.5-.6c0-1-.2-1.7-.5-2.1-.3-.3-.6-.4-.9-.4h-3.1c-.6,0-1.2-.3-1.6-.8-1.8-2.6-4.1-3.5-6.9-2.5-1.2.4-2.3,1.9-3.3,2.9-.2.3-.5.4-.9.4h-2v-.8c0-.2-.2-.5-.4-.7-6.3-5.8-11.1-9.8-14.4-12-4.8-3.2-9.7-6.4-14.6-9.5.7-.4.8-.8.5-1.3-17.6-23-32.6-42.6-45.1-58.9-.1-.2,0-.4,0-.5h.3c42,5.4,77.8,22.7,107.4,51.9,19.9,19.7,35,44,44,70.5,0,.2.3.4.6.3h0c8.5-2.7,14.4-4.6,17.7-5.7.3-.1.5-.1.6-.1.3,0,.4.2.2.5l-55.6,84h-.3Z"/>
      <g>
        <path d="M500.2,75.4h.7c.2,0,.4,0,.6.2,2.8,2,3.7,4.3,2.9,7-.7,2.2-2.2,3.7-4.6,4.5-2.2.8-4.6,1-7.3.5-2.4-.4-4.1-.9-5.2-1.5-.2,0-.2-.3-.1-.5l2.2-4.6c0,0,.2-.2.3,0,1.7.9,7.8,2.9,8-.3,0-.7-.5-1.2-1.1-1.3h-3.6c-.3,0-.5-.2-.5-.5v-3.1c0-.3.1-.6.3-.8l2.3-2.3c.3-.3.2-.5-.2-.5h-6.3c-.3,0-.4,0-.4-.4v-4.4c0-.3.2-.5.5-.5h14.2c.3,0,.5.2.5.5h0v3.4c0,.3-.1.6-.3.8l-3,3c-.4.4-.3.7.3.7h-.2Z"/>
        <path class="cls-14" d="M515.8,75.7c.2,0,.5.7.9,2,0,.3,0,.5-.4.6h-1.2c-.3,0-.5-.2-.3-.6.4-1.3.8-2,1-2h0Z"/>
        <g class="cls-8">
          <text class="cls-9" transform="translate(511.2 81.9)"><tspan x="0" y="0">ASSESS</tspan></text>
        </g>
      </g>
      <path class="cls-14" d="M327,85.2l-22.1,22.3c-.2.2-.2.5,0,.7l13.4,13.3c.2.2.6.2.9,0l5.7-5.7c.4-.4.4-.7,0-1.1l-2.3-2.3c-.4-.4-.7-.3-1,0-.3.5-1.3,1.5-3,3-.2.2-.4.2-.7.2h-.3c-.4-.2-.6-.5-.5-.9,0,0,0-.2.2-.3l3.2-3.3c.3-.3.3-.6,0-.9l-1.6-1.6c-.3-.3-.6-.3-.9,0-.5.7-.9,1.1-1.2,1.2-.6.2-1,.2-1.3,0s-.3-.5-.1-.8c.5-.7.9-1.2,1.4-1.5s.5-.6.1-1l-1.5-1.5c-.3-.3-.7-.3-1,0l-3,3.1c-.3.3-.9.3-1.2,0h0l-.2-.2c-.4-.4-.4-.7,0-1.1l3.3-3.3c.2-.2.2-.4,0-.5l-.5-.4c-.4-.3-.5-.7-.3-1.1.1-.2.3-.4.7-.5.3,0,.6,0,.9.2l13.3,13.3c.4.4.4.9,0,1.3l-7.7,7.7c-.4.4-1.1.4-1.5,0h0l-14.4-14.3c-.2-.2-.4-.2-.6,0h0c-2.9,3-5.9,6-8.8,9-1,1-2.2,1.7-3.6,2.1-3.1.9-5.9,1.7-8.3,2.4-.5.2-1.1,0-1.2-.6v-.5l2.5-9.7c0-.3.2-.6.5-.8l10.2-10.2c.2-.2.2-.5,0-.7l-5.9-6-8.3-8.4c-.4-.4-.4-1,0-1.4l7.8-7.8c.4-.4.8-.4,1.2,0l14.4,14.4c.2.2.6.2.8,0h0c3.6-3.8,7.7-8,12.2-12.4,2.2-2.2,4.4-2.8,7.2-1.2,2.9,1.7,4,4.3,3.3,7.8h-.2ZM317.2,81.5l5.1,5.1c.2.2.6.2.8,0l1.4-1.3c1.3-1.3,1.2-3.6-.3-5.1l-.5-.5c-1.5-1.5-3.8-1.6-5.1-.3l-1.4,1.4c-.2.2-.2.6,0,.8h0ZM290.8,94l4.9,4.8c.2.2.5.2.7,0l4.3-4.3c.5-.5.9-.4,1.3,0l.2.3c.2.3.1.7-.1,1l-15.8,15.8c-.1,0-.1.2,0,.3l5.6,5.6h.3l26.2-26.2c.1,0,.1-.3,0-.4l-1.9-1.9h-.2l-23.6,23.6c-.4.4-.8.4-1.3,0l-.4-.2c-.3-.2-.4-.5-.2-.8h0c0,0,23.9-23.9,23.9-23.9.1,0,.1-.3,0-.5l-1.5-1.5c-.3-.3-.6-.3-.9,0l-7.4,7.4c-.4.4-1.1.4-1.4,0h0l-2.6-2.7c-.2-.2-.6-.2-.8,0h0c-1.4,2-2.9,3-4.5,3.1.6-1.7,1.7-3.2,3.3-4.3.2-.2.3-.5.1-.7h0l-1.7-1.7c-.2-.2-.5-.2-.7,0l-1.1,1.1c-1,1-1.5.8-1.6-.5,0-.5.5-1,1.4-1.7.2-.2.3-.5.1-.7h0l-1.8-1.8c-.2-.2-.4-.2-.6,0l-3.1,3.2c-.3.3-.6.3-.9,0l-.4-.2c-.3-.2-.4-.5-.2-.8h0c0,0,3.2-3.3,3.2-3.3.3-.3.3-.6,0-.9l-2.2-2.2c-.4-.4-.9-.4-1.3,0l-5.3,5.3c-.5.5-.5.9,0,1.4l8.3,8.2-.3-.2ZM316.1,82.9c-.3-.3-.8-.3-1.1,0l-.7.7c-.3.3-.3.8,0,1.1h0l4.9,4.9c.3.3.8.3,1.1,0l.7-.7c.3-.3.3-.8,0-1.1l-4.9-4.9ZM289.9,118.8c.2,0,.3-.2.2-.4h0c0,0-4.5-4.5-4.5-4.5-.1,0-.3,0-.4,0h0c0,0-1.8,6.3-1.8,6.3,0,.2,0,.3.2.4h.2l6.2-1.8h-.1Z"/>
      <path class="cls-10" d="M317.2,81.5c-.2-.2-.2-.6,0-.8l1.4-1.4c1.3-1.3,3.6-1.2,5.1.3l.5.5c1.5,1.5,1.6,3.8.3,5.1l-1.4,1.3c-.2.2-.6.2-.8,0l-5.1-5.1h0Z"/>
      <path class="cls-10" d="M295.3,93.8c-.7-1.5-2.2-1.4-4.4.2l-8.3-8.2c-.5-.5-.5-.9,0-1.4l5.3-5.3c.4-.4.9-.4,1.3,0l2.2,2.2c.3.3.3.6,0,.9l-3.2,3.2c-.2.2-.2.6,0,.9h.1l.4.2c.3.2.6.2.9,0l3.1-3.2c.2-.2.4-.2.6,0l1.8,1.8c.2.2.2.5,0,.7h0c-1,.7-1.4,1.2-1.4,1.7,0,1.3.6,1.5,1.6.5l1.1-1.1c.2-.2.5-.2.7,0l1.7,1.7c.2.2.2.5,0,.7h0c-1.6,1.1-2.8,2.6-3.3,4.3l-.2.3Z"/>
      <rect class="cls-10" x="316.5" y="82" width="2.5" height="8.4" rx=".8" ry=".8" transform="translate(32.1 249.9) rotate(-45)"/>
      <ellipse class="cls-13" cx="339" cy="219.9" rx="66.7" ry="65.6"/>
      <path class="cls-12" d="M401.9,99.3c.4,0,.5.2.5.6s-.1.4-.3.6c-14.8,16.5-29.6,33-44.4,49.5l-1.5,1.7-3.2,3.6-13.2,14.7c-.5.5-.7.4-.7-.3v-21.5c0-.4-.2-.5-.5-.5l-6.4.4c-7.6.7-14.9,2.7-21.9,5.7-12.1,5.3-22.1,13.4-30.1,24.1l-32.2-58.5c3.2-2.5,6.4-4.9,9.6-7.3,3.6-2.7,6.9-5,9.9-6.9,6.2-3.9,11.1-6.6,14.8-8.1,2.8-1.2,4.9-2.1,6.1-3l5.9,6c.2.2.2.5,0,.7l-10.2,10.2c-.2.2-.4.5-.5.8l-2.5,9.7c-.1.5.2,1,.7,1.2h.5c2.4-.7,5.2-1.5,8.3-2.4,1.4-.4,2.6-1.1,3.6-2.1,3-3,5.9-6,8.8-9,.2-.2.4-.2.6,0h0l14.4,14.3c.4.4,1.1.4,1.5,0h0l7.7-7.7c.4-.4.4-.9,0-1.3l-13.3-13.3c-.2-.2-.5-.3-.9-.2-.4,0-.6.2-.7.5-.2.4-.1.8.3,1.1l.5.4c.2.2.2.3,0,.5l-3.3,3.3c-.4.4-.4.7,0,1.1l.2.2c.3.3.9.3,1.2,0h0l3-3.1c.3-.3.7-.3,1,0l1.5,1.5c.4.4.4.7-.1,1-.4.3-.9.8-1.4,1.5-.2.3-.2.6.1.8.3.2.7.2,1.3,0s.7-.5,1.2-1.2c.3-.4.5-.4.9,0l1.6,1.6c.3.3.3.6,0,.9l-3.2,3.3c-.3.3-.3.7,0,1,0,0,.2.2.3.2h.3c.3,0,.5,0,.7,0,1.7-1.5,2.7-2.5,3-3s.6-.5,1,0l2.3,2.3c.4.4.4.7,0,1.1l-5.7,5.7c-.2.2-.6.2-.9,0l-13.4-13.3c-.2-.2-.2-.5,0-.7l22.1-22.3c3.8-.3,9.4-.5,16.8-.4,3.1,0,5.5.2,7.3.6,1.4.3,2.5.5,3.4.5,1.7,0,3.2-.2,4.6.3s2.9.8,4.5.7c.3,0,.7,0,1,.2.7.3,1.8.5,3.3.9,10.6,2.2,22,6,34,11.5l.2-.3Z"/>
      <path class="cls-12" d="M290.8,94c2.3-1.7,3.7-1.8,4.4-.2,1.6,0,3.1-1.1,4.5-3.1.2-.3.6-.3.8,0h0l2.6,2.7c.4.4,1,.4,1.4,0h0l7.4-7.4c.3-.3.6-.3.9,0l1.5,1.5c.1,0,.1.3,0,.5l-23.9,23.8c-.2.2-.2.6,0,.9h.1l.4.2c.5.3.9.3,1.3,0l23.6-23.6h.2l1.9,1.9c.1,0,.1.3,0,.4l-26.2,26.2h-.3l-5.6-5.6c-.1,0-.1-.2,0-.3l15.8-15.8c.3-.3.3-.7.1-1l-.2-.3c-.4-.6-.8-.6-1.3,0l-4.3,4.3c-.2.3-.5.3-.7,0l-4.9-4.8h.5Z"/>
      <path class="cls-3" d="M404.9,101c4.9,3.1,9.8,6.3,14.6,9.5,3.3,2.2,8.1,6.2,14.4,12,.2.2.4.4.4.7v.8c-2-.4-2.9.4-3,2.5,0,.3-.2.5-.5.5h-2.2c-1,0-1.9,0-2.5.8-1,1-1.5,1.9-1.5,2.6v38.7c0,2.1,1.7,3.8,3.8,3.8h28.1c2.1,0,3.8-1.7,3.8-3.8v-9.8c1.3,1.1,2.5,3.1,3.7,5.9,3.3,7.8,6.1,15.8,8.2,24,.8,3,1.2,5.2,1.4,6.6.1,1.6.4,2.8.7,3.6.4.9.5,2.1.4,3.7,0,1.8.9,4,.9,5.6.2,7.5.2,14.9,0,22.4,0,.5-.2,2.3-.6,5.2-.2,1.9-.2,3.6.2,5.3-.1.4-.3.8-.5,1-.2.3-.5.3-.8.2l-62.1-26.9-1.3-.5-4.6-2-18.5-8c-.3-.2-.7-.3-1.2-.5-.1-.6.1-1,.7-1.2,5.2-1.7,10.4-3.4,15.5-5.1l2.8-.9,2.1-.7c.7-.2.9-.7.6-1.4-9.2-22.4-25.2-37.4-48-44.9l44.5-49.6h.5Z"/>
      <path class="cls-12" d="M289.9,118.8l-6.2,1.8c-.2,0-.3,0-.4-.2v-.2l1.8-6.2c0-.2.2-.3.4-.2h.1l4.5,4.4c.1,0,.1.3,0,.4h-.1v.2Z"/>
      <path class="cls-14" d="M460.5,159.3v9.8c0,2.1-1.8,3.8-3.9,3.8h-28.1c-2.1,0-3.8-1.7-3.8-3.8v-38.7c0-.8.5-1.6,1.5-2.6.6-.6,1.5-.9,2.5-.8h2.2c.3,0,.5-.2.5-.5,0-2,1-2.9,3-2.5h2c.3,0,.6-.2.9-.5.9-1,2-2.5,3.3-2.9,2.8-.9,5.1,0,6.9,2.5.4.5,1,.8,1.6.8h3.1c.4,0,.7,0,.9.4.3.3.5,1,.5,2.1s.2.5.5.6c1.1,0,3.1-.3,4.5.4,1.2.7,1.8,1.6,1.8,2.7v29.1h.1ZM437.8,126.1l-4,.2c-.2,0-.3,0-.3.3v3.2c0,.2.1.3.3.3h17.3c.3,0,.5-.2.5-.5v-3.1c0-.2-.1-.3-.3-.3h-3.5c-.4,0-.7,0-.9-.4l-2.1-2.1c-1.2-1.2-3-1.2-4.2,0l-2.8,2.5h0ZM457.9,151.6v-19.3c0-1.1.3-2.3-.9-3.1-.6-.4-1.6-.5-3.1-.3-.4,0-.5.3-.5.6.2,1.7-.4,2.6-1.7,2.6-2.4,0-4.9,0-7.3.1h-10.2c-2,0-3-.6-2.9-2,0-.9-.3-1.4-1.3-1.4h-1.1c-1,0-1.8.8-1.8,1.8h0v38.4c0,1,.5,1.6,1.6,1.6h27.8c.8,0,1.4-.6,1.4-1.4v-17.7h0Z"/>
      <path class="cls-15" d="M278.6,180.2l.9,1.6,2.9,5.3,6.5,11.5-4.1.8c-.4,0-.5.3-.6.7v2.6l-8.1-2.5-5-1.6-.9-.3c-.3-.1-.6,0-.7.3h0c-6,19.8-4.3,38.8,5.1,57,.7,1.3,2.5,4.3,5.5,9l-65.7,13.9c-2.7-7.2-5.4-15.7-8.1-25.3-1.3-4.6-1.9-8.9-1.9-13,2,.5,3.8.8,5.6.6,1.3,0,2.7-.6,4.3-1.7,7-4.6,16.8-5.9,24.8-5.5.5,0,1-.4,1-.9h0v-8.2c0-.3,0-.5-.2-.7l-7.9-12.6c-.4-.6-1-.9-1.7-.8l-6.9,1.2c-.4,0-.5,0-.4-.4l5.6-20.8c.7-2.7-.2-4.4-2.8-5h-.2c-2.6-.7-4.2.3-4.9,2.8-3.1,11.7-5,18.8-5.7,21.3-.5,1.6-.5,3.2-.2,4.7.5,2.5.9,4,1.1,4.6.2.6.7.9,1.3.8.2,0,.4-.2.5-.3,2-2.2,3.6-4.8,6.4-5.5,2.1-.5,4-.9,5.6-1.1.4,0,.7.1.9.4l6.2,9.8c.2.3,0,.4-.2.4-7.4.1-14.3,1.5-20.8,4-.5.2-1.3.7-2.6,1.5-.2.2-.4.4-.3.7v.5c.2.6.5.8,1.1.5,7.1-3.4,14.8-5.1,23.3-5.2.4,0,.7.3.7.7h0v1.1c-.1.5-.4.7-.8.7-4.9,0-10.1.5-15.5,1.7-2.4.5-4.5,1.3-6.4,2.4-.3.2-.4.4-.3.7v.4c.2.5.4.7.9.5,6.9-2.6,14.1-3.9,21.7-3.7.5,0,.6.2.5.7v.5c-.2.3-.5.6-.9.6-8,0-17.7,1.4-24.3,5.9-1.3.9-2.3,1.3-3,1.3-1.3,0-2.4,0-3.3-.1-.3,0-.7-.1-.9-.4-5.2-4.4-12.7-6-19.2-6.5-1.1,0-3.4-.2-6.9-.4-.2,0-.3,0-.3-.3v-1.2c0-.1,0-.2.2-.2,7.5-.2,14.9,1,22,3.7.4.2.9,0,1-.5v-.2c0-.6-.4-1.1-1.4-1.6.3-.2.6-.6,1-1.2.4.5.8.7,1.2.6.5,0,.8-.5.8-1v-.2c-.5-1.3-1.2-2.3-2.1-3,0-4.9.4-9.4,1.4-13.7,2.7,2.6,4.1,4.9,4.1,7.1v7.9c0,.4.3.6.6.6h.5c.6-.2.9-.5.9-1.1v-6.5c0-.4.2-.6.5-.8l2.4-1.5c.5-.4.9-.9.8-1.4h0c-.2-.8-.6-1-1.2-.7l-2.4,1.4c-.2.1-.4,0-.5-.2-1.5-3.2-3.6-5.9-6.3-8.1.2-2.1.5-4.2.9-6.2.5-2.4,0-4.6,1.2-6.6.2-.3.2-.6.2-.9,0-1.1,0-2.1.3-3,.5-1.7.8-2.6.8-2.6.4-2,.9-4,1.5-5.9,5.5-18.9,14.5-35.8,27-50.8,0,0,1.6-1.6,4.6-4.8,1.9-1.9,3.3-4,4.5-6.3l1.8-.6c.3,0,.6,0,.8.3l32,58.2h.2Z"/>
      <path class="cls-17" d="M244,122.2c-1.1,2.3-2.6,4.4-4.5,6.3-3,3.1-4.6,4.7-4.6,4.8-12.6,15-21.6,31.9-27,50.8-.6,2-1.1,3.9-1.5,5.9,0,0-.3.9-.8,2.6-.3.9-.4,1.9-.3,3,0,.3,0,.7-.2.9-1.2,2-.6,4.2-1.2,6.6-.4,2-.8,4-.9,6.2l-8.9-5.8c-.4-.3-.9-.1-1.2.2h0l-3.6,6.3c-.2.4-.8.6-1.2.4-.6-.2-1.1-.3-1.6-.2-.4,0-.8.4-1.2,1.1-2.5,3.8-5,7.7-7.6,11.7-.3.5-.5,1-.4,1.5v8c0,.5.4.9.9.9h0c4.6-.2,9.1.2,13.6,1.1,5.6,1.1,9.8,2.9,12.6,5.5,0,4.1.6,8.4,1.9,13,2.7,9.6,5.4,18.1,8.1,25.3-.8,0-1.1.2-1.1.9,0,1.4,1.2,26.6,3.5,75.8,0,.2,0,.3-.3.2-1.4-.9-3.2-2.5-5.3-4.6-30.7-31.2-48.4-68-53-110.6-2.2-20.6-.8-41.5,4.3-62.7.5-2.2,1.7-6.3,3.4-12.4,0-.3,0-.6-.4-.7-8.2-2.7-13.8-4.5-16.6-5.3-.9-.3-1.7-.6-2.4-1,0,0-.1-.2,0-.3h.1l97.2-35.4h.2Z"/>
      <path class="cls-4" d="M441.1,130l-3.2-3.9,2.8-2.5c1.2-1.1,3.1-1.1,4.2,0l2.1,2.1c.3.3.6.4.9.4h3.5c.2,0,.3,0,.3.3v3.1c0,.3-.2.5-.5.5h-10.1,0ZM443.8,126.2c0-.7-.6-1.2-1.2-1.2h0c-.7,0-1.2.6-1.2,1.2h0c0,.7.6,1.2,1.2,1.2h0c.7,0,1.2-.6,1.2-1.2h0Z"/>
      <circle class="cls-14" cx="442.6" cy="126.2" r="1.2"/>
      <path class="cls-3" d="M437.8,126.1l3.2,3.9h-7.2c-.2,0-.3,0-.3-.3v-3.2c0-.2.1-.3.3-.3l4-.2h0Z"/>
      <path class="cls-3" d="M444.6,132.3c-.4,1,.1,2.3,1.6,3.8h-5.9c-.5,0-.8.3-.8.8v.2c0,.7.3,1,1,1h8.1l3.9,6.5h-11.8c-.7,0-1,.4-1.1,1v.5c.1.5.5.7.9.7h13.8c.7,1.7,1.9,3.3,3.5,4.7v17.7c0,.8-.6,1.4-1.4,1.4h-27.8c-1,0-1.6-.5-1.6-1.6v-38.4c0-1,.8-1.8,1.8-1.8h1.1c.9,0,1.3.5,1.3,1.4-.1,1.3.9,2,2.9,2h10.5ZM432.7,136.6c-.4-.5-.8-.8-1.3-.8s-1,.4-1,1.1,0,.4.2.6c.6,1.2,1.5,2,2.7,2.4.4.1.7,0,.9-.3l3-4.1c.3-.4.2-.7-.2-1l-.2-.2c-.6-.4-1.1-.4-1.5.2l-1.9,2.2c-.2.3-.5.2-.7,0h0ZM432.9,145.3l-1-.7c-.4-.3-.8-.3-1.1.2l-.3.5c-.2.3-.2.6,0,.9.7,1.1,1.6,1.8,2.5,2.2.3.1.6,0,.9-.1,1.6-1.4,2.7-2.8,3.5-4.1.2-.4.1-.9-.3-1.1h0c-.1,0-.2-.1-.4-.1-.8-.2-1.4,0-1.9.6l-1.2,1.7c-.2.3-.4.3-.7.1h0ZM432.3,153.6c-1-.9-1.6-.6-1.8.6-.2,1.1.5,2.1,2.1,2.9,1,.5,2.5-.9,4.6-4.2.4-.6.3-1-.2-1.3h0c-.6-.4-1.1-.4-1.5.1-1.4,1.8-2.5,2.5-3.1,1.9h-.1ZM454.7,154.5c0-.6-.5-1.1-1.1-1.1h-13.1c-.6,0-1.1.5-1.1,1.1h0c0,.7.5,1.1,1.1,1.1h13.1c.6,0,1.1-.5,1.1-1.1h0ZM432.9,162.6c-.2-.2-.4-.3-.5-.4-.4-.3-.7-.3-1-.3s-.7.3-.9.6c-.2.3-.1.7,0,1,.9,1.1,1.7,1.9,2.7,2.4s.7.1.9-.2l3.1-4.2c.3-.4.2-.7-.1-1l-.3-.2c-.7-.5-1.2-.4-1.7.3l-1.4,2c-.2.3-.5.3-.8,0h0ZM454.7,163.1c0-.6-.5-1.1-1-1.1h-13c-.6,0-1.1.4-1.1,1h0c0,.6.5,1.1,1,1.1h13c.6,0,1.1-.4,1.1-1h0Z"/>
      <path class="cls-4" d="M457.9,151.6c-1.6-1.4-2.8-3-3.5-4.8.2-.5.3-.9.2-1.2,0-.3-.3-.6-.8-.7-.5-.2-.9-.2-1.3-.1l-3.9-6.5h5.4c.5,0,.8-.3.8-.8v-.4c0-.5-.3-.8-.8-.8h-7.8c-1.4-1.6-2-2.8-1.6-3.9,2.4,0,4.8,0,7.3-.1,1.3,0,1.9-.9,1.7-2.6,0-.4.1-.6.5-.6,1.4-.2,2.5-.1,3.1.3,1.2.8.8,1.9.9,3.1v19.3l-.2-.2Z"/>
      <path class="cls-14" d="M433.4,136.7l1.9-2.2c.5-.5,1-.6,1.5-.2l.2.2c.4.3.5.6.2,1l-3,4.1c-.2.3-.5.4-.9.3-1.2-.4-2.1-1.2-2.7-2.4-.3-.6-.2-1.3.3-1.6.2-.1.3-.1.5-.1.5,0,.9.3,1.3.8.2.3.5.3.7,0h0Z"/>
      <path class="cls-14" d="M446.1,136.1h7.8c.5,0,.8.3.8.8v.4c0,.5-.2.8-.8.8h-13.5c-.7,0-1-.3-1-1v-.2c0-.5.3-.8.8-.8h5.9Z"/>
      <path class="cls-14" d="M433.6,145.2l1.2-1.7c.5-.7,1.1-.9,1.9-.6.1,0,.2,0,.4.1.4.2.5.7.3,1.1h0c-.8,1.3-2,2.7-3.5,4.1-.2.2-.6.3-.9.1-.9-.4-1.7-1.2-2.5-2.2-.2-.3-.2-.6,0-.9l.3-.5c.3-.5.7-.5,1.1-.2l1,.7c.3.2.5.2.7-.1h0Z"/>
      <path class="cls-13" d="M39.7,174c1.1,1.3,2.3,2,3.7,2.2q.5,0,0-.3l-3.7-2.7c-.3-.2-.4-.2-.2.2,0,.1.2.2.2.4h0c0,.1,0,.1-.2.1s-.2,0-.3-.1q0,0,0,0c0,0,.2.1.3.1h.1Z"/>
      <path class="cls-14" d="M452.5,144.7c.3,0,.8,0,1.3.1s.7.4.8.7c0,.3,0,.7-.2,1.2h-13.8c-.5,0-.8-.1-.9-.6v-.5c0-.7.4-1,1.1-1h11.8,0Z"/>
      <path class="cls-6" d="M339.1,154.5c-8.2.3-16,2-23.4,5.1-8.4,3.5-15.5,7.8-21.9,14-4.4,4.3-8.1,8.8-11.3,13.4l-2.9-5.3c7-7.8,11.6-12.7,13.9-14.8,3.6-3.2,9.4-7,17.2-11.2,2.8-1.5,5.6-2.6,8.5-3.3,6.2-1.4,10.2-2.3,12.2-2.7,0,0,.4-.2,1.1-.5.2-.1.2-.2,0-.3-.3-.1-.4-.4-.3-.8l6.4-.4c.4,0,.5.1.5.5v6.2h0Z"/>
      <path class="cls-16" d="M332.1,148.1c0,.4,0,.7.3.8.2.1.2.2,0,.3-.7.4-1.1.5-1.1.5-2,.4-6.1,1.3-12.2,2.7-2.9.7-5.7,1.7-8.5,3.3-7.8,4.2-13.5,8-17.2,11.2-2.3,2.1-7,7-13.9,14.8l-.9-1.6,1.5-2.2c8-10.7,18-18.8,30.1-24.1,7-3.1,14.3-5,21.9-5.7h0Z"/>
      <g>
        <circle class="cls-16" cx="76.5" cy="113.6" r="73.6"/>
        <path d="M34.2,73.2h-2.7c-.2,0-.4,0-.4-.3h0v-4.6c0-.2.1-.4.3-.4h9.8c.2,0,.4.2.4.3h0v20.3c0,.2-.2.4-.4.4h-6.3c-.2,0-.4-.2-.4-.4h0v-15.1c0-.2-.2-.4-.4-.4h0v.2Z"/>
        <path d="M75.3,98.5c1.3,0,2.3.2,2.8.6,3.8,2.6,4.4,5.9,1.8,9.8-.2.3,0,.5.2.7,1.6.8,2.6,1.6,3,2.4,1.6,3.1,2,6.3,1.2,9.7-.7,2.9-6.4,3.4-8.9,3.4s-8.2-.5-8.9-3.3c-.8-3.4-.4-6.7,1.2-9.7.4-.8,1.4-1.6,3-2.4.3-.2.4-.4.2-.7-2.7-3.9-2.1-7.2,1.7-9.8.5-.4,1.5-.6,2.8-.6h0ZM79.4,104.6c0-2.2-1.8-4.1-4.1-4.1s-4.1,1.8-4.1,4.1,1.8,4.1,4.1,4.1,4.1-1.8,4.1-4.1ZM71,122.7h8.6c1.6,0,2.8-1.3,2.8-2.8v-2.8c0-3.4-2.5-6.2-5.7-6.2h-2.9c-3.1,0-5.7,2.8-5.7,6.2v2.8c0,1.6,1.3,2.8,2.8,2.8h0Z"/>
        <circle class="cls-16" cx="75.3" cy="104.6" r="4.1"/>
        <path class="cls-16" d="M71,122.7c-1.6,0-2.8-1.3-2.8-2.8v-2.8c0-3.4,2.5-6.2,5.7-6.2h2.9c3.1,0,5.7,2.8,5.7,6.2v2.8c0,1.6-1.3,2.8-2.8,2.8h-8.7Z"/>
        <path d="M75.3,127.1c.7,0,1,.4,1,1.3,0,4.1,0,8.1,0,12.2v.2s0,.1,0,.2c3.5,2.1,7,4.1,10.6,6.1.7.4.9.9.6,1.5s-.9.7-1.6.2c-3.5-2-7.1-4-10.6-6h-.4c-3.5,2-7.1,4.1-10.6,6.1-.7.4-1.3.4-1.6-.2-.3-.6,0-1.1.6-1.5,3.5-2.1,7-4.1,10.5-6.2v-.2c.2-.2,0-.2,0-.2v-12.2c0-.9.3-1.3,1-1.3h.2Z"/>
        <path d="M52.7,136.5c1.6,0,2.6.2,3.2.7,3.5,2.7,4,5.9,1.4,9.6-.2.3,0,.6.2.7,4.3,1.9,4.9,7.2,4.4,11.2-.5,3.5-5.8,4.3-9.1,4.3s-8.7-.7-9.2-4.3c-.5-4.1,0-9.3,4.3-11.2.3-.2.4-.4.2-.7-2.5-3.7-2.1-6.9,1.4-9.6.6-.4,1.6-.7,3.2-.7ZM56.8,142.1c0-2-1.6-3.5-3.5-3.5h-1c-2,0-3.5,1.6-3.5,3.5v.6c0,2,1.6,3.5,3.5,3.5h1c2,0,3.5-1.6,3.5-3.5h0v-.6ZM52.8,161c2.6,0,6.8-.6,7.1-3.5.4-3.6-.6-7.9-4.7-8.6h-2.5c-1.4,0-2.2,0-2.5.1-4.1.8-5,5.1-4.6,8.7.4,2.9,4.6,3.4,7.2,3.4h0Z"/>
        <path d="M97.8,136.5c1.8,0,3,.4,3.8,1.1,3,2.8,3.2,5.9.8,9.1-.2.3-.2.5.2.7,2.4,1.3,3.9,3.3,4.3,5.9.4,2.2.4,4.1,0,5.7-.6,3.4-6.3,4-9.1,4s-8.5-.6-9.1-4c-.3-1.6-.3-3.5,0-5.7.4-2.6,1.8-4.6,4.3-5.9.3-.2.4-.4.2-.7-2.4-3.3-2.2-6.3.8-9.2.7-.7,2-1.1,3.8-1.1h0ZM101.9,142.5c0-2.2-1.8-4-4.1-4h0c-2.3,0-4.1,1.8-4.1,4s1.8,4,4.1,4h0c2.3,0,4.1-1.8,4.1-4ZM97.9,161c1.6,0,3.2-.3,4.7-.8,3.2-1,2.8-4.9,2-7.5-.6-2.1-2-3.4-4.1-3.9h-2.7c-1.5,0-2.4,0-2.7.1-2.1.5-3.4,1.8-4,3.9-.8,2.6-1.1,6.5,2.1,7.5s3.2.7,4.8.7h-.1Z"/>
        <rect class="cls-16" x="48.7" y="138.6" width="8.1" height="7.7" rx="3.5" ry="3.5"/>
        <ellipse class="cls-16" cx="97.9" cy="142.4" rx="4" ry="4.1" transform="translate(-44.7 240.1) rotate(-89.9)"/>
        <path class="cls-16" d="M52.7,148.8h2.5c4.1.7,5.1,5.1,4.7,8.6-.3,2.9-4.5,3.5-7.1,3.5s-6.8-.5-7.2-3.4c-.4-3.6.5-7.9,4.6-8.7.3,0,1.2-.1,2.5-.1h0Z"/>
        <path class="cls-16" d="M97.8,148.8h2.7c2.1.5,3.4,1.8,4.1,3.9.8,2.6,1.2,6.4-2,7.5-1.6.5-3.1.8-4.7.8s-3.2-.2-4.8-.7c-3.2-1-2.8-4.9-2.1-7.5.6-2.1,2-3.4,4-3.9.3,0,1.2-.1,2.7-.1h.1Z"/>
        <g class="cls-8">
          <text class="cls-9" transform="translate(50.6 76)"><tspan x="0" y="0">BUILD</tspan></text>
          <text class="cls-9" transform="translate(50.6 89)"><tspan x="0" y="0">YOUR TEAM</tspan></text>
        </g>
      </g>
      <path class="cls-16" d="M357.8,150c1,.4,1.9.7,2.7.7,22.8,7.6,38.9,22.5,48,44.9.3.7,0,1.2-.6,1.4l-2.1.7-4.3-11.2q0-.2.2-.2h.3c-2.5-5.1-4.8-8.5-6.9-10.4-4.9-4.4-8.2-7.4-9.9-9.1-2.2-2.1-4.4-3.7-6.6-4.9-1.4-.8-4.5-2.3-9.2-4.5v-.2h0q0-.2.2-.1l7.7,4h.2v-.3h0c-6.4-4.5-13.5-7.4-21.1-8.9l1.5-1.7v-.2Z"/>
      <path class="cls-14" d="M432.3,153.6c.7.6,1.7,0,3.1-1.9.4-.5.9-.5,1.5-.1h0c.5.3.5.8.2,1.3-2.1,3.3-3.6,4.7-4.6,4.2-1.6-.8-2.3-1.8-2.1-2.9.2-1.3.8-1.5,1.8-.6h.1Z"/>
      <path class="cls-6" d="M356.3,151.7c7.7,1.5,14.7,4.4,21.1,8.8h0v.4c-.1.1-.2.2-.3,0l-7.7-4q-.2,0-.2.1h0v.2c4.7,2.2,7.7,3.8,9.2,4.5,2.2,1.2,4.4,2.8,6.6,4.9,1.7,1.6,5,4.6,9.9,9.1,2.1,1.9,4.4,5.4,6.9,10.4h-.3c-.2-.1-.2,0-.2.1l4.3,11.2-2.8.9c-2.5-4.6-4.8-9.8-7.4-13.8-6.2-9.4-13.9-16.6-23-21.6-4.6-2.6-11.1-5.2-19.4-7.9l3.2-3.6v.3Z"/>
      <path class="cls-14" d="M440.6,153.4h13c.6,0,1.1.5,1.1,1.1h0c0,.6-.5,1.1-1.1,1.1h-13c-.6,0-1.1-.5-1.1-1.1h0c0-.6.5-1.1,1.1-1.1Z"/>
      <path class="cls-14" d="M433.6,162.5l1.4-2c.5-.7,1-.8,1.7-.3l.3.2c.4.3.4.6.1,1l-3.1,4.2c-.2.3-.6.4-.9.2-.9-.5-1.8-1.3-2.7-2.4-.2-.3-.3-.6,0-1,.2-.4.5-.6.9-.6s.7,0,1,.3c.1,0,.3.2.5.4.3.2.6.2.8,0h0Z"/>
      <path class="cls-14" d="M439.6,163.2h0c0-.6.5-1.1,1.1-1.1h12.9c.6,0,1.1.5,1.1,1.1h0c0,.6-.5,1.1-1.1,1.1h-12.9c-.6,0-1.1-.5-1.1-1.1Z"/>
      <path class="cls-6" d="M39.7,174c0,0-.2,0-.3-.1q0,0,0,0c0,0,.2.1.3.1Z"/>
      <path class="cls-7" d="M359.1,357.6c4-1.1,7.9-2.1,11.8-3,5-1.1,8.8-2.2,11.7-3.2,8.4-2.9,16.4-6.5,24.2-10.8,2.3-1.3,7.7-4.7,16.4-10.4.2.6.6.8,1.1.7.4,0,.6-.4.6-.7v-2.8c5.1-2.4,8.9-6.4,12.8-10.2,1.4-1.3,2.2-3,2.6-4.9h24.7c.7,0,1.2-.5,1.2-1.2v-29.3c0-.4-.3-.7-.7-.7h-3.2c1.5-2.3,2.9-5.1,4.1-8.3,3.6-9.1,6.2-18.2,7.9-27.2.8.6,1.3.6,1.7,0,9.5-14.3,23.1-35,41-62.1.4-.7.7-.6.9.2,7.5,37.6,4,73.9-10.6,108.7-12.4,29.7-33.2,55.6-58.9,74.9-.2.1-.2.4,0,.6l10.9,15.1c.3.4.2.5-.2.4l-99.8-25.8h-.2Z"/>
      <path class="cls-14" d="M204.5,240.2c-2.8-2.6-7-4.4-12.6-5.5-4.4-.9-9-1.2-13.6-1.1-.5,0-1-.4-1-.9h0v-8c0-.5.2-1.1.4-1.5,2.6-4,5.1-7.9,7.6-11.7.4-.6.8-1,1.2-1.1.5-.1,1,0,1.6.2.4.2,1,0,1.2-.4l3.6-6.3c.2-.4.8-.5,1.2-.3h0l8.9,5.8c2.7,2.2,4.8,4.9,6.3,8.1.1.3.3.3.5.2l2.4-1.4c.5-.3.9,0,1.2.7h0c0,.5-.3,1.1-.8,1.4l-2.4,1.5c-.3.2-.5.5-.5.8v6.5c0,.6-.3.9-.9,1h-.4c-.3.1-.7-.1-.7-.4h0v-8c0-2.2-1.4-4.5-4.1-7.1-2.5-2.6-5.6-4.8-9.3-6.8-.2-.1-.4,0-.5.2h0c-1.2,3.1-2.7,6.1-4.5,9.1-.2.3-.1.5.2.7,4.5,2.9,8.7,6.4,12.8,10.5.9.7,1.6,1.7,2.1,3,.2.5,0,1-.5,1.1h-.2c-.5,0-.9-.2-1.2-.6-7.1-3.3-14.7-4.8-22.8-4.7q-.2,0-.2.2v1.9c0,.2.1.3.3.3,7.6-.2,14.8.9,21.7,3.5.9.5,1.4,1,1.4,1.6s-.4.8-.9.7h-.2c-7.2-2.7-14.5-3.9-22-3.7-.1,0-.2,0-.2.2v1.2c0,.2,0,.3.3.3,3.5.2,5.8.3,6.9.4,6.5.5,14,2.1,19.2,6.5.3.2.6.3.9.4.9,0,2,0,3.3.1.7,0,1.7-.4,3-1.3,6.6-4.6,16.3-6,24.3-5.9.3,0,.6-.2.7-.6v-.5c.3-.4,0-.7-.4-.7-7.6-.2-14.8,1-21.7,3.7-.5.2-.8,0-.8-.5v-.4c-.1-.3,0-.6.3-.7,1.9-1.1,4-1.9,6.4-2.4,5.4-1.2,10.6-1.7,15.5-1.7s.7-.2.8-.7v-1.1c.1-.4-.2-.7-.5-.7h0c-8.5,0-16.2,1.8-23.3,5.2-.6.3-.9.1-1.1-.5v-.5c-.1-.3,0-.6.2-.7,1.2-.8,2.1-1.3,2.6-1.5,6.5-2.5,13.5-3.9,20.8-4,.3,0,.4-.1.2-.4l-6.2-9.8c-.2-.3-.6-.5-.9-.4-1.6.2-3.4.6-5.6,1.1-2.9.7-4.4,3.2-6.4,5.5-.4.4-1.1.5-1.5,0-.2-.1-.3-.3-.3-.5-.2-.6-.5-2.1-1.1-4.6-.3-1.5-.3-3.1.2-4.7.7-2.5,2.6-9.6,5.7-21.3.7-2.6,2.3-3.5,4.9-2.8h.2c2.6.7,3.5,2.3,2.8,5l-5.6,20.8c-.1.4,0,.5.4.4l6.9-1.2c.7-.1,1.3.2,1.7.8l7.9,12.6c.1.2.2.5.2.7v8.2c0,.5-.4,1-1,1h0c-8-.4-17.8.9-24.8,5.5-1.6,1-3,1.6-4.3,1.7-1.7.1-3.6-.1-5.6-.6h-.3ZM223.1,189.9l2.8.8c.3,0,.6,0,.7-.4h0v-.2c.4-1.2-.2-2.4-1.2-2.7h-.3c-1-.4-2.1.4-2.4,1.6h0v.2c-.1.3,0,.6.3.7h0ZM225.8,193.2c0-.3,0-.5-.3-.6h0l-3-.8c-.3,0-.5,0-.6.3h0l-5,18.6c0,.3,0,.5.3.6h0l3,.8c.3,0,.5,0,.6-.3h0l5-18.6ZM187,217.3c-.5-.2-.7-.8-.5-1.3h0l1.7-2.9c0-.1,0-.3-.1-.4h-.6c-.3,0-.5,0-.6.2l-6.3,9.9c-.2.3-.1.5.2.5,6.1.2,11.9,1.1,17.4,2.9,0,0,.2,0,.2-.1v-.2c-3.9-3.9-7.8-6.8-11.4-8.5h0ZM217.7,215.8c.2,0,.7-.3,1.4-1.1.2-.3.2-.5-.1-.6-.1,0-.4-.1-.7-.2-.3,0-.5-.1-.7-.2-.3,0-.5.1-.5.4.1,1.1.3,1.6.5,1.7h.1Z"/>
      <path class="cls-15" d="M223.1,189.9c-.3,0-.5-.4-.4-.7h0v-.2c.4-1.2,1.5-2,2.4-1.7h.3c1,.4,1.5,1.6,1.2,2.8v.2c-.1.3-.4.5-.7.4h0l-2.8-.8Z"/>
      <rect class="cls-15" x="211.2" y="199.9" width="20.2" height="4" rx=".5" ry=".5" transform="translate(-31 363.4) rotate(-75)"/>
      <g>
        <path class="cls-14" d="M384.9,184.7v4.9c-.2.4-.4.6-.7.7l-10.5,1.9c-.5,0-.7.4-.7.8v2.8c0,.3.3.6.6.6h.1l7.1-1.4.4,8.8-7.5,1.9c-.3,0-.5.3-.5.6v2.9c0,.4.2.6.6.5l8.9-1.7,1.3-.3h.3c.5,0,.8.2.8.5-.1,2.7-.1,5.6,0,8.7l-24.2,4.5c-.9.3-1.3,0-1.3-.5v-32.5c-.2-1-.1-1.8.2-2.5.1-.3.4-.5.8-.6l23.7-4.2c.3,0,.6,0,.6.4.3,1,.3,2.1.2,3.2h-.2Z"/>
        <path class="cls-14" d="M355.5,186.4c.3.6.4,1,.2,1.3v34.3c0,.4-.3.7-.6.7l-9.4,1.7c-.2,0-.4-.1-.5-.2-.1,0-.3-.2-.4-.4-.8-1.2-1.6-2.4-2.4-3.5l-3-4.8c-.4-.6-.6-.5-.6.2v9.1c0,.3-.2.5-.5.6l-11,2c-.7.2-1.3.3-1.7.2-.3,0-.5-.3-.5-.6v-34.4c0-.5.4-.9.8-1,2.7-.5,5.6-1,8.5-1.5.5-.1,1.1.3,1.6,1.2l5.2,8.2c.2.3.4.3.7,0,.2-.2.1-.6,0-1.2v-8.8c0-.5.4-.9.8-1l12.8-2.2h0Z"/>
        <path class="cls-14" d="M321.7,193.6v1.7c-.1,0-.2,32.7-.2,32.7,0,.3-.2.5-.5.6l-10.5,2c-1,.4-1.9.5-2.7.3v-16.5c-.1-.5-.2-.5-.5-.1l-4.1,6.4c-.4,0-.9-.2-1.3-.4l-3.4-4.2c-.5-.6-.7-.5-.7.2v16c0,.3-.1.5-.4.5l-12.3,2.4c-.6,0-.9,0-.9-.5v-34.9c0-.4.3-.6.6-.7l4.1-.8,8-1.5c.5,0,.9.1,1.2.5l3.9,5.4c.2.3.7.4,1,.1,0,0,.1-.1.2-.2l4.4-7c.3-.5.8-.8,1.3-.9l12-2.3c.3,0,.6,0,.8.2,0,.1.1.3,0,.7v.3Z"/>
      </g>
      <path class="cls-16" d="M271.2,198.6c-2,6.7-3.1,13.6-3.2,20.6,0,.1,0,.2.2.1h0c.1,0,.2,0,.1-.2-.3-2.6,0-5.2.6-7.7,0-.1.1-.2.2-.1v.2c-2.1,14.6,1.6,29.7,8.2,42.7,1,2,3.4,5.9,7.2,11.8l-1.8.4-.3-1.3c0-.4-.3-.6-.6-.7-.5-.1-1.1-.1-1.5,0-3-4.7-4.9-7.7-5.5-9-9.4-18.2-11.1-37.2-5.1-57,0-.3.4-.4.7-.4h0l.9.3v.3Z"/>
      <path class="cls-6" d="M276.1,200.2c-4.7,13.3-5,26.4-1,39.4,2.8,9,7.7,17.5,14.7,25.4l-5.4,1.1c-3.8-5.9-6.2-9.9-7.2-11.8-6.6-13-10.3-28.2-8.2-42.7v-.2c-.1,0-.2,0-.2.1-.7,2.5-.9,5-.6,7.7,0,0,0,.1-.1.2h0c-.1,0-.2,0-.2-.1.2-7,1.3-13.9,3.2-20.6l5,1.6h0Z"/>
      <path class="cls-13" d="M384.1,207.7h-.3l.2-.3c.1-.2.2-.2.1,0v.3h0Z"/>
      <path class="cls-17" d="M203.6,212.8c-.9,4.3-1.4,8.9-1.4,13.7-4.1-4.1-8.3-7.6-12.8-10.5-.3-.2-.3-.4-.2-.7,1.8-3,3.3-6,4.5-9.1,0-.2.3-.3.5-.2h0c3.6,2,6.7,4.2,9.3,6.8h0Z"/>
      <path class="cls-17" d="M187,217.3c3.7,1.8,7.5,4.6,11.4,8.5v.2h-.1c-5.5-1.7-11.3-2.7-17.4-2.9-.4,0-.4-.2-.2-.5l6.3-9.9c.1-.2.3-.2.6-.2h.5c.2,0,.3.1.3.3h0c0,.1-1.7,3-1.7,3-.3.5-.1,1.1.4,1.3h0v.2Z"/>
      <path class="cls-15" d="M218.3,213.8c.3,0,.5.2.7.2.3.2.4.4.1.6-.7.8-1.2,1.2-1.4,1.1-.2,0-.4-.6-.5-1.7,0-.3.1-.5.5-.4.2,0,.4,0,.7.2h-.1Z"/>
      <path class="cls-6" d="M406.2,213.4l4.6,2c.6,17.9-5.1,37.2-16.9,50.7-2.2,2.6-5.5,5.7-9.6,9.5h-.3c-.1,0-.2-.2-.2-.3h0c0-.1,7.1-6.6,7.1-6.6,0,0,.1-.1,0-.2h-.2l-9,8-2.3-3.1c9.5-7.8,17.1-17.1,21.6-28.7,3.6-9.5,5.3-20,5.1-31.3h0Z"/>
      <path class="cls-16" d="M412.2,215.9c0,1.4.3,2.5.8,3.1,0,25-9.6,45-28.6,60.1-.3.2-.5.2-.7,0l-1.9-2.5,9-8h.2v.2l-7.1,6.5v.3h.4c4.2-3.8,7.4-7,9.6-9.5,11.8-13.5,17.5-32.7,16.9-50.7l1.3.5h.1Z"/>
      <path class="cls-2" d="M474.3,245.5c-1.7,9.1-4.3,18.2-7.9,27.2-1.3,3.2-2.7,5.9-4.1,8.2h-29.4c-.5,0-.9.4-.9.9h0v13.7c0,.3-.2.5-.5.5h-7.2c-.4,0-.5-.2-.3-.6,1.3-2.1,1.3-4.2,0-6.2-1.6-2.3-5.1-2.9-7.2-1.3-2.9,2.1-3.3,4.9-1.1,8.4.2.2,0,.4-.2.5-5.3,1.9-5.3,7.2-4.8,12.2.3,2.4,1.4,4.4,3.3,6,.2.2.4.5.4.8v14.5c0,.4.3.7.7.7s.3,0,.4-.1l.4-.2c.2-.1.4-.4.4-.7v-14.7c0-.3-.1-.6-.3-.9-1.5-1.7-2.7-2.9-3.1-4.7-.3-1.6-.4-3.5-.2-5.9.3-3.5,2.2-5.4,5.7-5.7,2.6-.3,8.3-.3,17.1-.2.7,0,1.1.4,1.1,1h0c0,.7-.3,1-.9,1.1l-11,1.4c-.6,0-1,.6-1,1.1v27.6c-8.6,5.7-14.1,9.2-16.4,10.4-7.8,4.3-15.9,7.9-24.2,10.8-2.8,1-6.7,2.1-11.7,3.2-3.8.9-7.8,1.9-11.8,3l6.9-67.8c.2-.6.2-1.3.1-2v-.5q.1,0,.2-.2v-1.3l.4-3.6,2.2-21.7c.1-1.1.5-1.2,1.1-.3l9.6,13.2,2.3,3.1,1.9,2.5c.2.3.5.3.7,0,19-15.1,28.5-35.1,28.6-60.1l61.2,26.5-.5.2ZM420.3,315.9c0-.5-.4-.8-.8-.8h0c-.5,0-.8.4-.8.8v14.2c0,.5.3.8.8.8h0c.5,0,.8-.4.8-.8v-14.2Z"/>
      <path class="cls-17" d="M202.4,230c-.4.6-.7,1-1,1.2-6.8-2.5-14-3.7-21.7-3.5-.2,0-.3,0-.3-.3v-1.9q0-.2.2-.2c8-.1,15.6,1.4,22.8,4.7Z"/>
      <g>
        <path d="M40.3,224.9c4.1-1.4,8-.3,9.7,3.4,1.5,3.4-.2,7.6-3.6,8.8-3.8,1.4-7.2,1.2-10.1-.8-4.5-3.1-4.8-10.5-1.8-15,3.2-4.8,10.3-5.2,15.3-2.8.2.1.3.3.2.5l-2.3,4c0,.1-.2.2-.3.1-3.6-1.2-6.1-.7-7.4,1.4-.3.5-.2.7.4.5h-.1ZM43.9,231.1c0-1.2-.9-2.1-2.1-2.1s-2.1.9-2.1,2.1.9,2.1,2.1,2.1,2.1-.9,2.1-2.1Z"/>
        <circle class="cls-14" cx="41.9" cy="231.1" r="2.1"/>
        <g class="cls-8">
          <text class="cls-9" transform="translate(58.6 224.6)"><tspan x="0" y="0">MONITOR </tspan></text>
          <text class="cls-9" transform="translate(58.6 237.8)"><tspan x="0" y="0">&amp; EVALUATE</tspan></text>
        </g>
      </g>
      <path class="cls-1" d="M301.3,274.5l-1.8,2.5-2.4,3.3c-.2.3-.2.5.1.7,2.6,1.9,5.3,3.6,8.1,5,18.5,9.5,37.8,11.1,58.1,4.7l-6.7,66.5c-3.3,0-6.5,1-9.5,1h-15.5c-1,0-3-.3-6.1-.9-.7-.1-2.3-.1-4.8,0-.8-3.2-2.4-5.6-4.9-7.2-.3-.2-.3-.4-.2-.7,1.4-2.7,1.4-5.1-.3-7.2-2.1-2.6-7-2.6-9.1-.3-1.9,2.1-2.1,4.5-.6,7.4.4.7,1.2,1.3,2.3,1.8.3.1.4.3.2.6l-1.9,3.1c-1.7-1.2-2.9-2.1-4.8-1.2-.9-1.1-2-2.1-3.3-2.8-.3-.2-.3-.4-.1-.6,1.8-2.1,2.2-4.4,1.2-6.7-.7-1.6-2-2.7-3.8-3.1-4.7-1-8.5,1.9-7.5,7l-5.1-1c.4-5.7-5.5-7.6-9.8-5.2-3.2-2.1-6.5-4.2-9.7-6.4-15.4-10.3-28.1-23.1-38.3-38.5,0,0-1.4-2.4-4.2-7.1-1.4-2.4-3-4.7-4.8-6.9-.4-1.2,0-1.9.9-2.1,21.9-4.6,43.7-9.3,65.6-13.9l1.8-.4,5.4-1.1,20.2-4.3c.9-.2,1.1,0,.5.8l-9.2,12.8v.4ZM314.6,317.5c2.1,2.2,2.8,5.3,2.3,9.2-.5,3.8-2.7,6.2-6.5,7.2-3.1.8-5.8,1.2-8,1.4-.7,0-1.2.2-1.4.4-.4.4-.4,1,0,1.9,0,.1,0,.3-.2.4h-.2l-4-2.3c-.6-.3-1-.2-1.4.4l-.2.4c-.2.3,0,.7.2.9h0l6.3,3.3c2.3,1.2,3,.6,2.1-1.9,0,0-.1-.4-.3-1.1-.1-.3,0-.5.4-.5,3.3-.1,6.3-.8,8.9-1.9,4.7-2.1,6.2-5.2,6.3-10.1,0-4.1-1-7.1-3.2-8.9-2.3-1.9-3.5-2.9-3.7-3-2.1-2-4.4-3.3-6.8-3.8-6.9-1.5-14.7-1.7-23.5-.8-5.9.6-12.6,2.6-13.5,9.5-.5,4.3-.2,9.2,3.3,11.7,2.7,2,5.9,3.1,9.6,3.3.3,0,.5.3.5.5v.2l-1.4,3.3c-.2.5,0,1.1.5,1.3.3.1.6.1.8,0,2.6-1.3,4.6-2.4,6-3.3,1.2-.8,2.7-1.2,4.4-1.3,3.4-.2,6.1-.3,8.2-.6,7.6-.9,15.4-3,14.3-12.4-.2-1.9-.4-2.9-.4-3.1,0-.6.2-.6.6-.2h0Z"/>
      <path class="cls-6" d="M301.3,274.5c8.4,5.3,16.4,8.9,24.1,10.6,12.9,3,24.9,1.3,37.3-2.7h0c-15.5,6.2-31.1,6.3-46.8.3-3.5-1.3-7.6-3.3-12.5-6h-.2v.3h-.1c8.9,5.2,17.4,8.4,25.4,9.8,8.8,1.4,17.3,1.2,25.4-.8,3.6-.9,7.9-2.2,12.9-3.9l-.4,3.6c-5.6,1.5-12,3.7-17.1,4.4-11.8,1.7-23.4.5-34.7-3.7-.2,0-.2-.2,0-.3l.2-.3h0c7.3,2.1,13.8,3.5,19.4,4.1,3.6.4,7.7.4,12.4,0h0c-17.1.9-32.8-3.4-47-12.9l1.8-2.5h0Z"/>
      <path class="cls-16" d="M366.3,285.8v.5l-8.5,2.1c-.2,0-.2.1,0,.2l.2.3h.1l8.2-1.9s0,.2-.1.2c-11.4,2.7-18.9,4.1-22.6,4.2s-6.1.1-7.4,0c-4.6-.5-9.2-.9-13.7-1.4h0l-.2.2c-.1,0-.1.1,0,.2,7.9,1.5,13.6,2.2,17.1,2.1,7.1-.2,16-1.8,26.8-4.7,0,.7,0,1.4-.1,2-1.2.2-2.1.6-2.6,1-20.3,6.4-39.6,4.8-58.1-4.7-2.8-1.4-5.5-3.1-8.1-5-.3-.2-.3-.5-.1-.7l2.4-3.3c14.2,9.5,29.8,13.8,47,12.9h0c-4.7.5-8.8.5-12.4,0-5.6-.7-12.1-2-19.4-4.1h0l-.2.3c-.1.1,0,.2,0,.3,11.4,4.2,23,5.4,34.7,3.7,5.1-.7,11.5-2.9,17.1-4.4h0Z"/>
      <path class="cls-14" d="M462.2,280.9h3.2c.4,0,.7.4.7.8v29.3c0,.7-.6,1.2-1.2,1.2h-32c-.5,0-1-.4-1-1h0v-6.3c0-.3.3-.6.6-.6h.5c.4,0,.7.2.7.7v4.9c0,.3.2.5.5.5h29.8c.3,0,.5-.2.5-.5v-26.8c0-.4-.2-.6-.6-.6h-29.9c-.1,0-.3.1-.3.3h0v12.7c0,.4.2.6.6.6,1.1,0,2.1-.2,2.9.5,1.2.9,1.5,2.1,1,3.4-.6,1.3-1.6,1.6-3,1.8-2.4.3-5.6.7-9.7,1.3-.4,0-.5.3-.5.6v26.5c-.1.4-.4.7-.7.7-.5.1-.9-.1-1.1-.7v-27.6c0-.6.5-1.1,1-1.1l11-1.4c.6,0,.9-.5.9-1.1h0c0-.7-.3-1-1.1-1.1-8.8-.1-14.5,0-17.1.2-3.5.4-5.4,2.3-5.7,5.7-.2,2.4-.1,4.4.2,5.9.4,1.8,1.6,3,3.1,4.7.2.2.3.6.3.9v14.7c0,.3-.1.5-.4.7l-.4.2c-.3.2-.7.1-.9-.2,0-.1-.1-.2-.1-.4v-14.5c0-.3-.1-.6-.4-.8-1.9-1.6-3-3.6-3.3-6-.5-5-.5-10.2,4.8-12.2.3-.1.3-.3.2-.5-2.2-3.5-1.8-6.3,1.1-8.4,2.1-1.6,5.6-1,7.2,1.3,1.4,2,1.4,4.1,0,6.2-.2.4-.1.6.3.6h7.2c.3,0,.5-.2.5-.5v-13.7c0-.5.4-.9.9-.9h29.7ZM423,292.4c0-2-1.6-3.6-3.6-3.6h0c-2,0-3.6,1.6-3.6,3.6h0c0,2,1.6,3.6,3.6,3.6h0c2,0,3.6-1.6,3.6-3.6Z"/>
      <path class="cls-2" d="M461.7,282.5c-1.7,3.7-3.7,7-6.2,9.9-3.4-4.6-7-5.4-10.9-2.5-1.1.8-1.9,1.8-2.3,2.9-1,2.6-.2,5,1.7,7.2.8.9,1.3,2.2,1.4,3.7,0,1.2.7,2,1.5,2.8l-2.6,3.9h-10.3c-.3,0-.5-.2-.5-.5v-4.9c0-.4-.2-.7-.7-.7h-.5c-.3,0-.6.3-.6.6h0v6.3c0,.6.4,1,1,1h7.3c-.4,2-1.3,3.6-2.6,5-3.9,3.8-7.7,7.8-12.6,10.2v-23.7c0-.4.2-.6.5-.6,4.1-.6,7.3-1,9.7-1.3,1.4-.1,2.4-.5,3-1.8.6-1.4.3-2.5-1-3.4-.9-.7-1.8-.5-2.9-.5s-.6-.2-.6-.6v-12.7c0-.1.1-.3.3-.3h27.9ZM448.8,286.9c.5,0,.9-.4,1-1,0-.6-.3-1.2-.7-1.3-.5,0-.9.4-1,1,0,.6.3,1.2.7,1.3ZM443,289.4c.3-.3.2-1-.3-1.5s-1.1-.7-1.5-.3h0c-.3.3-.2,1,.3,1.5s1.1.7,1.5.3h0ZM455,289.4c.4.3,1.1,0,1.4-.4h0c.3-.5.3-1.2-.1-1.5s-1.1,0-1.4.4h0c-.3.5-.3,1.2.1,1.5ZM440.6,295.2c0-.5-.5-1-1.1-1s-1.2.3-1.3.8h0c0,.5.5,1,1.1,1s1.2-.3,1.3-.8h0ZM443,301c-.3-.3-1-.3-1.5.2s-.6,1.1-.2,1.4h0c.3.3,1,.3,1.5-.2s.6-1.1.2-1.4h0Z"/>
      <path class="cls-7" d="M444.3,310.5l2.6-3.9c3.7,1.3,5.2-.6,5.6-4,.2-1.1.6-2.1,1.4-2.9s1.3-1.7,1.5-2.7c.3-1.4.3-2.9,0-4.5,2.5-2.9,4.6-6.2,6.2-9.9h2c.4,0,.6.3.6.7v26.8c0,.3-.2.5-.5.5h-19.5,0ZM459.6,295.2c0-.5-.5-.9-1.2-.9s-1.2.3-1.2.8h0c0,.5.5.9,1.2.9s1.2-.3,1.2-.8h0ZM456.2,302.7c.4-.3.5-1,.2-1.5-.4-.5-1-.7-1.4-.5h0c-.4.3-.5,1-.2,1.5s1,.7,1.4.5h0Z"/>
      <path class="cls-5" d="M273.1,341.5c-2.5,2.4-2.8,5.1-1.1,8.1.2.3.1.5-.2.7-2.5,1.6-4.2,4.1-5,7.4-1.2,4.7-2,8.6-2.5,11.9,0,.3.2.7.5.7h.5c.6-.2,1-.7,1.1-1.3.7-3.9,2.4-16.4,7.2-16.9,4.8-.5,5.6,3.7,6.8,7.2.4,1.3,1,2.1,1.7,2.4,1.2.5,3,.8,5.5.8s.9.3.9.8v.5c.2.5,0,.8-.6.8h-7.5c-1,0-1.9-.6-2.2-1.5l-2.4-5.6c-.2-.4-.6-.5-.9-.4h-.3c-.4.3-.6.7-.5,1.2.6,1.8,1.1,3.2,1.5,4.3.7,1.9-.4,4.9-.5,7.2,0,.3.3.6.6.6h.4c.3,0,.6-.2.7-.6l.9-3.4c0-.3.3-.4.6-.3,1,.3,1.6.7,2.6.5,1.5-.3,3.4.4,5,.3,5.3-.2,10.6-.2,15.9,0,1.9,0,3.5-.6,5.4-.2.3,0,.6,0,.9-.1l1.2-.5c.4-.2.7,0,.8.4l.5,3c0,.4.3.7.7.8h.3c.6.2.9,0,.9-.6,0-2.5-1.2-4.8-.4-7.2.7-2.1,1.2-3.5,1.5-4.2.1-.4,0-.8-.3-1l-.3-.2c-.4-.2-.9-.1-1.1.2h0c0,.1-2.4,5.8-2.4,5.8-.4.9-1.2,1.4-2.1,1.4h-7.5c-.5,0-.8-.3-.8-.8s.3-1.1,1.2-1.3c.9-.2,2.3-.3,4.2-.5,1.2,0,2.3-.9,2.7-2l2-5.6c3,1.3,6.1,2,9.2,1.9l2.9,12.6c.1.5.5.9,1,1.1.2,0,.3.1.5.2.3,0,.6,0,.7-.4v-.3l-2.6-12.3c2.5-.2,4.1-.2,4.8,0,3.1.6,5.1.9,6.1.9h15.5c3,0,6.2-1,9.5-1-.2.7-.2,1.4,0,2,.1.3.3.5.7.6l72.2,18.6c1,.3,1.1.7.1,1.2-36.5,20.3-75.5,27.6-116.7,21.8-28.8-4-56.3-15.4-79.9-32.4-.2-.1-.4,0-.6.1l-11.1,15.2c0,.1-.2.1-.3,0,0,0,0-.1-.1-.2l-4.8-101.6c1.8,2.2,3.4,4.5,4.8,6.9,2.8,4.7,4.2,7.1,4.2,7.1,10.1,15.4,22.9,28.2,38.3,38.5,3.2,2.2,6.5,4.3,9.7,6.4l-.2.3Z"/>
      <g>
        <path d="M537.1,292.5h-10c-.3,0-.6-.2-.6-.5h0c0-1.8-.3-3.1.8-4.9,0-.2,2.7-4.1,7.9-11.7,0-.2.3-.3.5-.3h6.4s.2,0,.2.1h0l-7.2,11.3c-.2.3,0,.4.2.4h1.7c.3,0,.5-.2.5-.5v-2c0-.5.3-.8.8-.8h5c.5,0,.8.2.8.8v1.9c0,.4.2.6.6.6h1.7c.3,0,.5.2.5.5v4.5c0,.3-.2.5-.5.5h-1.5c-.4,0-.5.2-.5.5v2.3c0,.5-.2.7-.7.7h-5.3c-.5,0-.8-.3-.8-.8v-2.3c0-.3-.2-.5-.5-.5v.2Z"/>
        <ellipse class="cls-14" cx="567.1" cy="285.5" rx="2.7" ry="2.5" transform="translate(280.6 852.1) rotate(-89.9)"/>
        <path class="cls-14" d="M631.3,283.7c.3,0,.6.6,1,2,0,.3,0,.6-.3.6h-1.1c-.3,0-.5-.2-.5-.5h0c.4-1.4.7-2.1,1-2.1h-.1Z"/>
        <g class="cls-8">
          <text class="cls-9" transform="translate(552.7 290.4)"><tspan x="0" y="0">COMMUNICATE</tspan></text>
        </g>
      </g>
      <ellipse class="cls-14" cx="449" cy="285.7" rx="1.2" ry=".9" transform="translate(112.1 697.7) rotate(-83.2)"/>
      <path class="cls-6" d="M366.3,286.2v.8l-8.2,1.9h-.1l-.2-.3v-.2l8.5-2.1h0Z"/>
      <path class="cls-6" d="M366.1,287.2v.5c-10.9,2.9-19.8,4.5-26.8,4.7s-9.2-.6-17.1-2.1q-.1,0,0-.2l.2-.2h0c4.6.5,9.1,1,13.7,1.4,1.3.1,3.7.1,7.4,0,3.7-.1,11.2-1.5,22.6-4.2h0Z"/>
      <ellipse class="cls-14" cx="442.1" cy="288.5" rx=".8" ry="1.3" transform="translate(-76.5 387.2) rotate(-43.9)"/>
      <ellipse class="cls-14" cx="455.6" cy="288.5" rx="1.1" ry=".9" transform="translate(-37.9 505.7) rotate(-56.1)"/>
      <path class="cls-14" d="M455.5,292.4c.4,1.5.4,3,0,4.5-.3,1-.8,2-1.5,2.7s-1.3,1.8-1.4,2.9c-.5,3.4-1.9,5.3-5.6,4-.8-.8-1.4-1.6-1.5-2.8,0-1.5-.5-2.8-1.4-3.7-1.9-2.2-2.7-4.6-1.7-7.2.4-1.1,1.2-2.1,2.3-2.9,3.9-2.9,7.5-2,10.9,2.5h0ZM448.7,301h1.3c.3,0,.6-.2.8-.4,1.8-2.2,2.8-3.6,2.9-4.1.7-3.4-1.2-6.2-4.8-6.3-3.5,0-5.6,2.6-5.1,6,0,.5,1,1.9,2.7,4.2.2.3.5.4.8.5.5,0,.9,0,1.3.1h.1ZM450.1,302.7h-2.6c-.2,0-.4.2-.4.4h0c0,1.1.7,1.8,1.6,1.8h.4c.9,0,1.5-.8,1.5-1.7h0c0-.4-.2-.6-.4-.6h-.1Z"/>
      <circle class="cls-2" cx="419.4" cy="292.4" r="3.6"/>
      <path class="cls-2" d="M449,290.2c3.6,0,5.5,2.9,4.8,6.3-.1.5-1.1,1.9-2.9,4.1-.2.3-.5.4-.8.4h-1.3c-.4,0-.8,0-1.3-.1-.3,0-.6-.2-.8-.5-1.7-2.3-2.6-3.7-2.7-4.2-.6-3.4,1.5-6.1,5.1-6h-.1Z"/>
      <ellipse class="cls-14" cx="439.3" cy="295.1" rx=".9" ry="1.2" transform="translate(109.9 709.3) rotate(-85.4)"/>
      <ellipse class="cls-14" cx="458.3" cy="295.2" rx=".9" ry="1.2" transform="translate(141.1 738.5) rotate(-87.2)"/>
      <ellipse class="cls-14" cx="442.1" cy="301.8" rx="1.2" ry=".9" transform="translate(-85.1 394.6) rotate(-44.3)"/>
      <ellipse class="cls-14" cx="455.5" cy="301.7" rx=".9" ry="1.2" transform="translate(-90.9 299.6) rotate(-33.3)"/>
      <path class="cls-7" d="M450.1,302.7c.2,0,.4.2.4.4h0c0,1.1-.7,1.8-1.5,1.9h-.4c-.9,0-1.5-.7-1.6-1.7h0c0-.4.2-.6.4-.6h2.7Z"/>
      <path class="cls-14" d="M314,317.7c0,.1.1,1.2.4,3.1,1.1,9.4-6.7,11.5-14.3,12.4-2,.2-4.7.4-8.2.6-1.7,0-3.1.5-4.4,1.3-1.4.9-3.4,2-6,3.3-.5.2-1.1,0-1.3-.4-.1-.3-.1-.6,0-.8l1.4-3.3c.1-.3,0-.5-.3-.7h-.2c-3.7-.2-6.8-1.3-9.6-3.3-3.5-2.5-3.8-7.4-3.3-11.7.9-6.9,7.6-8.9,13.5-9.5,8.8-.9,16.7-.6,23.5.8,2.5.5,4.7,1.8,6.8,3.8.1.1,1.4,1.1,3.7,3,2.2,1.8,3.3,4.8,3.2,8.9,0,4.9-1.6,8-6.3,10.1-2.6,1.2-5.6,1.8-8.9,1.9-.4,0-.5.2-.4.5.2.7.3,1.1.3,1.1.9,2.5.2,3.1-2.1,1.9l-6.3-3.3c-.3-.2-.4-.6-.3-.9h0l.2-.4c.3-.6.8-.7,1.4-.4l4,2.3c.1,0,.3,0,.4-.1v-.2c-.4-.9-.4-1.5,0-1.9s.7-.3,1.4-.4c2.2-.2,4.9-.7,8-1.4,3.8-.9,6-3.3,6.5-7.2.5-3.9-.2-7-2.3-9.2-.4-.4-.6-.4-.6.2h0ZM284.3,333l-.7,1.2c0,.2,0,.4.1.5h.3c2-1.2,3.2-1.9,3.5-2.1,1.2-.7,2.4-1,3.7-.9,1.4,0,4,0,7.6-.4,3.6-.3,6.8-1,9.5-2.3,3.4-1.6,4.4-4.4,4-8.1-.5-4.2-1-7.3-5.3-8.8-2.5-.9-5.3-1.5-8.3-1.7-5.9-.5-11.5-.4-16.6.2-5.1.7-11.3,2.2-11.8,8.1-.3,4.2,0,8.5,4.1,10.4,2.8,1.3,5.7,2,8.8,2.2.6,0,1.1.6,1.1,1.2s0,.4-.2.5h.2Z"/>
      <path class="cls-1" d="M284.3,333c.3-.5.1-1.3-.4-1.6-.2,0-.3-.1-.5-.2-3.1-.2-6-.9-8.8-2.2-4.2-1.9-4.5-6.2-4.1-10.4.5-5.9,6.7-7.4,11.8-8.1,5.2-.7,10.7-.7,16.6-.2,3,.3,5.8.8,8.3,1.7,4.3,1.5,4.9,4.7,5.3,8.8.4,3.6-.5,6.5-4,8.1-2.8,1.3-5.9,2.1-9.5,2.3-3.6.3-6.2.4-7.6.4s-2.5.3-3.7.9c-.4.2-1.6.9-3.5,2.1-.2,0-.4,0-.5-.1v-.3l.7-1.2h0Z"/>
      <rect class="cls-14" x="411.5" y="322.2" width="15.9" height="1.7" rx=".8" ry=".8" transform="translate(95.7 741.9) rotate(-89.9)"/>
      <path class="cls-14" d="M282.9,346.6c-.2,2.3-1.3,3.9-3.3,4.7-.3.1-.4.3-.2.6,1.5,2,2.5,4.2,2.9,6.8,0,.5.5,1,1,1.1l.7.2c.5.1.8,0,.8-.6-.3-3.9,1.3-6.8,4.8-8.6.1,0,.1-.2,0-.3h0c-1-1.1-1.5-2.1-1.7-2.9-1-5.1,2.8-8,7.5-7,1.8.4,3.1,1.4,3.8,3.1,1,2.3.6,4.5-1.2,6.7-.2.3-.2.5.1.6,1.3.7,2.4,1.7,3.3,2.8,1.1,1.7,1.5,3.7,1.4,5.7,0,.3.1.5.5.5s.7,0,1-.2c.4-.2.6-.5.8-1.1.4-1.3.8-2.6,1.1-3.9l1.9-3.1c.2-.3,0-.5-.2-.6-1.2-.4-1.9-1-2.3-1.8-1.5-2.9-1.3-5.4.6-7.4,2.1-2.3,7-2.3,9.1.3,1.6,2.1,1.7,4.4.3,7.2-.2.3,0,.5.2.7,2.5,1.6,4.1,4,4.9,7.2l2.6,12.3c0,.3-.1.6-.4.7h-.3c-.2,0-.4-.1-.5-.2-.5-.2-.8-.6-1-1.1l-2.9-12.6c-.7-1.9-1.5-3.1-2.4-3.6-2.7-1.6-4.9-1-6.8,1.7l-2,5.6c-.4,1.1-1.5,1.9-2.7,2-1.9.1-3.2.3-4.2.5-.8.2-1.2.6-1.2,1.3s.3.8.8.8h7.5c.9,0,1.8-.6,2.1-1.4l2.4-5.7c.2-.4.6-.6,1-.4h.1l.3.2c.3.2.5.6.3,1-.3.7-.8,2.1-1.5,4.2-.8,2.3.5,4.7.4,7.2,0,.6-.3.8-.9.7h-.3c-.4-.2-.6-.4-.7-.8l-.5-3c0-.5-.3-.6-.8-.4l-1.2.5c-.3.1-.6.2-.9.1-1.9-.3-3.5.3-5.4.2-5.3-.2-10.6-.2-15.9,0-1.6,0-3.5-.6-5-.3s-1.7-.2-2.6-.5c-.3,0-.5,0-.6.3l-.9,3.4c0,.3-.4.6-.7.6h-.4c-.3,0-.6-.3-.6-.6h0c0-2.3,1.2-5.3.5-7.2-.4-1.1-.9-2.5-1.5-4.3-.1-.4,0-.9.5-1h.3c.4-.3.8-.1.9.3l2.4,5.6c.4.9,1.3,1.5,2.2,1.5h7.5c.5,0,.8-.3.7-.8v-.5c-.2-.5-.6-.8-1-.8-2.5,0-4.3-.3-5.5-.8-.7-.3-1.3-1.1-1.7-2.4-1.1-3.5-2-7.7-6.8-7.2s-6.4,13-7.2,16.9c-.1.6-.5,1.1-1.1,1.3h-.2c-.3.1-.7,0-.8-.4v-.3c.5-3.2,1.4-7.2,2.5-11.9.8-3.3,2.5-5.8,5-7.4.3-.2.3-.4.2-.7-1.7-3-1.3-5.7,1.1-8.1,4.3-2.5,10.2-.5,9.8,5.2l.2-.4ZM281,346c0-2.1-1.9-3.7-4.1-3.7h0c-2.2,0-4,1.8-3.9,3.8h0c0,2.1,1.9,3.7,4.1,3.7h0c2.2,0,4-1.8,3.9-3.8h0ZM297.9,346.3c.1-2.1-1.6-3.8-3.8-3.9h0c-2.2-.1-4.1,1.5-4.2,3.5-.1,2.1,1.6,3.8,3.8,3.9h0c2.2.1,4.1-1.5,4.2-3.5ZM314.7,346.2c0-2.1-1.8-3.7-4-3.8h0c-2.2,0-4,1.6-4,3.7s1.8,3.7,4,3.8h0c2.2,0,4-1.6,4-3.7ZM293.8,364.7h2.4c.4,0,.6-.2.6-.5-.3-2.3.8-3.5,3.3-3.6.4,0,.6-.2.6-.6.4-3.5-.9-5.9-4.1-7.3-.9-.4-1.8-.6-2.8-.6s-2,.2-2.9.5c-3.2,1.3-4.6,3.8-4.1,7.2,0,.4.2.5.6.6,2.5.2,3.6,1.4,3.3,3.7,0,.4.2.5.6.6h2.5Z"/>
      <ellipse class="cls-5" cx="277" cy="346.1" rx="4" ry="3.8" transform="translate(-6.6 5.4) rotate(-1.1)"/>
      <ellipse class="cls-1" cx="293.8" cy="346.2" rx="3.7" ry="4" transform="translate(-66.8 622.1) rotate(-87.1)"/>
      <ellipse class="cls-1" cx="310.6" cy="346.1" rx="3.7" ry="4" transform="translate(-38.2 653.7) rotate(-89.5)"/>
      <path class="cls-5" d="M288,347.7c.2.9.8,1.8,1.7,2.9v.3h0c-3.6,1.8-5.2,4.7-4.8,8.6,0,.6-.2.8-.8.6l-.7-.2c-.5-.1-.9-.6-1-1.1-.4-2.6-1.4-4.8-2.9-6.8-.2-.3-.2-.5.2-.6,2-.9,3.1-2.4,3.3-4.7l5.1,1h-.1Z"/>
      <path class="cls-5" d="M293.9,352.1c1,0,2,.2,2.8.6,3.2,1.4,4.5,3.8,4.1,7.3,0,.4-.2.5-.6.6-2.5.2-3.6,1.4-3.3,3.6,0,.4-.2.5-.6.5h-4.9c-.4,0-.6-.2-.6-.6.3-2.3-.8-3.5-3.3-3.7-.4,0-.6-.2-.6-.6-.4-3.5,1-5.9,4.1-7.2.9-.4,1.8-.5,2.9-.5h0Z"/>
      <path class="cls-1" d="M318.2,356.4c-3.2,0-6.2-.6-9.2-1.9,1.9-2.7,4.2-3.2,6.8-1.7.9.5,1.7,1.7,2.4,3.6h0Z"/>
      <path class="cls-5" d="M306.3,355c-.3,1.3-.7,2.6-1.1,3.9-.2.6-.5.9-.8,1.1-.3.1-.6.2-1,.2s-.5-.2-.5-.5c.1-2.1-.3-4-1.4-5.7,1.9-.9,3.1,0,4.8,1.2v-.2Z"/>
      <g>
        <path d="M286.6,422.3c-.3,0-.5.2-.5.5v1.5c0,.3.2.5.5.5,3.6,0,7.6.9,8.7,4.5,1.3,4.2-2,7.6-6,8.4-3.9.7-7.6.3-11.1-1.4-.3-.1-.4-.4-.2-.7l2.2-3.9c0-.2.3-.2.5-.2,3.5,1.2,6,1.3,7.4.4.3-.2.4-.5.4-.8-.1-.7-.6-1-1.5-1.1h-7c-.3,0-.5-.2-.5-.5l.9-11.9c0-.4.2-.5.6-.5h12.9c.3,0,.4.1.4.4v4.5c0,.3-.1.4-.4.4h-7.4.1Z"/>
        <g class="cls-8">
          <text class="cls-9" transform="translate(304.5 425.3)"><tspan x="0" y="0">PLAN </tspan></text>
          <text class="cls-9" transform="translate(304.5 438.5)"><tspan x="0" y="0">&amp; TAKE ACTION</tspan></text>
        </g>
      </g>
      <g>
        <path class="cls-14" d="M309.9,237.8c1.3,1.3,1.9,2.8,1.6,4.4-.5,3.3-3.2,4-6.3,3.8-.3,0-.5.1-.6.5-.1,1-.1,1.8,0,2.3,0,.3-.4.5-1.2.7l-2.1-.6c-.3,0-.4-.3-.4-.6v-10.6c0-.3.2-.5.5-.6,3-.4,5.8-.2,8.5.6h0ZM304.6,240.4v2.2c0,.2.2.4.4.4h1.3c.8,0,1.4-.6,1.4-1.3v-.4c0-.7-.6-1.3-1.4-1.3h-1.3c-.2,0-.4.2-.4.4h0Z"/>
        <path class="cls-14" d="M322.6,238.5c.9,1.8,1,3.6.2,5.4-.1.3-.4.6-.6.8l-.4.3c-.4.3-.4.6-.2,1l1.7,2.4c.2.3.2.5-.2.6l-2.6.5c-.7-.3-1.2-.8-1.5-1.3-.4-1.3-1-2-1.7-2.1-.4,0-.6.1-.6.5v2c0,.3-.2.5-.5.5h-2c-.3.1-.6,0-.8,0-.3-.2-.4-.4-.5-.7v-2.3l-.2-7.4c0-1,.3-1.5.9-1.5,3.2-.2,5.2-.1,6.1,0,.5.1,1.4.6,2.9,1.4h0ZM319.3,240.8c0-.4-.3-.8-.8-.8h-1.2c-.4,0-.8.3-.8.7v1.7c0,.4.3.8.7.8h1.2c.4,0,.8-.3.8-.7v-1.7h0Z"/>
        <path class="cls-14" d="M335.5,238.6c2.1,2.4,2.6,4.8,1.2,7.1-1.7,3-4.3,4-7.9,3-2.2-.8-3.5-2.3-4.1-4.3-.2-1.4,0-2.7.3-3.9,2.8-3.8,6.3-4.4,10.5-1.8h0ZM329.9,245.5c.8.3,1.7.3,2.4-.1,1.3-.7,1.8-2.4,1.1-3.7-.2-.4-.5-.7-.8-.9-.2-.2-.5-.3-.7-.4-1-.4-2.2,0-2.9.7-1,1.1-1,2.9.1,3.9.2.2.5.4.8.5Z"/>
        <path class="cls-14" d="M348.9,239.5c-.6.4-1.2.9-1.7,1.6-.4,0-.9-.1-1.4-.4-1.3-.9-2.9-.8-3.8.7-1.2,1.9-.6,3.4,1.7,4.4.9-.1,1.8-.4,2.7-.8.3-.2.6-.1.8.1l1.6,1.6c-1.4,1.8-3.6,2.6-6.6,2.3-1.4-.7-2.8-1.7-4-3.2-.5-1.8-.6-3.6-.2-5.3,2.5-3.7,5.6-4.6,9.3-2.7.7.4,1.2.9,1.5,1.6h.1Z"/>
        <path class="cls-14" d="M360.1,237.9l-.4,1.4c0,.3-.3.4-.6.4h-4.3c-.3,0-.5.2-.5.5h0v1.3c0,.5.2.7.7.6l3.7-.6c.3,0,.5,0,.5.4v2.4c0,.3-.1.4-.4.4h-3.7c-.5,0-.7.2-.7.7v.3c0,.3.2.5.5.5h5.1c.2,0,.3.1.3.3h0c-.2.6-.2,1.3-.1,2.1,0,.2-.1.4-.4.4h0l-7.8.2c-1.1,0-1.6-.3-1.5-1v-9l.2-1.7c0-.3.3-.5.5-.5h7.8c.4,0,.7.1.9.4l.4.4h-.2Z"/>
        <path class="cls-14" d="M370.2,238.3l-1.1,2.1c-.1.3-.4.4-.7.2-1.2-.6-2.3-.8-3.4-.6-.2,0-.4.2-.4.5v.4c0,.5.2.7.7.7,2.5,0,6.2,1.5,5,4.7-1.3,3.5-6.7,3.1-9.3,1.6-.1,0-.2-.2-.1-.3l.6-2.3c0-.2.2-.3.4-.2,1.4.5,2.9.8,4.5.8s.3-.1.4-.3v-.3c0-.1-.2-.2-.4-.2-1.4-.3-3.2-.5-4.4-1.5-1.4-1.3-1.5-3-.2-5.1,2.8-1.9,5.6-1.9,8.6-.1h-.2Z"/>
        <path class="cls-14" d="M380.9,238.2l-1.1,2.1c-.1.3-.4.4-.7.2-1.2-.6-2.3-.8-3.4-.6-.2,0-.4.2-.4.5v.4c0,.5.2.7.7.7,2.5,0,6.2,1.5,5,4.7-1.3,3.5-6.7,3.1-9.3,1.6-.1,0-.2-.2-.1-.3l.6-2.3c0-.2.2-.3.4-.2,1.4.5,2.9.8,4.5.8s.3-.1.4-.3v-.3c0-.1-.2-.2-.4-.2-1.4-.3-3.2-.5-4.4-1.5-1.4-1.3-1.5-3-.2-5.1,2.8-1.9,5.6-1.9,8.6-.1h-.2Z"/>
      </g>
      <polygon class="cls-11" points="255.7 406 260 419.2 273.8 419.2 262.6 427.3 266.9 440.5 255.7 432.4 244.5 440.5 248.8 427.3 237.6 419.2 251.4 419.2 255.7 406"/>
    </g>
  </g>
</svg>