<svg width="662" height="325" viewBox="0 0 662 325" fill="none" xmlns="http://www.w3.org/2000/svg">
<g clip-path="url(#clip0_1670_150781)">
<path d="M569.182 313.01C580.862 298.86 587.542 280.19 585.442 261.95C583.342 243.72 571.812 226.39 554.962 219.13C537.282 211.51 516.782 215.39 498.672 221.92C473.122 231.13 449.152 240.18 422.302 245.05C400.912 248.93 385.102 244.82 374.052 224.86C343.782 170.2 524.142 0 313.822 0C228.572 0 47.2617 29.12 47.2617 220.44C47.2617 264.47 58.8917 297.36 76.8617 322.33H560.072C563.312 319.52 566.362 316.43 569.182 313.01Z" fill="#D9ECF2"/>
<path d="M522.991 128.67C557.84 128.67 586.091 100.419 586.091 65.5702C586.091 30.721 557.84 2.47021 522.991 2.47021C488.141 2.47021 459.891 30.721 459.891 65.5702C459.891 100.419 488.141 128.67 522.991 128.67Z" fill="#D9ECF2"/>
<path d="M659.903 324.18H2.09344C1.22344 324.18 0.523438 323.48 0.523438 322.61C0.523438 321.74 1.22344 321.04 2.09344 321.04H659.903C660.773 321.04 661.473 321.74 661.473 322.61C661.473 323.48 660.773 324.18 659.903 324.18Z" fill="#194253"/>
<path fill-rule="evenodd" clip-rule="evenodd" d="M286.383 322.61L288.543 320.03C292.513 315.29 294.913 309.52 295.483 303.36L298.313 272.3H363.673L366.503 303.36C367.063 309.52 369.463 315.29 373.443 320.03L375.603 322.61H286.383Z" fill="white"/>
<path d="M362.243 273.87L364.943 303.5C365.533 309.95 368.073 316.07 372.243 321.04H289.743C293.903 316.07 296.453 309.96 297.043 303.5L299.743 273.87H362.243ZM365.113 270.73H296.883L296.623 273.58L293.923 303.21C293.393 309.05 291.113 314.52 287.343 319.02L283.023 324.17H378.963L374.643 319.02C370.873 314.52 368.603 309.06 368.063 303.21L365.363 273.58L365.103 270.73H365.113Z" fill="#194253"/>
<path fill-rule="evenodd" clip-rule="evenodd" d="M297.742 279.98V285.25L365.352 287.78V279.98H297.742Z" fill="#194253"/>
<path d="M357.412 313.73H304.582C303.712 313.73 303.012 313.03 303.012 312.16C303.012 311.29 303.712 310.59 304.582 310.59H357.412C358.282 310.59 358.982 311.29 358.982 312.16C358.982 313.03 358.282 313.73 357.412 313.73Z" fill="#194253"/>
<path d="M502.142 67.1396H159.852C155.196 67.1396 151.422 70.9139 151.422 75.5696V270.99C151.422 275.645 155.196 279.42 159.852 279.42H502.142C506.798 279.42 510.572 275.645 510.572 270.99V75.5696C510.572 70.9139 506.798 67.1396 502.142 67.1396Z" fill="white"/>
<path d="M502.142 65.5698H159.852C154.332 65.5698 149.852 70.0498 149.852 75.5698V270.98C149.852 276.5 154.332 280.98 159.852 280.98H502.132C507.652 280.98 512.132 276.5 512.132 270.98V75.5698C512.132 70.0498 507.652 65.5698 502.132 65.5698H502.142ZM159.852 68.7098H502.132C505.912 68.7098 508.992 71.7898 508.992 75.5698V247.63H152.992V75.5698C152.992 71.7898 156.072 68.7098 159.852 68.7098ZM502.142 277.85H159.852C156.072 277.85 152.992 274.77 152.992 270.99V250.77H509.002V270.99C509.002 274.77 505.922 277.85 502.142 277.85Z" fill="#194253"/>
<path d="M330.992 269.3C333.754 269.3 335.992 267.061 335.992 264.3C335.992 261.538 333.754 259.3 330.992 259.3C328.231 259.3 325.992 261.538 325.992 264.3C325.992 267.061 328.231 269.3 330.992 269.3Z" fill="#194253"/>
<path d="M426.92 308.88C424.65 309.15 422.91 311.77 422.91 314.91V320.52C422.91 321.68 423.59 322.62 424.43 322.62H463.8C464.64 322.62 465.32 321.68 465.32 320.52V314.91C465.32 311.77 463.58 309.16 461.31 308.88C449.86 307.51 438.35 307.51 426.91 308.88H426.92Z" fill="white"/>
<path d="M463.812 324.18H424.442C422.712 324.18 421.352 322.57 421.352 320.51V314.9C421.352 310.95 423.672 307.69 426.742 307.32C438.282 305.94 449.982 305.94 461.512 307.32C464.582 307.69 466.902 310.95 466.902 314.9V320.51C466.902 322.57 465.542 324.18 463.812 324.18ZM424.602 321.04H463.632C463.692 320.95 463.752 320.76 463.752 320.51V314.9C463.752 312.61 462.572 310.6 461.122 310.43C449.832 309.08 438.382 309.08 427.092 310.43C425.642 310.6 424.462 312.61 424.462 314.9V320.51C424.462 320.76 424.532 320.95 424.582 321.04H424.602Z" fill="#194253"/>
<path d="M571.106 247.33C570.586 247.16 569.996 247.41 569.826 247.94C569.286 249.57 568.996 251.31 568.996 253.13C568.996 260.89 574.286 267.4 581.446 269.3C582.186 267.41 582.606 265.37 582.606 263.22C582.606 255.81 577.786 249.54 571.116 247.33H571.106Z" fill="white"/>
<path d="M582.396 271.17L581.046 270.81C573.026 268.68 567.426 261.41 567.426 253.12C567.426 251.2 567.736 249.29 568.336 247.44C568.546 246.8 568.996 246.28 569.596 245.98C570.206 245.67 570.936 245.62 571.596 245.83C579.116 248.32 584.166 255.3 584.166 263.21C584.166 265.47 583.736 267.71 582.906 269.86L582.396 271.16V271.17ZM571.136 249C570.756 250.35 570.556 251.73 570.556 253.12C570.556 259.5 574.556 265.15 580.446 267.33C580.836 265.98 581.026 264.6 581.026 263.21C581.026 256.85 577.076 251.2 571.136 249Z" fill="#194253"/>
<path d="M565.276 257.67C564.766 257.64 564.316 258.01 564.246 258.51C564.066 259.83 564.036 261.18 564.186 262.56C565.096 271.09 572.256 277.42 580.616 277.52C580.916 275.93 581.006 274.28 580.816 272.59C579.936 264.37 573.246 258.19 565.266 257.66L565.276 257.67Z" fill="white"/>
<path d="M581.904 279.11L580.594 279.09C571.334 278.98 563.604 271.94 562.614 262.73C562.454 261.26 562.484 259.77 562.684 258.3C562.864 256.98 564.044 256.01 565.374 256.11C574.274 256.69 581.424 263.56 582.374 272.43C582.564 274.22 582.494 276.04 582.154 277.82L581.904 279.11ZM565.724 259.28C565.624 260.32 565.624 261.36 565.734 262.4C566.504 269.58 572.204 275.16 579.264 275.88C579.364 274.84 579.364 273.8 579.254 272.76C578.484 265.59 572.844 260 565.724 259.28Z" fill="#194253"/>
<path d="M599.375 247.33C599.895 247.16 600.485 247.41 600.655 247.94C601.195 249.57 601.485 251.31 601.485 253.13C601.485 260.89 596.195 267.4 589.035 269.3C588.295 267.41 587.875 265.37 587.875 263.22C587.875 255.81 592.695 249.54 599.365 247.33H599.375Z" fill="white"/>
<path d="M588.094 271.17L587.584 269.87C586.744 267.72 586.324 265.49 586.324 263.22C586.324 255.31 591.374 248.33 598.894 245.84C600.254 245.39 601.714 246.11 602.154 247.44C602.764 249.29 603.064 251.2 603.064 253.12C603.064 261.41 597.464 268.68 589.444 270.81L588.094 271.17ZM599.344 249C593.404 251.21 589.454 256.85 589.454 263.21C589.454 264.6 589.644 265.98 590.034 267.33C595.924 265.14 599.924 259.49 599.924 253.12C599.924 251.73 599.734 250.35 599.344 249Z" fill="#194253"/>
<path d="M605.206 257.67C605.716 257.64 606.166 258.01 606.236 258.51C606.416 259.83 606.446 261.18 606.296 262.56C605.386 271.09 598.226 277.42 589.866 277.52C589.566 275.93 589.476 274.28 589.666 272.59C590.546 264.37 597.236 258.19 605.216 257.66L605.206 257.67Z" fill="white"/>
<path d="M588.574 279.11L588.324 277.82C587.984 276.04 587.904 274.23 588.104 272.43C589.054 263.55 596.204 256.69 605.104 256.11C606.414 256.02 607.614 256.99 607.794 258.31C607.994 259.77 608.014 261.27 607.864 262.74C606.874 271.96 599.154 278.99 589.884 279.1L588.574 279.12V279.11ZM604.754 259.28C597.634 260 591.984 265.59 591.224 272.76C591.114 273.8 591.114 274.84 591.214 275.88C598.274 275.16 603.974 269.58 604.744 262.4C604.854 261.36 604.854 260.32 604.754 259.28Z" fill="#194253"/>
<path d="M586.044 239.81C585.654 239.27 584.824 239.27 584.444 239.81C580.504 245.32 578.184 252.07 578.184 259.36C578.184 267.13 580.824 274.29 585.244 279.98C589.664 274.28 592.304 267.13 592.304 259.36C592.304 252.07 589.984 245.32 586.044 239.81Z" fill="white"/>
<path d="M585.243 282.54L584.003 280.94C579.163 274.71 576.613 267.24 576.613 259.35C576.613 251.97 578.883 244.89 583.163 238.89C583.643 238.22 584.413 237.82 585.243 237.82C586.073 237.82 586.843 238.22 587.323 238.89C591.613 244.89 593.873 251.96 593.873 259.35C593.873 267.24 591.313 274.7 586.483 280.93L585.243 282.53V282.54ZM585.243 241.4C581.643 246.72 579.743 252.91 579.743 259.36C579.743 265.81 581.633 272.01 585.243 277.32C588.843 272.01 590.743 265.84 590.743 259.36C590.743 252.88 588.843 246.72 585.243 241.4Z" fill="#194253"/>
<path d="M560.814 277.27C557.594 282.15 555.794 288.06 556.014 294.39C556.524 309.29 568.504 321.63 583.384 322.55C600.384 323.6 614.494 310.13 614.494 293.36C614.494 287.3 612.654 281.68 609.494 277.01C607.674 274.32 604.574 272.78 601.324 272.78H569.174C565.814 272.78 562.674 274.47 560.814 277.27Z" fill="white"/>
<path d="M610.794 276.13C608.714 273.05 605.174 271.21 601.324 271.21H569.174C565.274 271.21 561.654 273.15 559.514 276.41C555.984 281.76 554.224 288 554.454 294.45C554.994 310.12 567.664 323.15 583.294 324.12C583.954 324.16 584.624 324.18 585.274 324.18C593.154 324.18 600.574 321.25 606.354 315.82C612.524 310.02 616.064 301.83 616.064 293.36C616.064 287.19 614.244 281.23 610.794 276.13ZM562.124 278.13C563.694 275.76 566.324 274.34 569.174 274.34H601.324C604.124 274.34 606.694 275.66 608.194 277.88C610.494 281.28 611.984 285.11 612.594 289.13C610.624 289.71 609.414 291.14 608.404 292.35C607.144 293.86 606.354 294.71 604.734 294.71C603.114 294.71 602.324 293.86 601.064 292.35C599.764 290.8 598.154 288.86 594.984 288.86C591.814 288.86 590.204 290.79 588.904 292.35C587.644 293.86 586.854 294.71 585.234 294.71C583.614 294.71 582.814 293.86 581.564 292.35C580.274 290.8 578.654 288.86 575.484 288.86C572.314 288.86 570.704 290.8 569.404 292.35C568.144 293.86 567.364 294.71 565.734 294.71C564.104 294.71 563.324 293.86 562.064 292.35C561.064 291.14 559.854 289.72 557.894 289.14C558.494 285.22 559.904 281.48 562.114 278.13H562.124ZM604.194 313.53C598.574 318.82 591.224 321.47 583.474 320.98C569.434 320.11 558.064 308.4 557.574 294.33C557.554 293.68 557.554 293.02 557.574 292.38C558.284 292.77 558.884 293.44 559.644 294.36C560.934 295.91 562.554 297.85 565.724 297.85C568.894 297.85 570.504 295.92 571.804 294.36C573.064 292.85 573.854 292 575.474 292C577.094 292 577.884 292.85 579.144 294.36C580.434 295.91 582.054 297.85 585.224 297.85C588.394 297.85 590.004 295.92 591.304 294.36C592.564 292.85 593.354 292 594.974 292C596.594 292 597.394 292.85 598.644 294.36C599.944 295.91 601.554 297.85 604.724 297.85C607.894 297.85 609.514 295.92 610.804 294.36C611.564 293.44 612.164 292.77 612.874 292.39C612.884 292.71 612.914 293.04 612.914 293.36C612.914 301.08 609.814 308.24 604.184 313.53H604.194Z" fill="#194253"/>
<path d="M604.742 292C605.609 292 606.312 291.297 606.312 290.43C606.312 289.563 605.609 288.86 604.742 288.86C603.875 288.86 603.172 289.563 603.172 290.43C603.172 291.297 603.875 292 604.742 292Z" fill="#194253"/>
<path d="M594.992 297.85C595.859 297.85 596.562 297.147 596.562 296.28C596.562 295.413 595.859 294.71 594.992 294.71C594.125 294.71 593.422 295.413 593.422 296.28C593.422 297.147 594.125 297.85 594.992 297.85Z" fill="#194253"/>
<path d="M585.242 292C586.109 292 586.812 291.297 586.812 290.43C586.812 289.563 586.109 288.86 585.242 288.86C584.375 288.86 583.672 289.563 583.672 290.43C583.672 291.297 584.375 292 585.242 292Z" fill="#194253"/>
<path d="M575.492 297.85C576.359 297.85 577.062 297.147 577.062 296.28C577.062 295.413 576.359 294.71 575.492 294.71C574.625 294.71 573.922 295.413 573.922 296.28C573.922 297.147 574.625 297.85 575.492 297.85Z" fill="#194253"/>
<path d="M565.742 292C566.609 292 567.312 291.297 567.312 290.43C567.312 289.563 566.609 288.86 565.742 288.86C564.875 288.86 564.172 289.563 564.172 290.43C564.172 291.297 564.875 292 565.742 292Z" fill="#194253"/>
<path d="M159.851 57.7801C158.981 57.7801 158.281 57.0801 158.281 56.2101V46.2101C158.281 45.3401 158.981 44.6401 159.851 44.6401C160.721 44.6401 161.421 45.3401 161.421 46.2101V56.2101C161.421 57.0801 160.721 57.7801 159.851 57.7801Z" fill="#194253"/>
<path d="M146.161 63.4502C145.761 63.4502 145.361 63.3002 145.051 62.9902L137.981 55.9202C137.371 55.3102 137.371 54.3102 137.981 53.7002C138.591 53.0902 139.591 53.0902 140.201 53.7002L147.271 60.7702C147.881 61.3802 147.881 62.3802 147.271 62.9902C146.961 63.3002 146.561 63.4502 146.161 63.4502Z" fill="#194253"/>
<path d="M140.492 77.14H130.492C129.622 77.14 128.922 76.44 128.922 75.57C128.922 74.7 129.622 74 130.492 74H140.492C141.362 74 142.062 74.7 142.062 75.57C142.062 76.44 141.362 77.14 140.492 77.14Z" fill="#194253"/>
<path d="M53.543 237.97L62.163 322.61H101.373L109.993 237.97H53.543Z" fill="white"/>
<path d="M102.785 324.18H60.7447L51.8047 236.4H111.725L102.785 324.18ZM63.5847 321.04H99.9547L108.255 239.54H55.2747L63.5747 321.04H63.5847Z" fill="#194253"/>
<path d="M111.652 227.8C111.412 226.94 110.622 226.34 109.722 226.34H53.812C52.912 226.34 52.132 226.94 51.882 227.8L49.752 235.43C49.392 236.71 50.352 237.97 51.682 237.97H111.862C113.182 237.97 114.142 236.71 113.792 235.43L111.662 227.8H111.652Z" fill="white"/>
<path d="M111.853 239.54H51.6733C50.5433 239.54 49.5133 239.03 48.8333 238.13C48.1533 237.23 47.9333 236.1 48.2433 235.01L50.3733 227.38C50.8033 225.84 52.2133 224.77 53.8133 224.77H109.723C111.313 224.77 112.733 225.84 113.163 227.38L115.293 235.01C115.593 236.09 115.383 237.23 114.703 238.13C114.023 239.03 112.983 239.54 111.863 239.54H111.853ZM53.8133 227.91C53.6233 227.91 53.4533 228.04 53.3933 228.23L51.2633 235.86C51.2133 236.04 51.2833 236.17 51.3333 236.24C51.3833 236.3 51.4933 236.41 51.6733 236.41H111.853C112.043 236.41 112.153 236.3 112.193 236.24C112.243 236.18 112.313 236.04 112.263 235.86L110.133 228.23C110.083 228.04 109.913 227.91 109.713 227.91H53.8033H53.8133Z" fill="#194253"/>
<path d="M58.323 219.97L56.543 226.34H106.993L105.213 219.97C104.973 219.11 104.183 218.51 103.283 218.51H60.253C59.353 218.51 58.573 219.11 58.323 219.97Z" fill="white"/>
<path d="M109.053 227.91H54.4727L56.8127 219.55C57.2427 218.02 58.6527 216.94 60.2527 216.94H103.283C104.873 216.94 106.293 218.01 106.723 219.55L109.063 227.91H109.053ZM58.6127 224.77H104.923L103.693 220.39C103.643 220.2 103.473 220.08 103.273 220.08H60.2427C60.0527 220.08 59.8827 220.21 59.8227 220.4L58.6027 224.78L58.6127 224.77Z" fill="#194253"/>
<path d="M53.7822 262.87L57.4622 299.03C57.5622 300.05 58.4222 300.83 59.4522 300.83H104.072C105.102 300.83 105.962 300.05 106.062 299.03L109.742 262.87C109.862 261.69 108.932 260.67 107.752 260.67H55.7622C54.5822 260.67 53.6522 261.69 53.7722 262.87H53.7822Z" fill="white"/>
<path d="M104.082 302.4H59.4624C57.6224 302.4 56.1024 301.02 55.9124 299.19L52.2324 263.03C52.1324 262.03 52.4624 261.02 53.1324 260.28C53.8124 259.53 54.7724 259.1 55.7824 259.1H107.772C108.782 259.1 109.742 259.53 110.422 260.28C111.102 261.03 111.422 262.03 111.322 263.03L107.642 299.19C107.452 301.02 105.932 302.4 104.092 302.4H104.082ZM55.7724 262.23C55.6124 262.23 55.5124 262.31 55.4524 262.37C55.3924 262.43 55.3224 262.55 55.3424 262.7L59.0224 298.86C59.0424 299.08 59.2324 299.25 59.4524 299.25H104.072C104.292 299.25 104.482 299.08 104.502 298.86L108.182 262.7C108.202 262.53 108.122 262.42 108.072 262.37C108.012 262.31 107.912 262.23 107.752 262.23H55.7624H55.7724Z" fill="#194253"/>
<path d="M59.9414 299.83H103.591L102.941 305.5L60.3214 303.3L59.9414 299.83Z" fill="#194253"/>
<path d="M53.543 237.97L53.903 240.75L109.293 243.3L109.993 237.97H53.543Z" fill="#194253"/>
<path d="M248.379 248.624V66.7611C248.379 62.6872 251.703 59.3755 255.791 59.3755H406.205C410.294 59.3755 413.618 62.6872 413.618 66.7611V248.624H248.379Z" fill="white"/>
<path d="M257.673 69.7225C259.13 69.7225 260.311 68.5457 260.311 67.0942C260.311 65.6426 259.13 64.4658 257.673 64.4658C256.216 64.4658 255.035 65.6426 255.035 67.0942C255.035 68.5457 256.216 69.7225 257.673 69.7225Z" fill="#194253"/>
<path d="M268.228 69.7225C269.685 69.7225 270.866 68.5457 270.866 67.0942C270.866 65.6426 269.685 64.4658 268.228 64.4658C266.771 64.4658 265.59 65.6426 265.59 67.0942C265.59 68.5457 266.771 69.7225 268.228 69.7225Z" fill="#194253"/>
<path d="M278.779 69.7225C280.235 69.7225 281.416 68.5457 281.416 67.0942C281.416 65.6426 280.235 64.4658 278.779 64.4658C277.322 64.4658 276.141 65.6426 276.141 67.0942C276.141 68.5457 277.322 69.7225 278.779 69.7225Z" fill="#194253"/>
<path d="M406.207 58H255.793C250.939 58 247 61.925 247 66.7611V250H415V66.7611C415 61.925 411.061 58 406.207 58ZM255.793 60.751H406.207C409.531 60.751 412.239 63.4494 412.239 66.7611V73.4459H249.761V66.7611C249.761 63.4494 252.469 60.751 255.793 60.751ZM249.761 247.258V76.1969H412.248V247.258H249.761Z" fill="#194253"/>
<path d="M294.324 89.9956H268.165C267.194 89.9956 266.406 90.7801 266.406 91.7478V117.812C266.406 118.78 267.194 119.564 268.165 119.564H294.324C295.295 119.564 296.083 118.78 296.083 117.812V91.7478C296.083 90.7801 295.295 89.9956 294.324 89.9956Z" fill="#004993"/>
<path d="M286.744 99.3438L279.745 106.326L275.744 102.34L273.801 104.285L279.745 110.208L288.696 101.289L286.744 99.3438Z" fill="white"/>
<path d="M395.595 92.7378H307.664V95.4888H395.595V92.7378Z" fill="#A5BFC7"/>
<path d="M395.595 98.2397H307.664V100.991H395.595V98.2397Z" fill="#A5BFC7"/>
<path d="M360.422 103.733H307.664V106.484H360.422V103.733Z" fill="#A5BFC7"/>
<path d="M294.324 127.958H268.165C267.194 127.958 266.406 128.742 266.406 129.71V155.774C266.406 156.742 267.194 157.526 268.165 157.526H294.324C295.295 157.526 296.083 156.742 296.083 155.774V129.71C296.083 128.742 295.295 127.958 294.324 127.958Z" fill="#008CBF"/>
<path d="M286.744 137.314L279.745 144.288L275.744 140.311L273.801 142.247L279.745 148.178L288.696 139.251L286.744 137.314Z" fill="white"/>
<path d="M395.595 130.708H307.664V133.459H395.595V130.708Z" fill="#A5BFC7"/>
<path d="M395.595 136.202H307.664V138.953H395.595V136.202Z" fill="#A5BFC7"/>
<path d="M360.422 141.695H307.664V144.446H360.422V141.695Z" fill="#A5BFC7"/>
<path d="M294.324 165.928H268.165C267.194 165.928 266.406 166.713 266.406 167.68V193.745C266.406 194.713 267.194 195.497 268.165 195.497H294.324C295.295 195.497 296.083 194.713 296.083 193.745V167.68C296.083 166.713 295.295 165.928 294.324 165.928Z" fill="#CC8600"/>
<path d="M286.744 175.276L279.745 182.259L275.744 178.273L273.801 180.218L279.745 186.14L288.696 177.221L286.744 175.276Z" fill="white"/>
<path d="M395.595 168.67H307.664V171.421H395.595V168.67Z" fill="#A5BFC7"/>
<path d="M395.595 174.164H307.664V176.915H395.595V174.164Z" fill="#A5BFC7"/>
<path d="M360.422 179.666H307.664V182.417H360.422V179.666Z" fill="#A5BFC7"/>
<path d="M294.324 203.89H268.165C267.194 203.89 266.406 204.675 266.406 205.642V231.707C266.406 232.674 267.194 233.459 268.165 233.459H294.324C295.295 233.459 296.083 232.674 296.083 231.707V205.642C296.083 204.675 295.295 203.89 294.324 203.89Z" fill="#1AA6B7"/>
<path d="M286.744 213.238L279.745 220.221L275.744 216.235L273.801 218.18L279.745 224.111L288.696 215.183L286.744 213.238Z" fill="white"/>
<path d="M395.595 206.641H307.664V209.392H395.595V206.641Z" fill="#A5BFC7"/>
<path d="M395.595 212.134H307.664V214.885H395.595V212.134Z" fill="#A5BFC7"/>
<path d="M360.422 217.627H307.664V220.378H360.422V217.627Z" fill="#A5BFC7"/>
<path d="M432 237C427.657 237 424.971 232.831 424.913 226C424.965 232.825 422.343 237 418 237C422.343 237 424.965 241.169 424.913 248C424.965 241.175 427.651 237 432 237Z" fill="#DAD4E4"/>
<path d="M408 230C406.139 230 404.988 228.105 404.963 225C404.985 228.102 403.861 230 402 230C403.861 230 404.985 231.895 404.963 235C404.985 231.898 406.136 230 408 230Z" fill="#DAD4E4"/>
<path d="M447 201C440.175 201 435.955 194.556 435.864 184C435.946 194.547 431.825 201 425 201C431.825 201 435.946 207.444 435.864 218C435.946 207.453 440.166 201 447 201Z" fill="#DAD4E4"/>
<path d="M250 98C245.657 98 242.971 93.8306 242.913 87C242.965 93.8248 240.343 98 236 98C240.343 98 242.965 102.169 242.913 109C242.965 102.175 245.651 98 250 98Z" fill="#DAD4E4"/>
<path d="M221 111C219.139 111 217.988 109.105 217.963 106C217.985 109.102 216.861 111 215 111C216.861 111 217.985 112.895 217.963 116C217.985 112.898 219.136 111 221 111Z" fill="#DAD4E4"/>
<path d="M243 136C236.175 136 231.955 129.556 231.864 119C231.946 129.547 227.825 136 221 136C227.825 136 231.946 142.444 231.864 153C231.946 142.453 236.166 136 243 136Z" fill="#DAD4E4"/>
</g>
<defs>
<clipPath id="clip0_1670_150781">
<rect width="660.95" height="324.18" fill="white" transform="translate(0.523438)"/>
</clipPath>
</defs>
</svg>
