<svg width="662" height="325" viewBox="0 0 662 325" fill="none" xmlns="http://www.w3.org/2000/svg">
<g clip-path="url(#clip0_1370_157229)">
<path d="M569.182 313.19C580.862 299.04 587.542 280.37 585.442 262.13C583.342 243.9 571.812 226.57 554.962 219.31C537.282 211.69 516.782 215.57 498.672 222.1C473.122 231.31 449.152 240.36 422.302 245.23C400.912 249.11 385.102 245 374.052 225.04C343.782 170.38 524.142 0.179688 313.822 0.179688C228.572 0.179688 47.2617 29.2997 47.2617 220.62C47.2617 264.65 58.8917 297.54 76.8617 322.51H560.072C563.312 319.7 566.362 316.61 569.182 313.19Z" fill="#D9ECF2"/>
<path d="M522.991 128.85C557.84 128.85 586.091 100.599 586.091 65.7499C586.091 30.9007 557.84 2.6499 522.991 2.6499C488.141 2.6499 459.891 30.9007 459.891 65.7499C459.891 100.599 488.141 128.85 522.991 128.85Z" fill="#D9ECF2"/>
<path d="M659.903 324.36H2.09344C1.22344 324.36 0.523438 323.66 0.523438 322.79C0.523438 321.92 1.22344 321.22 2.09344 321.22H659.903C660.773 321.22 661.473 321.92 661.473 322.79C661.473 323.66 660.773 324.36 659.903 324.36Z" fill="#194253"/>
<path fill-rule="evenodd" clip-rule="evenodd" d="M286.383 322.789L288.543 320.21C292.513 315.47 294.913 309.699 295.483 303.539L298.313 272.479H363.673L366.503 303.539C367.063 309.699 369.463 315.47 373.443 320.21L375.603 322.789H286.383Z" fill="white"/>
<path d="M362.243 274.05L364.943 303.68C365.533 310.13 368.073 316.25 372.243 321.22H289.743C293.903 316.25 296.453 310.14 297.043 303.68L299.743 274.05H362.243ZM365.113 270.91H296.883L296.623 273.76L293.923 303.39C293.393 309.23 291.113 314.7 287.343 319.2L283.023 324.35H378.963L374.643 319.2C370.873 314.7 368.603 309.24 368.063 303.39L365.363 273.76L365.103 270.91H365.113Z" fill="#194253"/>
<path fill-rule="evenodd" clip-rule="evenodd" d="M297.742 280.16V285.43L365.352 287.96V280.16H297.742Z" fill="#194253"/>
<path d="M357.412 313.91H304.582C303.712 313.91 303.012 313.21 303.012 312.34C303.012 311.47 303.712 310.77 304.582 310.77H357.412C358.282 310.77 358.982 311.47 358.982 312.34C358.982 313.21 358.282 313.91 357.412 313.91Z" fill="#194253"/>
<path d="M502.142 67.3193H159.852C155.196 67.3193 151.422 71.0936 151.422 75.7493V271.169C151.422 275.825 155.196 279.599 159.852 279.599H502.142C506.798 279.599 510.572 275.825 510.572 271.169V75.7493C510.572 71.0936 506.798 67.3193 502.142 67.3193Z" fill="white"/>
<path d="M502.142 65.7495H159.852C154.332 65.7495 149.852 70.2295 149.852 75.7495V271.16C149.852 276.68 154.332 281.16 159.852 281.16H502.132C507.652 281.16 512.132 276.68 512.132 271.16V75.7495C512.132 70.2295 507.652 65.7495 502.132 65.7495H502.142ZM159.852 68.8895H502.132C505.912 68.8895 508.992 71.9695 508.992 75.7495V247.81H152.992V75.7495C152.992 71.9695 156.072 68.8895 159.852 68.8895ZM502.142 278.03H159.852C156.072 278.03 152.992 274.949 152.992 271.169V250.95H509.002V271.169C509.002 274.949 505.922 278.03 502.142 278.03Z" fill="#194253"/>
<path d="M330.992 269.479C333.754 269.479 335.992 267.241 335.992 264.479C335.992 261.718 333.754 259.479 330.992 259.479C328.231 259.479 325.992 261.718 325.992 264.479C325.992 267.241 328.231 269.479 330.992 269.479Z" fill="#194253"/>
<path d="M426.92 309.06C424.65 309.33 422.91 311.95 422.91 315.09V320.7C422.91 321.86 423.59 322.8 424.43 322.8H463.8C464.64 322.8 465.32 321.86 465.32 320.7V315.09C465.32 311.95 463.58 309.34 461.31 309.06C449.86 307.69 438.35 307.69 426.91 309.06H426.92Z" fill="white"/>
<path d="M463.812 324.36H424.442C422.712 324.36 421.352 322.75 421.352 320.69V315.08C421.352 311.13 423.672 307.87 426.742 307.5C438.282 306.12 449.982 306.12 461.512 307.5C464.582 307.87 466.902 311.13 466.902 315.08V320.69C466.902 322.75 465.542 324.36 463.812 324.36ZM424.602 321.22H463.632C463.692 321.13 463.752 320.94 463.752 320.69V315.08C463.752 312.79 462.572 310.78 461.122 310.61C449.832 309.26 438.382 309.26 427.092 310.61C425.642 310.78 424.462 312.79 424.462 315.08V320.69C424.462 320.94 424.532 321.13 424.582 321.22H424.602Z" fill="#194253"/>
<path d="M571.106 247.509C570.586 247.339 569.996 247.589 569.826 248.119C569.286 249.749 568.996 251.489 568.996 253.309C568.996 261.069 574.286 267.579 581.446 269.479C582.186 267.589 582.606 265.549 582.606 263.399C582.606 255.989 577.786 249.719 571.116 247.509H571.106Z" fill="white"/>
<path d="M582.396 271.35L581.046 270.99C573.026 268.86 567.426 261.59 567.426 253.3C567.426 251.38 567.736 249.47 568.336 247.62C568.546 246.98 568.996 246.46 569.596 246.16C570.206 245.85 570.936 245.8 571.596 246.01C579.116 248.5 584.166 255.48 584.166 263.39C584.166 265.65 583.736 267.89 582.906 270.04L582.396 271.34V271.35ZM571.136 249.18C570.756 250.53 570.556 251.91 570.556 253.3C570.556 259.68 574.556 265.33 580.446 267.51C580.836 266.16 581.026 264.78 581.026 263.39C581.026 257.03 577.076 251.38 571.136 249.18Z" fill="#194253"/>
<path d="M565.276 257.849C564.766 257.819 564.316 258.189 564.246 258.689C564.066 260.009 564.036 261.359 564.186 262.739C565.096 271.269 572.256 277.599 580.616 277.699C580.916 276.109 581.006 274.459 580.816 272.769C579.936 264.549 573.246 258.369 565.266 257.839L565.276 257.849Z" fill="white"/>
<path d="M581.904 279.289L580.594 279.269C571.334 279.159 563.604 272.119 562.614 262.909C562.454 261.439 562.484 259.949 562.684 258.479C562.864 257.159 564.044 256.189 565.374 256.289C574.274 256.869 581.424 263.739 582.374 272.609C582.564 274.399 582.494 276.219 582.154 277.999L581.904 279.289ZM565.724 259.459C565.624 260.499 565.624 261.539 565.734 262.579C566.504 269.759 572.204 275.339 579.264 276.059C579.364 275.019 579.364 273.979 579.254 272.939C578.484 265.769 572.844 260.179 565.724 259.459Z" fill="#194253"/>
<path d="M599.375 247.509C599.895 247.339 600.485 247.589 600.655 248.119C601.195 249.749 601.485 251.489 601.485 253.309C601.485 261.069 596.195 267.579 589.035 269.479C588.295 267.589 587.875 265.549 587.875 263.399C587.875 255.989 592.695 249.719 599.365 247.509H599.375Z" fill="white"/>
<path d="M588.094 271.349L587.584 270.049C586.744 267.899 586.324 265.669 586.324 263.399C586.324 255.489 591.374 248.509 598.894 246.019C600.254 245.569 601.714 246.289 602.154 247.619C602.764 249.469 603.064 251.379 603.064 253.299C603.064 261.589 597.464 268.859 589.444 270.989L588.094 271.349ZM599.344 249.179C593.404 251.389 589.454 257.029 589.454 263.389C589.454 264.779 589.644 266.159 590.034 267.509C595.924 265.319 599.924 259.669 599.924 253.299C599.924 251.909 599.734 250.529 599.344 249.179Z" fill="#194253"/>
<path d="M605.206 257.849C605.716 257.819 606.166 258.189 606.236 258.689C606.416 260.009 606.446 261.359 606.296 262.739C605.386 271.269 598.226 277.599 589.866 277.699C589.566 276.109 589.476 274.459 589.666 272.769C590.546 264.549 597.236 258.369 605.216 257.839L605.206 257.849Z" fill="white"/>
<path d="M588.574 279.289L588.324 278C587.984 276.219 587.904 274.409 588.104 272.609C589.054 263.729 596.204 256.869 605.104 256.289C606.414 256.199 607.614 257.169 607.794 258.489C607.994 259.949 608.014 261.449 607.864 262.919C606.874 272.139 599.154 279.169 589.884 279.279L588.574 279.299V279.289ZM604.754 259.459C597.634 260.179 591.984 265.77 591.224 272.94C591.114 273.98 591.114 275.019 591.214 276.059C598.274 275.339 603.974 269.759 604.744 262.579C604.854 261.539 604.854 260.499 604.754 259.459Z" fill="#194253"/>
<path d="M586.044 239.989C585.654 239.449 584.824 239.449 584.444 239.989C580.504 245.499 578.184 252.249 578.184 259.539C578.184 267.309 580.824 274.469 585.244 280.159C589.664 274.459 592.304 267.309 592.304 259.539C592.304 252.249 589.984 245.499 586.044 239.989Z" fill="white"/>
<path d="M585.243 282.72L584.003 281.12C579.163 274.89 576.613 267.42 576.613 259.53C576.613 252.15 578.883 245.07 583.163 239.07C583.643 238.4 584.413 238 585.243 238C586.073 238 586.843 238.4 587.323 239.07C591.613 245.07 593.873 252.14 593.873 259.53C593.873 267.42 591.313 274.879 586.483 281.109L585.243 282.71V282.72ZM585.243 241.579C581.643 246.899 579.743 253.089 579.743 259.539C579.743 265.989 581.633 272.19 585.243 277.5C588.843 272.19 590.743 266.019 590.743 259.539C590.743 253.059 588.843 246.899 585.243 241.579Z" fill="#194253"/>
<path d="M560.814 277.449C557.594 282.329 555.794 288.239 556.014 294.569C556.524 309.469 568.504 321.809 583.384 322.729C600.384 323.779 614.494 310.309 614.494 293.539C614.494 287.479 612.654 281.859 609.494 277.189C607.674 274.499 604.574 272.959 601.324 272.959H569.174C565.814 272.959 562.674 274.649 560.814 277.449Z" fill="white"/>
<path d="M610.794 276.31C608.714 273.23 605.174 271.39 601.324 271.39H569.174C565.274 271.39 561.654 273.33 559.514 276.59C555.984 281.94 554.224 288.18 554.454 294.63C554.994 310.3 567.664 323.33 583.294 324.3C583.954 324.34 584.624 324.36 585.274 324.36C593.154 324.36 600.574 321.43 606.354 316C612.524 310.2 616.064 302.01 616.064 293.54C616.064 287.37 614.244 281.41 610.794 276.31ZM562.124 278.31C563.694 275.94 566.324 274.52 569.174 274.52H601.324C604.124 274.52 606.694 275.84 608.194 278.06C610.494 281.46 611.984 285.29 612.594 289.31C610.624 289.89 609.414 291.32 608.404 292.53C607.144 294.04 606.354 294.89 604.734 294.89C603.114 294.89 602.324 294.04 601.064 292.53C599.764 290.98 598.154 289.04 594.984 289.04C591.814 289.04 590.204 290.97 588.904 292.53C587.644 294.04 586.854 294.89 585.234 294.89C583.614 294.89 582.814 294.04 581.564 292.53C580.274 290.98 578.654 289.04 575.484 289.04C572.314 289.04 570.704 290.98 569.404 292.53C568.144 294.04 567.364 294.89 565.734 294.89C564.104 294.89 563.324 294.04 562.064 292.53C561.064 291.32 559.854 289.9 557.894 289.32C558.494 285.4 559.904 281.66 562.114 278.31H562.124ZM604.194 313.71C598.574 319 591.224 321.65 583.474 321.16C569.434 320.29 558.064 308.58 557.574 294.51C557.554 293.86 557.554 293.2 557.574 292.56C558.284 292.95 558.884 293.62 559.644 294.54C560.934 296.09 562.554 298.03 565.724 298.03C568.894 298.03 570.504 296.1 571.804 294.54C573.064 293.03 573.854 292.18 575.474 292.18C577.094 292.18 577.884 293.03 579.144 294.54C580.434 296.09 582.054 298.03 585.224 298.03C588.394 298.03 590.004 296.1 591.304 294.54C592.564 293.03 593.354 292.18 594.974 292.18C596.594 292.18 597.394 293.03 598.644 294.54C599.944 296.09 601.554 298.03 604.724 298.03C607.894 298.03 609.514 296.1 610.804 294.54C611.564 293.62 612.164 292.95 612.874 292.57C612.884 292.89 612.914 293.22 612.914 293.54C612.914 301.26 609.814 308.42 604.184 313.71H604.194Z" fill="#194253"/>
<path d="M604.742 292.18C605.609 292.18 606.312 291.477 606.312 290.61C606.312 289.742 605.609 289.04 604.742 289.04C603.875 289.04 603.172 289.742 603.172 290.61C603.172 291.477 603.875 292.18 604.742 292.18Z" fill="#194253"/>
<path d="M594.992 298.03C595.859 298.03 596.562 297.327 596.562 296.46C596.562 295.593 595.859 294.89 594.992 294.89C594.125 294.89 593.422 295.593 593.422 296.46C593.422 297.327 594.125 298.03 594.992 298.03Z" fill="#194253"/>
<path d="M585.242 292.18C586.109 292.18 586.812 291.477 586.812 290.61C586.812 289.742 586.109 289.04 585.242 289.04C584.375 289.04 583.672 289.742 583.672 290.61C583.672 291.477 584.375 292.18 585.242 292.18Z" fill="#194253"/>
<path d="M575.492 298.03C576.359 298.03 577.062 297.327 577.062 296.46C577.062 295.593 576.359 294.89 575.492 294.89C574.625 294.89 573.922 295.593 573.922 296.46C573.922 297.327 574.625 298.03 575.492 298.03Z" fill="#194253"/>
<path d="M565.742 292.18C566.609 292.18 567.312 291.477 567.312 290.61C567.312 289.742 566.609 289.04 565.742 289.04C564.875 289.04 564.172 289.742 564.172 290.61C564.172 291.477 564.875 292.18 565.742 292.18Z" fill="#194253"/>
<path d="M159.851 57.9598C158.981 57.9598 158.281 57.2598 158.281 56.3898V46.3898C158.281 45.5198 158.981 44.8198 159.851 44.8198C160.721 44.8198 161.421 45.5198 161.421 46.3898V56.3898C161.421 57.2598 160.721 57.9598 159.851 57.9598Z" fill="#194253"/>
<path d="M146.161 63.6299C145.761 63.6299 145.361 63.4799 145.051 63.1699L137.981 56.0999C137.371 55.4899 137.371 54.4899 137.981 53.8799C138.591 53.2699 139.591 53.2699 140.201 53.8799L147.271 60.9499C147.881 61.5599 147.881 62.5599 147.271 63.1699C146.961 63.4799 146.561 63.6299 146.161 63.6299Z" fill="#194253"/>
<path d="M140.492 77.3197H130.492C129.622 77.3197 128.922 76.6197 128.922 75.7497C128.922 74.8797 129.622 74.1797 130.492 74.1797H140.492C141.362 74.1797 142.062 74.8797 142.062 75.7497C142.062 76.6197 141.362 77.3197 140.492 77.3197Z" fill="#194253"/>
<path d="M53.543 238.149L62.163 322.789H101.373L109.993 238.149H53.543Z" fill="white"/>
<path d="M102.785 324.36H60.7447L51.8047 236.58H111.725L102.785 324.36ZM63.5847 321.22H99.9547L108.255 239.72H55.2747L63.5747 321.22H63.5847Z" fill="#194253"/>
<path d="M111.652 227.98C111.412 227.12 110.622 226.52 109.722 226.52H53.812C52.912 226.52 52.132 227.12 51.882 227.98L49.752 235.61C49.392 236.89 50.352 238.15 51.682 238.15H111.862C113.182 238.15 114.142 236.89 113.792 235.61L111.662 227.98H111.652Z" fill="white"/>
<path d="M111.853 239.72H51.6733C50.5433 239.72 49.5133 239.21 48.8333 238.31C48.1533 237.41 47.9333 236.28 48.2433 235.19L50.3733 227.56C50.8033 226.02 52.2133 224.95 53.8133 224.95H109.723C111.313 224.95 112.733 226.02 113.163 227.56L115.293 235.19C115.593 236.27 115.383 237.41 114.703 238.31C114.023 239.21 112.983 239.72 111.863 239.72H111.853ZM53.8133 228.09C53.6233 228.09 53.4533 228.22 53.3933 228.41L51.2633 236.04C51.2133 236.22 51.2833 236.35 51.3333 236.42C51.3833 236.48 51.4933 236.59 51.6733 236.59H111.853C112.043 236.59 112.153 236.48 112.193 236.42C112.243 236.36 112.313 236.22 112.263 236.04L110.133 228.41C110.083 228.22 109.913 228.09 109.713 228.09H53.8033H53.8133Z" fill="#194253"/>
<path d="M58.323 220.149L56.543 226.519H106.993L105.213 220.149C104.973 219.289 104.183 218.689 103.283 218.689H60.253C59.353 218.689 58.573 219.289 58.323 220.149Z" fill="white"/>
<path d="M109.053 228.09H54.4727L56.8127 219.73C57.2427 218.2 58.6527 217.12 60.2527 217.12H103.283C104.873 217.12 106.293 218.19 106.723 219.73L109.063 228.09H109.053ZM58.6127 224.95H104.923L103.693 220.57C103.643 220.38 103.473 220.26 103.273 220.26H60.2427C60.0527 220.26 59.8827 220.39 59.8227 220.58L58.6027 224.96L58.6127 224.95Z" fill="#194253"/>
<path d="M53.7822 263.05L57.4622 299.21C57.5622 300.23 58.4222 301.01 59.4522 301.01H104.072C105.102 301.01 105.962 300.23 106.062 299.21L109.742 263.05C109.862 261.87 108.932 260.85 107.752 260.85H55.7622C54.5822 260.85 53.6522 261.87 53.7722 263.05H53.7822Z" fill="white"/>
<path d="M104.082 302.58H59.4624C57.6224 302.58 56.1024 301.2 55.9124 299.37L52.2324 263.21C52.1324 262.21 52.4624 261.2 53.1324 260.46C53.8124 259.71 54.7724 259.28 55.7824 259.28H107.772C108.782 259.28 109.742 259.71 110.422 260.46C111.102 261.21 111.422 262.21 111.322 263.21L107.642 299.37C107.452 301.2 105.932 302.58 104.092 302.58H104.082ZM55.7724 262.41C55.6124 262.41 55.5124 262.49 55.4524 262.55C55.3924 262.61 55.3224 262.73 55.3424 262.88L59.0224 299.04C59.0424 299.26 59.2324 299.43 59.4524 299.43H104.072C104.292 299.43 104.482 299.26 104.502 299.04L108.182 262.88C108.202 262.71 108.122 262.6 108.072 262.55C108.012 262.49 107.912 262.41 107.752 262.41H55.7624H55.7724Z" fill="#194253"/>
<path d="M59.9414 300.009H103.591L102.941 305.679L60.3214 303.479L59.9414 300.009Z" fill="#194253"/>
<path d="M53.543 238.149L53.903 240.929L109.293 243.479L109.993 238.149H53.543Z" fill="#194253"/>
<rect opacity="0.6" x="193" y="126" width="260" height="72" rx="36" fill="#008CBF"/>
<path d="M459 203.5L462.5 215L445.5 221L427.5 224.5L423.5 211.5L421 208L405.5 200.5L401 193L404 188L418 193L407 157L413.5 154L421 171L423.5 169.5L434 171H442L448 169.5L456.5 193L459 203.5Z" fill="white"/>
<path d="M464.785 211.984L461.956 203.467C461.556 202.267 460.663 201.368 459.574 200.919C460.055 198.216 460.293 193.508 457.525 185.172L455.24 178.294C458.849 172.476 460.753 165.8 460.753 158.906C460.753 149.05 456.91 139.782 449.925 132.81C442.941 125.836 433.658 122 423.784 122H230.973C210.586 122 194 138.555 194 158.902C194 168.761 197.847 178.026 204.831 184.997C211.813 191.965 221.099 195.805 230.973 195.805H398.762C400.939 200.382 406.912 203.36 412.694 206.237C416.611 208.185 420.952 210.348 422.971 212.632C422.088 213.708 421.755 215.193 422.225 216.608L425.054 225.126C425.407 226.189 426.153 227.051 427.157 227.554C427.752 227.852 428.394 228.003 429.039 228.003C429.482 228.003 429.929 227.932 430.366 227.788L462.124 217.282C464.321 216.555 465.517 214.181 464.788 211.984H464.785ZM208.393 181.443C202.362 175.42 199.039 167.416 199.039 158.902C199.039 141.328 213.365 127.029 230.973 127.029H423.784C432.311 127.029 440.33 130.346 446.364 136.362C452.395 142.384 455.714 150.388 455.714 158.902C455.714 163.352 454.793 167.694 453.03 171.705C451.639 168.251 447.755 166.363 444.154 167.483C443.095 167.812 442.155 168.375 441.368 169.116C440.834 168.593 440.219 168.147 439.534 167.802C437.801 166.933 435.835 166.789 433.994 167.399C432.993 167.731 432.116 168.261 431.384 168.928C429.502 167.02 426.63 166.226 423.919 167.121C423.183 167.362 422.514 167.715 421.923 168.147L418.053 156.488C416.793 152.695 412.677 150.633 408.878 151.891C407.037 152.501 405.545 153.788 404.675 155.515C403.805 157.246 403.66 159.207 404.272 161.045L413.285 188.186C412.126 187.526 411.028 186.915 410.248 186.526C407.89 185.343 403.462 183.8 400.327 186.764C399.202 187.831 398.53 189.283 398.241 190.775H230.973C222.443 190.775 214.423 187.462 208.393 181.443ZM414.945 201.737C410.094 199.322 404.594 196.586 403.257 193.528C403.203 193.407 403.163 193.24 403.136 193.045C403.136 193.035 403.136 193.028 403.136 193.018C403.039 192.224 403.186 190.99 403.791 190.419C404.436 189.809 406.005 190.034 407.984 191.026C409.845 191.959 413.957 194.4 415.688 195.436L415.822 195.838C416.171 196.895 417.156 197.562 418.214 197.562C418.476 197.562 418.745 197.522 419.007 197.435C420.327 196.999 421.043 195.573 420.606 194.256L409.056 159.466C408.868 158.906 408.915 158.302 409.18 157.775C409.445 157.246 409.902 156.853 410.467 156.666C411.626 156.283 412.886 156.91 413.272 158.071L419.316 176.272C419.316 176.272 419.316 176.275 419.316 176.279L422.017 184.414C422.057 184.531 422.104 184.642 422.162 184.752C422.172 184.776 422.185 184.799 422.199 184.823C422.256 184.927 422.316 185.024 422.383 185.115C422.397 185.131 422.41 185.145 422.42 185.162C422.484 185.242 422.551 185.323 422.625 185.393C422.639 185.406 422.652 185.423 422.665 185.437C422.746 185.514 422.833 185.587 422.924 185.651C422.944 185.665 422.965 185.681 422.985 185.695C423.079 185.758 423.176 185.819 423.28 185.872C423.384 185.923 423.492 185.966 423.599 186.003C423.623 186.01 423.643 186.02 423.667 186.027C423.774 186.06 423.885 186.087 423.999 186.107C424.016 186.107 424.033 186.111 424.053 186.114C424.161 186.131 424.268 186.137 424.376 186.141C424.386 186.141 424.399 186.141 424.409 186.141C424.412 186.141 424.419 186.141 424.423 186.141C424.537 186.141 424.654 186.131 424.772 186.114C424.795 186.111 424.822 186.107 424.846 186.101C424.963 186.08 425.084 186.054 425.202 186.013C426.522 185.577 427.238 184.152 426.801 182.834L424.097 174.693C423.717 173.536 424.345 172.282 425.508 171.899C426.67 171.517 427.927 172.144 428.313 173.304L429.391 176.557L431.014 181.439C431.054 181.557 431.101 181.667 431.159 181.778C431.169 181.802 431.182 181.825 431.192 181.845C431.249 181.949 431.31 182.046 431.377 182.14C431.387 182.157 431.4 182.17 431.414 182.184C431.478 182.268 431.548 182.345 431.622 182.419C431.636 182.432 431.646 182.445 431.659 182.459C431.74 182.536 431.831 182.61 431.921 182.677C431.941 182.69 431.962 182.704 431.978 182.717C432.17 182.848 432.378 182.952 432.597 183.026C432.617 183.032 432.64 183.039 432.66 183.046C432.768 183.079 432.882 183.106 432.993 183.126C433.01 183.126 433.027 183.13 433.043 183.133C433.151 183.15 433.258 183.156 433.366 183.16C433.376 183.16 433.389 183.16 433.399 183.16C433.403 183.16 433.41 183.16 433.413 183.16C433.527 183.16 433.645 183.15 433.762 183.133C433.786 183.13 433.813 183.126 433.836 183.119C433.954 183.099 434.075 183.072 434.192 183.032C435.513 182.596 436.228 181.171 435.792 179.853L434.169 174.968C433.786 173.807 434.417 172.553 435.576 172.171C436.141 171.983 436.742 172.03 437.27 172.295C437.801 172.56 438.194 173.016 438.382 173.579L440.004 178.462C440.25 179.203 440.811 179.753 441.486 180.018C442.014 180.222 442.612 180.252 443.189 180.058C444.51 179.622 445.225 178.197 444.789 176.879L444.227 175.186C444.033 174.595 444.083 173.935 444.372 173.372C444.647 172.838 445.098 172.453 445.649 172.282C446.794 171.926 448.034 172.563 448.41 173.7L452.741 186.748C455.691 195.63 454.81 199.322 454.337 201.304C454.313 201.398 454.293 201.492 454.269 201.586L427.614 210.402C425.165 206.82 420.176 204.336 414.942 201.73L414.945 201.737ZM429.573 222.748L427.272 215.82L457.434 205.841L459.735 212.769L429.573 222.748Z" fill="#290562"/>
<path d="M404.498 146.72C404.848 147.776 405.832 148.443 406.89 148.443C407.152 148.443 407.421 148.403 407.683 148.316C409.003 147.88 409.719 146.455 409.282 145.137L406.947 138.109C406.511 136.791 405.086 136.073 403.762 136.512C402.442 136.948 401.727 138.374 402.163 139.691L404.498 146.72Z" fill="#231F20"/>
<path d="M420.155 154.567C420.505 155.623 421.489 156.29 422.548 156.29C422.81 156.29 423.078 156.25 423.34 156.163L430.382 153.832C431.702 153.396 432.418 151.971 431.981 150.653C431.545 149.335 430.12 148.621 428.796 149.057L421.755 151.388C420.434 151.824 419.719 153.249 420.155 154.567Z" fill="#231F20"/>
<path d="M399.824 163.942C401.144 163.506 401.86 162.081 401.423 160.763C400.986 159.445 399.562 158.731 398.238 159.167L391.196 161.497C389.876 161.933 389.16 163.359 389.597 164.676C389.946 165.733 390.931 166.4 391.989 166.4C392.251 166.4 392.52 166.36 392.782 166.273L399.824 163.942Z" fill="#231F20"/>
<path d="M415.215 148.866C415.578 149.047 415.964 149.134 416.344 149.134C417.268 149.134 418.155 148.628 418.598 147.746L421.928 141.127C422.553 139.886 422.052 138.374 420.806 137.75C419.563 137.126 418.047 137.626 417.423 138.87L414.093 145.489C413.468 146.73 413.969 148.242 415.215 148.866Z" fill="#231F20"/>
<path d="M391.961 151.042L398.59 154.365C398.953 154.546 399.339 154.633 399.719 154.633C400.643 154.633 401.53 154.127 401.973 153.245C402.598 152.004 402.097 150.492 400.851 149.868L394.222 146.545C392.979 145.922 391.464 146.421 390.839 147.665C390.214 148.906 390.715 150.418 391.961 151.042Z" fill="#231F20"/>
<path d="M232.5 181C244.926 181 255 170.926 255 158.5C255 146.073 244.926 136 232.5 136C220.074 136 210 146.073 210 158.5C210 170.926 220.074 181 232.5 181Z" fill="#290562"/>
<path d="M241.984 160.204L242.336 159.853L241.986 159.499L240.565 158.064L240.211 157.707L239.856 158.062L234.022 163.896V146.658V146.158H233.522H231.488H230.988V146.658V163.896L225.152 158.06L224.797 157.705L224.443 158.061L223.017 159.496L222.665 159.849L223.017 160.202L232.149 169.342L232.503 169.696L232.856 169.342L241.984 160.204Z" fill="white" stroke="white"/>
<path d="M275.306 166L277.21 154.015H281.953C283.517 154.015 284.775 154.281 285.727 154.814C286.69 155.335 287.353 156.072 287.716 157.024C288.09 157.964 288.175 159.069 287.971 160.339C287.676 162.209 286.889 163.62 285.608 164.572C284.339 165.524 282.656 166 280.559 166H275.306ZM279.454 163.042H280.644C281.755 163.042 282.61 162.804 283.211 162.328C283.823 161.852 284.203 161.16 284.35 160.254C284.531 159.086 284.39 158.248 283.925 157.738C283.472 157.228 282.678 156.973 281.545 156.973H280.406L279.454 163.042ZM289.467 159.659C289.66 158.423 290.062 157.369 290.674 156.497C291.286 155.624 292.063 154.961 293.003 154.508C293.955 154.043 295.032 153.811 296.233 153.811C297.639 153.811 298.783 154.1 299.667 154.678C300.563 155.244 301.192 156.021 301.554 157.007C301.917 157.993 301.996 159.103 301.792 160.339C301.6 161.574 301.197 162.628 300.585 163.501C299.973 164.373 299.191 165.042 298.239 165.507C297.299 165.971 296.222 166.204 295.009 166.204C293.615 166.204 292.471 165.915 291.575 165.337C290.691 164.759 290.068 163.977 289.705 162.991C289.354 161.993 289.275 160.883 289.467 159.659ZM293.275 159.829C293.162 160.543 293.162 161.149 293.275 161.648C293.4 162.146 293.632 162.526 293.972 162.787C294.324 163.036 294.771 163.161 295.315 163.161C296.086 163.161 296.687 162.889 297.117 162.345C297.559 161.789 297.848 161.064 297.984 160.169C298.098 159.455 298.092 158.854 297.967 158.367C297.843 157.868 297.605 157.494 297.253 157.245C296.913 156.984 296.466 156.854 295.91 156.854C295.14 156.854 294.545 157.126 294.125 157.67C293.706 158.202 293.423 158.922 293.275 159.829ZM305.735 166L303.321 154.015H306.976L308.234 162.022H307.401L311.566 154.015H314.167L315.459 162.022H314.66L318.723 154.015H322.378L316.139 166H313.232L311.889 158.996H312.28L308.659 166H305.735ZM321.591 166L323.495 154.015H326.181L330.669 160.968L330.142 160.73L331.213 154.015H334.63L332.726 166H330.04L325.569 159.047L326.096 159.285L325.025 166H321.591ZM334.706 166L336.61 154.015H340.282L338.854 162.974H343.716L343.24 166H334.706ZM344.734 159.659C344.927 158.423 345.329 157.369 345.941 156.497C346.553 155.624 347.329 154.961 348.27 154.508C349.222 154.043 350.299 153.811 351.5 153.811C352.905 153.811 354.05 154.1 354.934 154.678C355.829 155.244 356.458 156.021 356.821 157.007C357.184 157.993 357.263 159.103 357.059 160.339C356.866 161.574 356.464 162.628 355.852 163.501C355.24 164.373 354.458 165.042 353.506 165.507C352.565 165.971 351.489 166.204 350.276 166.204C348.882 166.204 347.737 165.915 346.842 165.337C345.958 164.759 345.335 163.977 344.972 162.991C344.621 161.993 344.541 160.883 344.734 159.659ZM348.542 159.829C348.429 160.543 348.429 161.149 348.542 161.648C348.667 162.146 348.899 162.526 349.239 162.787C349.59 163.036 350.038 163.161 350.582 163.161C351.353 163.161 351.953 162.889 352.384 162.345C352.826 161.789 353.115 161.064 353.251 160.169C353.364 159.455 353.359 158.854 353.234 158.367C353.109 157.868 352.871 157.494 352.52 157.245C352.18 156.984 351.732 156.854 351.177 156.854C350.406 156.854 349.811 157.126 349.392 157.67C348.973 158.202 348.689 158.922 348.542 159.829ZM355.97 166L363.569 154.015H366.544L370.369 166H366.816L365.898 162.753L367.122 163.773H360.169L361.682 162.753L359.744 166H355.97ZM364.572 157.755L362.158 161.954L361.801 161.002H366.374L365.762 161.954L364.657 157.755H364.572ZM370.782 166L372.686 154.015H377.429C378.993 154.015 380.251 154.281 381.203 154.814C382.166 155.335 382.829 156.072 383.192 157.024C383.566 157.964 383.651 159.069 383.447 160.339C383.152 162.209 382.364 163.62 381.084 164.572C379.814 165.524 378.131 166 376.035 166H370.782ZM374.93 163.042H376.12C377.23 163.042 378.086 162.804 378.687 162.328C379.299 161.852 379.678 161.16 379.826 160.254C380.007 159.086 379.865 158.248 379.401 157.738C378.947 157.228 378.154 156.973 377.021 156.973H375.882L374.93 163.042Z" fill="black"/>
<path d="M196.855 191.86C190.03 191.86 185.81 185.417 185.719 174.86C185.801 185.408 181.681 191.86 174.855 191.86C181.681 191.86 185.801 198.304 185.719 208.86C185.801 198.313 190.021 191.86 196.855 191.86Z" fill="#DAD4E4"/>
<path d="M433 116C426.175 116 421.955 109.556 421.864 98.9995C421.946 109.547 417.825 116 411 116C417.825 116 421.946 122.443 421.864 133C421.946 122.452 426.166 116 433 116Z" fill="#DAD4E4"/>
<path d="M234 203C229.657 203 226.971 198.83 226.913 192C226.965 198.824 224.343 203 220 203C224.343 203 226.965 207.169 226.913 214C226.965 207.175 229.651 203 234 203Z" fill="#DAD4E4"/>
<path d="M211 220C209.139 220 207.988 218.104 207.963 215C207.985 218.102 206.861 220 205 220C206.861 220 207.985 221.895 207.963 225C207.985 221.897 209.136 220 211 220Z" fill="#DAD4E4"/>
<path d="M465 149C462.208 149 460.481 146.346 460.444 142C460.478 146.343 458.792 149 456 149C458.792 149 460.478 151.653 460.444 156C460.478 151.656 462.204 149 465 149Z" fill="#DAD4E4"/>
<path d="M453 122C451.139 122 449.988 120.104 449.963 117C449.985 120.102 448.861 122 447 122C448.861 122 449.985 123.895 449.963 127C449.985 123.897 451.136 122 453 122Z" fill="#DAD4E4"/>
<path d="M477 129C472.657 129 469.971 124.83 469.913 118C469.965 124.824 467.343 129 463 129C467.343 129 469.965 133.169 469.913 140C469.965 133.175 472.651 129 477 129Z" fill="#DAD4E4"/>
</g>
<defs>
<clipPath id="clip0_1370_157229">
<rect width="660.95" height="324.18" fill="white" transform="translate(0.523438 0.179688)"/>
</clipPath>
</defs>
</svg>
