<svg width="662" height="325" viewBox="0 0 662 325" fill="none" xmlns="http://www.w3.org/2000/svg">
<g clip-path="url(#clip0_1370_157661)">
<path d="M569.182 313.37C580.862 299.22 587.542 280.55 585.442 262.31C583.342 244.08 571.812 226.75 554.962 219.49C537.282 211.87 516.782 215.75 498.672 222.28C473.122 231.49 449.152 240.54 422.302 245.41C400.912 249.29 385.102 245.18 374.052 225.22C343.782 170.56 524.142 0.359863 313.822 0.359863C228.572 0.359863 47.2617 29.4799 47.2617 220.8C47.2617 264.83 58.8917 297.72 76.8617 322.69H560.072C563.312 319.88 566.362 316.79 569.182 313.37Z" fill="#D9ECF2"/>
<path d="M522.991 129.03C557.84 129.03 586.091 100.779 586.091 65.9301C586.091 31.0809 557.84 2.83008 522.991 2.83008C488.141 2.83008 459.891 31.0809 459.891 65.9301C459.891 100.779 488.141 129.03 522.991 129.03Z" fill="#D9ECF2"/>
<path d="M659.903 324.539H2.09344C1.22344 324.539 0.523438 323.839 0.523438 322.969C0.523438 322.099 1.22344 321.399 2.09344 321.399H659.903C660.773 321.399 661.473 322.099 661.473 322.969C661.473 323.839 660.773 324.539 659.903 324.539Z" fill="#194253"/>
<path fill-rule="evenodd" clip-rule="evenodd" d="M286.383 322.97L288.543 320.39C292.513 315.65 294.913 309.88 295.483 303.72L298.313 272.66H363.673L366.503 303.72C367.063 309.88 369.463 315.65 373.443 320.39L375.603 322.97H286.383Z" fill="white"/>
<path d="M362.243 274.23L364.943 303.86C365.533 310.31 368.073 316.43 372.243 321.4H289.743C293.903 316.43 296.453 310.32 297.043 303.86L299.743 274.23H362.243ZM365.113 271.09H296.883L296.623 273.94L293.923 303.57C293.393 309.41 291.113 314.88 287.343 319.38L283.023 324.53H378.963L374.643 319.38C370.873 314.88 368.603 309.42 368.063 303.57L365.363 273.94L365.103 271.09H365.113Z" fill="#194253"/>
<path fill-rule="evenodd" clip-rule="evenodd" d="M297.742 280.34V285.61L365.352 288.14V280.34H297.742Z" fill="#194253"/>
<path d="M357.412 314.089H304.582C303.712 314.089 303.012 313.389 303.012 312.519C303.012 311.649 303.712 310.949 304.582 310.949H357.412C358.282 310.949 358.982 311.649 358.982 312.519C358.982 313.389 358.282 314.089 357.412 314.089Z" fill="#194253"/>
<path d="M502.142 67.4995H159.852C155.196 67.4995 151.422 71.2738 151.422 75.9295V271.35C151.422 276.005 155.196 279.78 159.852 279.78H502.142C506.798 279.78 510.572 276.005 510.572 271.35V75.9295C510.572 71.2738 506.798 67.4995 502.142 67.4995Z" fill="white"/>
<path d="M502.142 65.9297H159.852C154.332 65.9297 149.852 70.4097 149.852 75.9297V271.34C149.852 276.86 154.332 281.34 159.852 281.34H502.132C507.652 281.34 512.132 276.86 512.132 271.34V75.9297C512.132 70.4097 507.652 65.9297 502.132 65.9297H502.142ZM159.852 69.0697H502.132C505.912 69.0697 508.992 72.1497 508.992 75.9297V247.99H152.992V75.9297C152.992 72.1497 156.072 69.0697 159.852 69.0697ZM502.142 278.21H159.852C156.072 278.21 152.992 275.13 152.992 271.35V251.13H509.002V271.35C509.002 275.13 505.922 278.21 502.142 278.21Z" fill="#194253"/>
<path d="M330.992 269.66C333.754 269.66 335.992 267.421 335.992 264.66C335.992 261.898 333.754 259.66 330.992 259.66C328.231 259.66 325.992 261.898 325.992 264.66C325.992 267.421 328.231 269.66 330.992 269.66Z" fill="#194253"/>
<path d="M426.92 309.239C424.65 309.509 422.91 312.129 422.91 315.269V320.879C422.91 322.039 423.59 322.979 424.43 322.979H463.8C464.64 322.979 465.32 322.039 465.32 320.879V315.269C465.32 312.129 463.58 309.519 461.31 309.239C449.86 307.869 438.35 307.869 426.91 309.239H426.92Z" fill="white"/>
<path d="M463.812 324.54H424.442C422.712 324.54 421.352 322.93 421.352 320.87V315.26C421.352 311.31 423.672 308.05 426.742 307.68C438.282 306.3 449.982 306.3 461.512 307.68C464.582 308.05 466.902 311.31 466.902 315.26V320.87C466.902 322.93 465.542 324.54 463.812 324.54ZM424.602 321.4H463.632C463.692 321.31 463.752 321.12 463.752 320.87V315.26C463.752 312.97 462.572 310.96 461.122 310.79C449.832 309.44 438.382 309.44 427.092 310.79C425.642 310.96 424.462 312.97 424.462 315.26V320.87C424.462 321.12 424.532 321.31 424.582 321.4H424.602Z" fill="#194253"/>
<path d="M571.106 247.69C570.586 247.52 569.996 247.77 569.826 248.3C569.286 249.93 568.996 251.67 568.996 253.49C568.996 261.25 574.286 267.76 581.446 269.66C582.186 267.77 582.606 265.73 582.606 263.58C582.606 256.17 577.786 249.9 571.116 247.69H571.106Z" fill="white"/>
<path d="M582.396 271.53L581.046 271.17C573.026 269.04 567.426 261.77 567.426 253.48C567.426 251.56 567.736 249.65 568.336 247.8C568.546 247.16 568.996 246.64 569.596 246.34C570.206 246.03 570.936 245.98 571.596 246.19C579.116 248.68 584.166 255.66 584.166 263.57C584.166 265.83 583.736 268.07 582.906 270.22L582.396 271.52V271.53ZM571.136 249.36C570.756 250.71 570.556 252.09 570.556 253.48C570.556 259.86 574.556 265.51 580.446 267.69C580.836 266.34 581.026 264.96 581.026 263.57C581.026 257.21 577.076 251.56 571.136 249.36Z" fill="#194253"/>
<path d="M565.276 258.03C564.766 258 564.316 258.37 564.246 258.87C564.066 260.19 564.036 261.54 564.186 262.92C565.096 271.45 572.256 277.78 580.616 277.88C580.916 276.29 581.006 274.64 580.816 272.95C579.936 264.73 573.246 258.55 565.266 258.02L565.276 258.03Z" fill="white"/>
<path d="M581.904 279.469L580.594 279.449C571.334 279.339 563.604 272.3 562.614 263.09C562.454 261.62 562.484 260.129 562.684 258.659C562.864 257.339 564.044 256.369 565.374 256.469C574.274 257.049 581.424 263.919 582.374 272.789C582.564 274.579 582.494 276.4 582.154 278.18L581.904 279.469ZM565.724 259.64C565.624 260.68 565.624 261.719 565.734 262.759C566.504 269.939 572.204 275.52 579.264 276.24C579.364 275.2 579.364 274.16 579.254 273.12C578.484 265.95 572.844 260.36 565.724 259.64Z" fill="#194253"/>
<path d="M599.375 247.69C599.895 247.52 600.485 247.77 600.655 248.3C601.195 249.93 601.485 251.67 601.485 253.49C601.485 261.25 596.195 267.76 589.035 269.66C588.295 267.77 587.875 265.73 587.875 263.58C587.875 256.17 592.695 249.9 599.365 247.69H599.375Z" fill="white"/>
<path d="M588.094 271.53L587.584 270.23C586.744 268.08 586.324 265.85 586.324 263.58C586.324 255.67 591.374 248.69 598.894 246.2C600.254 245.75 601.714 246.47 602.154 247.8C602.764 249.65 603.064 251.56 603.064 253.48C603.064 261.77 597.464 269.04 589.444 271.17L588.094 271.53ZM599.344 249.36C593.404 251.57 589.454 257.21 589.454 263.57C589.454 264.96 589.644 266.34 590.034 267.69C595.924 265.5 599.924 259.85 599.924 253.48C599.924 252.09 599.734 250.71 599.344 249.36Z" fill="#194253"/>
<path d="M605.206 258.03C605.716 258 606.166 258.37 606.236 258.87C606.416 260.19 606.446 261.54 606.296 262.92C605.386 271.45 598.226 277.78 589.866 277.88C589.566 276.29 589.476 274.64 589.666 272.95C590.546 264.73 597.236 258.55 605.216 258.02L605.206 258.03Z" fill="white"/>
<path d="M588.574 279.47L588.324 278.18C587.984 276.4 587.904 274.59 588.104 272.79C589.054 263.91 596.204 257.05 605.104 256.47C606.414 256.38 607.614 257.35 607.794 258.67C607.994 260.13 608.014 261.63 607.864 263.1C606.874 272.32 599.154 279.35 589.884 279.46L588.574 279.48V279.47ZM604.754 259.64C597.634 260.36 591.984 265.95 591.224 273.12C591.114 274.16 591.114 275.2 591.214 276.24C598.274 275.52 603.974 269.94 604.744 262.76C604.854 261.72 604.854 260.68 604.754 259.64Z" fill="#194253"/>
<path d="M586.044 240.17C585.654 239.63 584.824 239.63 584.444 240.17C580.504 245.68 578.184 252.43 578.184 259.72C578.184 267.49 580.824 274.65 585.244 280.34C589.664 274.64 592.304 267.49 592.304 259.72C592.304 252.43 589.984 245.68 586.044 240.17Z" fill="white"/>
<path d="M585.243 282.9L584.003 281.3C579.163 275.07 576.613 267.6 576.613 259.71C576.613 252.33 578.883 245.25 583.163 239.25C583.643 238.58 584.413 238.18 585.243 238.18C586.073 238.18 586.843 238.58 587.323 239.25C591.613 245.25 593.873 252.32 593.873 259.71C593.873 267.6 591.313 275.06 586.483 281.29L585.243 282.89V282.9ZM585.243 241.76C581.643 247.08 579.743 253.27 579.743 259.72C579.743 266.17 581.633 272.37 585.243 277.68C588.843 272.37 590.743 266.2 590.743 259.72C590.743 253.24 588.843 247.08 585.243 241.76Z" fill="#194253"/>
<path d="M560.814 277.63C557.594 282.51 555.794 288.42 556.014 294.75C556.524 309.65 568.504 321.99 583.384 322.91C600.384 323.96 614.494 310.49 614.494 293.72C614.494 287.66 612.654 282.04 609.494 277.37C607.674 274.68 604.574 273.14 601.324 273.14H569.174C565.814 273.14 562.674 274.83 560.814 277.63Z" fill="white"/>
<path d="M610.794 276.49C608.714 273.41 605.174 271.57 601.324 271.57H569.174C565.274 271.57 561.654 273.51 559.514 276.77C555.984 282.12 554.224 288.36 554.454 294.81C554.994 310.48 567.664 323.51 583.294 324.48C583.954 324.52 584.624 324.54 585.274 324.54C593.154 324.54 600.574 321.61 606.354 316.18C612.524 310.38 616.064 302.19 616.064 293.72C616.064 287.55 614.244 281.59 610.794 276.49ZM562.124 278.49C563.694 276.12 566.324 274.7 569.174 274.7H601.324C604.124 274.7 606.694 276.02 608.194 278.24C610.494 281.64 611.984 285.47 612.594 289.49C610.624 290.07 609.414 291.5 608.404 292.71C607.144 294.22 606.354 295.07 604.734 295.07C603.114 295.07 602.324 294.22 601.064 292.71C599.764 291.16 598.154 289.22 594.984 289.22C591.814 289.22 590.204 291.15 588.904 292.71C587.644 294.22 586.854 295.07 585.234 295.07C583.614 295.07 582.814 294.22 581.564 292.71C580.274 291.16 578.654 289.22 575.484 289.22C572.314 289.22 570.704 291.16 569.404 292.71C568.144 294.22 567.364 295.07 565.734 295.07C564.104 295.07 563.324 294.22 562.064 292.71C561.064 291.5 559.854 290.08 557.894 289.5C558.494 285.58 559.904 281.84 562.114 278.49H562.124ZM604.194 313.89C598.574 319.18 591.224 321.83 583.474 321.34C569.434 320.47 558.064 308.76 557.574 294.69C557.554 294.04 557.554 293.38 557.574 292.74C558.284 293.13 558.884 293.8 559.644 294.72C560.934 296.27 562.554 298.21 565.724 298.21C568.894 298.21 570.504 296.28 571.804 294.72C573.064 293.21 573.854 292.36 575.474 292.36C577.094 292.36 577.884 293.21 579.144 294.72C580.434 296.27 582.054 298.21 585.224 298.21C588.394 298.21 590.004 296.28 591.304 294.72C592.564 293.21 593.354 292.36 594.974 292.36C596.594 292.36 597.394 293.21 598.644 294.72C599.944 296.27 601.554 298.21 604.724 298.21C607.894 298.21 609.514 296.28 610.804 294.72C611.564 293.8 612.164 293.13 612.874 292.75C612.884 293.07 612.914 293.4 612.914 293.72C612.914 301.44 609.814 308.6 604.184 313.89H604.194Z" fill="#194253"/>
<path d="M604.742 292.36C605.609 292.36 606.312 291.657 606.312 290.79C606.312 289.923 605.609 289.22 604.742 289.22C603.875 289.22 603.172 289.923 603.172 290.79C603.172 291.657 603.875 292.36 604.742 292.36Z" fill="#194253"/>
<path d="M594.992 298.21C595.859 298.21 596.562 297.507 596.562 296.64C596.562 295.773 595.859 295.07 594.992 295.07C594.125 295.07 593.422 295.773 593.422 296.64C593.422 297.507 594.125 298.21 594.992 298.21Z" fill="#194253"/>
<path d="M585.242 292.36C586.109 292.36 586.812 291.657 586.812 290.79C586.812 289.923 586.109 289.22 585.242 289.22C584.375 289.22 583.672 289.923 583.672 290.79C583.672 291.657 584.375 292.36 585.242 292.36Z" fill="#194253"/>
<path d="M575.492 298.21C576.359 298.21 577.062 297.507 577.062 296.64C577.062 295.773 576.359 295.07 575.492 295.07C574.625 295.07 573.922 295.773 573.922 296.64C573.922 297.507 574.625 298.21 575.492 298.21Z" fill="#194253"/>
<path d="M565.742 292.36C566.609 292.36 567.312 291.657 567.312 290.79C567.312 289.923 566.609 289.22 565.742 289.22C564.875 289.22 564.172 289.923 564.172 290.79C564.172 291.657 564.875 292.36 565.742 292.36Z" fill="#194253"/>
<path d="M159.851 58.14C158.981 58.14 158.281 57.44 158.281 56.57V46.57C158.281 45.7 158.981 45 159.851 45C160.721 45 161.421 45.7 161.421 46.57V56.57C161.421 57.44 160.721 58.14 159.851 58.14Z" fill="#194253"/>
<path d="M146.161 63.81C145.761 63.81 145.361 63.66 145.051 63.35L137.981 56.28C137.371 55.67 137.371 54.67 137.981 54.06C138.591 53.45 139.591 53.45 140.201 54.06L147.271 61.13C147.881 61.74 147.881 62.74 147.271 63.35C146.961 63.66 146.561 63.81 146.161 63.81Z" fill="#194253"/>
<path d="M140.492 77.4999H130.492C129.622 77.4999 128.922 76.7999 128.922 75.9299C128.922 75.0599 129.622 74.3599 130.492 74.3599H140.492C141.362 74.3599 142.062 75.0599 142.062 75.9299C142.062 76.7999 141.362 77.4999 140.492 77.4999Z" fill="#194253"/>
<path d="M53.543 238.33L62.163 322.97H101.373L109.993 238.33H53.543Z" fill="white"/>
<path d="M102.785 324.54H60.7447L51.8047 236.76H111.725L102.785 324.54ZM63.5847 321.4H99.9547L108.255 239.9H55.2747L63.5747 321.4H63.5847Z" fill="#194253"/>
<path d="M111.652 228.16C111.412 227.3 110.622 226.7 109.722 226.7H53.812C52.912 226.7 52.132 227.3 51.882 228.16L49.752 235.79C49.392 237.07 50.352 238.33 51.682 238.33H111.862C113.182 238.33 114.142 237.07 113.792 235.79L111.662 228.16H111.652Z" fill="white"/>
<path d="M111.853 239.9H51.6733C50.5433 239.9 49.5133 239.39 48.8333 238.49C48.1533 237.59 47.9333 236.46 48.2433 235.37L50.3733 227.74C50.8033 226.2 52.2133 225.13 53.8133 225.13H109.723C111.313 225.13 112.733 226.2 113.163 227.74L115.293 235.37C115.593 236.45 115.383 237.59 114.703 238.49C114.023 239.39 112.983 239.9 111.863 239.9H111.853ZM53.8133 228.27C53.6233 228.27 53.4533 228.4 53.3933 228.59L51.2633 236.22C51.2133 236.4 51.2833 236.53 51.3333 236.6C51.3833 236.66 51.4933 236.77 51.6733 236.77H111.853C112.043 236.77 112.153 236.66 112.193 236.6C112.243 236.54 112.313 236.4 112.263 236.22L110.133 228.59C110.083 228.4 109.913 228.27 109.713 228.27H53.8033H53.8133Z" fill="#194253"/>
<path d="M58.323 220.33L56.543 226.7H106.993L105.213 220.33C104.973 219.47 104.183 218.87 103.283 218.87H60.253C59.353 218.87 58.573 219.47 58.323 220.33Z" fill="white"/>
<path d="M109.053 228.27H54.4727L56.8127 219.91C57.2427 218.38 58.6527 217.3 60.2527 217.3H103.283C104.873 217.3 106.293 218.37 106.723 219.91L109.063 228.27H109.053ZM58.6127 225.13H104.923L103.693 220.75C103.643 220.56 103.473 220.44 103.273 220.44H60.2427C60.0527 220.44 59.8827 220.57 59.8227 220.76L58.6027 225.14L58.6127 225.13Z" fill="#194253"/>
<path d="M53.7822 263.23L57.4622 299.39C57.5622 300.41 58.4222 301.19 59.4522 301.19H104.072C105.102 301.19 105.962 300.41 106.062 299.39L109.742 263.23C109.862 262.05 108.932 261.03 107.752 261.03H55.7622C54.5822 261.03 53.6522 262.05 53.7722 263.23H53.7822Z" fill="white"/>
<path d="M104.082 302.76H59.4624C57.6224 302.76 56.1024 301.38 55.9124 299.55L52.2324 263.39C52.1324 262.39 52.4624 261.38 53.1324 260.64C53.8124 259.89 54.7724 259.46 55.7824 259.46H107.772C108.782 259.46 109.742 259.89 110.422 260.64C111.102 261.39 111.422 262.39 111.322 263.39L107.642 299.55C107.452 301.38 105.932 302.76 104.092 302.76H104.082ZM55.7724 262.59C55.6124 262.59 55.5124 262.67 55.4524 262.73C55.3924 262.79 55.3224 262.91 55.3424 263.06L59.0224 299.22C59.0424 299.44 59.2324 299.61 59.4524 299.61H104.072C104.292 299.61 104.482 299.44 104.502 299.22L108.182 263.06C108.202 262.89 108.122 262.78 108.072 262.73C108.012 262.67 107.912 262.59 107.752 262.59H55.7624H55.7724Z" fill="#194253"/>
<path d="M59.9414 300.189H103.591L102.941 305.859L60.3214 303.659L59.9414 300.189Z" fill="#194253"/>
<path d="M53.543 238.33L53.903 241.11L109.293 243.66L109.993 238.33H53.543Z" fill="#194253"/>
<path opacity="0.25" d="M285.306 102.137C285.266 100.426 284.047 99.1616 282.326 99.0582C281.251 98.9946 280.176 99.0343 279.1 99.0264C278.901 99.0264 278.71 99.0662 278.622 98.7957C278.391 98.0956 278.112 97.4194 277.778 96.7592C277.674 96.5444 277.754 96.433 277.897 96.2898C278.59 95.6136 279.275 94.9295 279.952 94.2374C281.315 92.8611 281.426 91.111 280.128 89.6791C279.012 88.454 277.833 87.2766 276.607 86.1629C275.204 84.898 273.468 84.9855 272.113 86.3061C271.404 86.9902 270.719 87.6903 270.026 88.3903C269.851 88.5654 269.716 88.621 269.477 88.4938C268.871 88.1915 268.258 87.913 267.612 87.7221C267.318 87.6346 267.246 87.4675 267.254 87.1891C267.27 86.1947 267.254 85.1924 267.254 84.198C267.254 83.8798 267.238 83.5536 267.134 83.2434C266.704 81.9546 265.772 81.2546 264.466 81H258.929C257.001 81.35 256.021 82.8217 256.125 84.5639C256.173 85.4072 256.125 86.2504 256.141 87.1016C256.149 87.4596 256.069 87.6426 255.687 87.7619C255.121 87.9369 254.563 88.1756 254.038 88.454C253.695 88.629 253.504 88.5654 253.257 88.3028C252.612 87.6266 251.942 86.9664 251.273 86.314C249.871 84.9537 248.047 84.9298 246.629 86.2743C245.521 87.3323 244.43 88.4222 243.362 89.5279C242.032 90.9121 241.992 92.6225 243.267 94.0624C243.928 94.8102 244.653 95.5023 245.386 96.1784C245.673 96.4489 245.681 96.6717 245.513 96.966C245.227 97.491 245.012 98.0559 244.82 98.6207C244.717 98.923 244.581 99.0503 244.239 99.0343C243.131 99.0025 242.024 98.9866 240.917 99.0582C239.554 99.1537 238.288 100.236 238.144 101.588C237.937 103.529 237.977 105.486 238.113 107.427C238.224 108.962 239.467 110.044 241.012 110.124C242.088 110.18 243.163 110.164 244.239 110.156C244.549 110.156 244.709 110.219 244.804 110.537C244.988 111.158 245.243 111.747 245.545 112.319C245.681 112.574 245.665 112.741 245.442 112.948C244.741 113.616 244.063 114.308 243.386 114.992C242.072 116.321 241.952 118.047 243.187 119.439C244.239 120.625 245.394 121.707 246.517 122.82C247.991 124.276 249.855 124.268 251.329 122.82C251.998 122.16 252.659 121.5 253.313 120.831C253.512 120.633 253.671 120.569 253.942 120.72C254.523 121.022 255.137 121.277 255.766 121.476C256.029 121.555 256.117 121.699 256.117 121.977C256.101 122.971 256.117 123.974 256.117 124.968C256.133 126.814 257.415 128.15 259.248 128.19C260.865 128.222 262.474 128.222 264.091 128.19C265.931 128.15 267.222 126.822 267.238 124.984C267.246 123.99 267.254 122.987 267.238 121.993C267.238 121.722 267.302 121.563 267.573 121.484C268.202 121.293 268.815 121.03 269.397 120.728C269.676 120.585 269.851 120.641 270.066 120.863C270.855 121.659 271.628 122.478 272.472 123.21C273.563 124.157 275.228 124.173 276.328 123.25C277.722 122.088 278.989 120.784 280.191 119.431C281.371 118.103 281.283 116.408 280.072 115.112C279.371 114.364 278.63 113.648 277.889 112.932C277.698 112.749 277.682 112.606 277.794 112.383C278.104 111.786 278.367 111.158 278.566 110.514C278.646 110.251 278.781 110.164 279.06 110.172C280.032 110.195 280.996 110.172 281.968 110.187C284.015 110.211 285.274 108.668 285.29 107.085C285.314 105.446 285.322 103.799 285.29 102.153L285.306 102.137ZM269.54 104.611C269.548 108.923 266.035 112.431 261.693 112.447C257.391 112.463 253.838 108.954 253.83 104.675C253.822 100.275 257.304 96.7512 261.677 96.7433C266.011 96.7273 269.532 100.251 269.54 104.611Z" fill="#DAD4E4"/>
<path d="M414 136.808C414 181.099 378.63 217 334.998 217C325.2 217 315.821 215.189 307.164 211.881C277.268 200.453 256 171.15 256 136.808C256 92.5161 286.651 56 330.28 56C373.908 56 414 92.5196 414 136.808Z" fill="#007099"/>
<path d="M382.737 190.354C413.519 159.621 413.519 109.793 382.737 79.0605C351.955 48.3277 302.048 48.3277 271.267 79.0605C240.485 109.793 240.485 159.621 271.267 190.354C302.048 221.086 351.955 221.086 382.737 190.354Z" fill="#008CBF"/>
<path d="M353.377 99.1023C350.956 95.0631 347.528 91.8732 343.085 89.5218C338.645 87.1739 333.522 86 327.723 86C321.481 86 316.02 87.4059 311.34 90.214C306.659 93.0221 303.098 96.5653 300.659 100.847C298.22 105.125 297 109.35 297 113.521C297 115.541 297.77 117.418 299.31 119.152C300.849 120.886 302.738 121.753 304.979 121.753C308.778 121.753 311.358 119.273 312.721 114.313C314.16 109.575 315.923 105.985 318.003 103.548C320.082 101.111 323.323 99.8944 327.723 99.8944C331.483 99.8944 334.555 101.1 336.933 103.516C339.314 105.932 340.502 108.893 340.502 112.404C340.502 114.203 340.113 115.873 339.332 117.407C338.552 118.945 337.591 120.336 336.451 121.589C335.31 122.841 333.461 124.693 330.9 127.152C327.979 129.96 325.658 132.386 323.938 134.427C322.219 136.468 320.837 138.837 319.798 141.538C318.758 144.236 318.236 147.429 318.236 151.115C318.236 154.055 318.945 156.275 320.366 157.763C321.787 159.254 323.536 160 325.619 160C329.619 160 331.997 157.72 332.76 153.153C333.199 151.001 333.53 149.499 333.749 148.643C333.968 147.786 334.278 146.93 334.677 146.073C335.077 145.217 335.688 144.275 336.508 143.244C337.329 142.213 338.419 141.017 339.779 139.654C344.7 134.827 348.11 131.391 350.01 129.353C351.909 127.312 353.55 124.889 354.931 122.078C356.313 119.269 357 116.001 357 112.269C357 107.53 355.791 103.141 353.37 99.1023H353.377Z" fill="white"/>
<path d="M326.088 166C323.535 166 321.384 166.815 319.631 168.444C317.878 170.074 317 172.085 317 174.471C317 177.164 317.907 179.257 319.721 180.754C321.535 182.25 323.657 183 326.088 183C328.518 183 330.512 182.24 332.308 180.726C334.1 179.209 335 177.127 335 174.471C335 172.081 334.143 170.074 332.43 168.444C330.716 166.815 328.601 166 326.091 166H326.088Z" fill="white"/>
<path d="M414.846 191.272C412.315 191.272 410.75 188.866 410.72 184.925C410.75 188.863 409.222 191.272 406.691 191.272C409.222 191.272 410.75 193.678 410.72 197.62C410.75 193.681 412.315 191.272 414.846 191.272Z" fill="#DAD4E4"/>
<path d="M391.5 42C374.103 42 360 51.4858 360 63.1879C360 68.5284 362.941 73.4078 367.79 77.1348L363.545 87L375.781 81.5532C380.406 83.3475 385.775 84.3759 391.5 84.3759C408.897 84.3759 423 74.8901 423 63.1879C423 51.4858 408.897 42 391.5 42Z" fill="#FFBE5A"/>
<path d="M384 62.5C384 63.8815 382.881 65 381.5 65C380.119 65 379 63.8815 379 62.5C379 61.1185 380.119 60 381.5 60C382.881 60 384 61.1185 384 62.5Z" fill="white"/>
<path d="M394 62.5C394 63.8815 392.881 65 391.5 65C390.118 65 389 63.8815 389 62.5C389 61.1185 390.118 60 391.5 60C392.881 60 394 61.1185 394 62.5Z" fill="white"/>
<path d="M404 62.5C404 63.8815 402.882 65 401.5 65C400.119 65 399 63.8815 399 62.5C399 61.1185 400.119 60 401.5 60C402.882 60 404 61.1185 404 62.5Z" fill="white"/>
<path opacity="0.25" d="M434.989 118.393C434.972 117.671 434.457 117.137 433.73 117.093C433.276 117.066 432.822 117.083 432.367 117.079C432.283 117.079 432.202 117.096 432.165 116.982C432.068 116.686 431.95 116.401 431.808 116.122C431.765 116.031 431.798 115.984 431.859 115.924C432.152 115.638 432.441 115.349 432.727 115.057C433.303 114.475 433.35 113.736 432.801 113.131C432.33 112.614 431.832 112.117 431.314 111.646C430.721 111.112 429.988 111.149 429.416 111.707C429.116 111.996 428.827 112.291 428.534 112.587C428.46 112.661 428.403 112.684 428.302 112.631C428.046 112.503 427.787 112.385 427.514 112.305C427.39 112.268 427.359 112.197 427.363 112.08C427.369 111.66 427.363 111.236 427.363 110.816C427.363 110.682 427.356 110.544 427.312 110.413C427.13 109.869 426.737 109.573 426.185 109.465H423.846C423.031 109.613 422.617 110.235 422.661 110.971C422.681 111.327 422.661 111.683 422.668 112.043C422.671 112.194 422.637 112.271 422.476 112.321C422.237 112.395 422.001 112.496 421.779 112.614C421.634 112.688 421.554 112.661 421.449 112.55C421.177 112.261 420.894 111.985 420.611 111.71C420.019 111.135 419.248 111.125 418.649 111.693C418.178 112.14 417.72 112.6 417.269 113.067C416.707 113.652 416.69 114.375 417.229 114.983C417.508 115.299 417.815 115.591 418.124 115.877C418.245 115.991 418.249 116.085 418.178 116.209C418.057 116.431 417.966 116.666 417.885 116.908C417.841 117.036 417.784 117.09 417.64 117.083C417.172 117.069 416.704 117.063 416.236 117.093C415.661 117.133 415.125 117.59 415.065 118.161C414.977 118.981 414.994 119.808 415.051 120.628C415.099 121.276 415.624 121.733 416.277 121.767C416.731 121.79 417.185 121.784 417.64 121.78C417.771 121.78 417.838 121.807 417.879 121.938C417.956 122.2 418.064 122.449 418.192 122.691C418.249 122.799 418.242 122.869 418.148 122.956C417.852 123.239 417.566 123.531 417.279 123.82C416.724 124.381 416.674 125.11 417.195 125.698C417.64 126.199 418.128 126.656 418.602 127.126C419.225 127.741 420.012 127.738 420.635 127.126C420.918 126.848 421.197 126.569 421.473 126.286C421.557 126.202 421.624 126.176 421.739 126.239C421.984 126.367 422.244 126.475 422.509 126.559C422.621 126.592 422.658 126.653 422.658 126.77C422.651 127.19 422.658 127.614 422.658 128.034C422.664 128.813 423.206 129.378 423.98 129.395C424.663 129.408 425.343 129.408 426.026 129.395C426.804 129.378 427.349 128.817 427.356 128.04C427.359 127.62 427.363 127.197 427.356 126.777C427.356 126.663 427.383 126.596 427.497 126.562C427.763 126.481 428.022 126.37 428.268 126.243C428.386 126.182 428.46 126.206 428.551 126.3C428.884 126.636 429.21 126.982 429.567 127.291C430.028 127.691 430.732 127.698 431.196 127.308C431.785 126.817 432.32 126.266 432.828 125.695C433.326 125.134 433.289 124.418 432.778 123.87C432.482 123.555 432.169 123.252 431.856 122.95C431.775 122.872 431.768 122.812 431.815 122.718C431.946 122.466 432.058 122.2 432.142 121.928C432.175 121.817 432.233 121.78 432.35 121.784C432.761 121.794 433.168 121.784 433.579 121.79C434.444 121.801 434.975 121.149 434.982 120.48C434.992 119.788 434.996 119.092 434.982 118.397L434.989 118.393ZM428.329 119.435C428.332 121.256 426.848 122.738 425.013 122.745C423.196 122.751 421.695 121.27 421.692 119.462C421.688 117.604 423.159 116.115 425.007 116.112C426.838 116.105 428.325 117.594 428.329 119.435Z" fill="#DAD4E4"/>
<path d="M226 181C219.175 181 214.955 174.556 214.864 164C214.946 174.547 210.825 181 204 181C210.825 181 214.946 187.444 214.864 198C214.946 187.453 219.166 181 226 181Z" fill="#DAD4E4"/>
<path d="M199 92C194.965 92 192.47 88.2096 192.422 82C192.47 88.2043 190.035 92 186 92C190.035 92 192.47 95.7904 192.422 102C192.47 95.7957 194.965 92 199 92Z" fill="#DAD4E4"/>
<path d="M262.158 191.347C259.627 191.347 258.062 188.941 258.029 185C258.059 188.938 256.531 191.347 254 191.347C256.531 191.347 258.059 193.753 258.029 197.695C258.059 193.757 259.624 191.347 262.158 191.347Z" fill="#DAD4E4"/>
<path d="M478 172C473.965 172 471.47 168.21 471.422 162C471.47 168.204 469.035 172 465 172C469.035 172 471.47 175.79 471.422 182C471.47 175.796 473.965 172 478 172Z" fill="#DAD4E4"/>
<g clip-path="url(#clip1_1370_157661)">
<path opacity="0.25" d="M187.992 152.576C187.931 149.859 186.05 147.85 183.395 147.686C181.735 147.585 180.076 147.648 178.417 147.635C178.109 147.635 177.814 147.698 177.679 147.269C177.323 146.157 176.892 145.083 176.376 144.034C176.216 143.693 176.339 143.516 176.56 143.288C177.63 142.214 178.687 141.127 179.732 140.028C181.834 137.842 182.006 135.062 180.002 132.787C178.281 130.841 176.462 128.971 174.569 127.201C172.406 125.192 169.726 125.331 167.636 127.429C166.542 128.516 165.485 129.628 164.416 130.74C164.145 131.018 163.936 131.106 163.568 130.904C162.634 130.424 161.687 129.981 160.691 129.678C160.237 129.539 160.126 129.274 160.138 128.832C160.163 127.252 160.138 125.66 160.138 124.08C160.138 123.575 160.114 123.056 159.954 122.564C159.29 120.516 157.852 119.404 155.836 119H147.293C144.318 119.556 142.806 121.894 142.966 124.661C143.04 126.001 142.966 127.34 142.991 128.693C143.003 129.261 142.88 129.552 142.29 129.741C141.417 130.019 140.557 130.398 139.746 130.841C139.217 131.119 138.922 131.018 138.541 130.601C137.545 129.527 136.513 128.478 135.48 127.441C133.317 125.281 130.502 125.243 128.314 127.378C126.605 129.059 124.921 130.79 123.274 132.547C121.221 134.746 121.16 137.463 123.127 139.75C124.147 140.938 125.265 142.037 126.396 143.111C126.839 143.541 126.851 143.895 126.593 144.362C126.151 145.196 125.819 146.094 125.524 146.991C125.364 147.471 125.155 147.673 124.626 147.648C122.918 147.597 121.209 147.572 119.5 147.686C117.399 147.837 115.444 149.556 115.223 151.704C114.903 154.788 114.965 157.896 115.174 160.98C115.346 163.419 117.263 165.137 119.648 165.264C121.307 165.352 122.967 165.327 124.626 165.314C125.106 165.314 125.352 165.415 125.499 165.921C125.782 166.906 126.175 167.842 126.642 168.751C126.851 169.156 126.827 169.421 126.482 169.75C125.401 170.811 124.356 171.911 123.311 172.997C121.283 175.108 121.098 177.85 123.004 180.061C124.626 181.944 126.409 183.663 128.142 185.432C130.416 187.745 133.292 187.732 135.566 185.432C136.599 184.383 137.619 183.334 138.627 182.273C138.934 181.957 139.18 181.856 139.598 182.096C140.495 182.576 141.442 182.981 142.413 183.297C142.819 183.423 142.954 183.65 142.954 184.093C142.929 185.672 142.954 187.265 142.954 188.844C142.978 191.776 144.957 193.899 147.785 193.962C150.28 194.013 152.763 194.013 155.258 193.962C158.098 193.899 160.089 191.789 160.114 188.869C160.126 187.29 160.138 185.698 160.114 184.118C160.114 183.688 160.212 183.436 160.63 183.309C161.601 183.006 162.547 182.589 163.445 182.109C163.875 181.881 164.145 181.97 164.477 182.324C165.694 183.587 166.887 184.889 168.19 186.051C169.874 187.555 172.443 187.58 174.139 186.115C176.29 184.27 178.245 182.197 180.101 180.049C181.92 177.939 181.785 175.247 179.916 173.187C178.835 171.999 177.691 170.862 176.548 169.725C176.253 169.434 176.229 169.206 176.401 168.853C176.88 167.905 177.286 166.906 177.593 165.883C177.716 165.466 177.925 165.327 178.355 165.34C179.855 165.377 181.342 165.34 182.842 165.365C186.001 165.403 187.943 162.951 187.968 160.436C188.004 157.833 188.017 155.217 187.968 152.602L187.992 152.576ZM163.666 156.506C163.678 163.356 158.257 168.928 151.558 168.954C144.921 168.979 139.438 163.406 139.426 156.607C139.414 149.619 144.785 144.021 151.534 144.008C158.221 143.983 163.654 149.581 163.666 156.506Z" fill="#DAD4E4"/>
</g>
<g clip-path="url(#clip2_1370_157661)">
<path opacity="0.25" d="M549.99 91.9776C549.912 88.4999 547.516 85.9281 544.133 85.7178C542.019 85.5884 539.905 85.6693 537.791 85.6531C537.4 85.6531 537.024 85.734 536.851 85.184C536.397 83.7606 535.849 82.3857 535.191 81.0431C534.988 80.6064 535.144 80.38 535.426 80.0888C536.789 78.7139 538.135 77.3228 539.467 75.9156C542.144 73.1173 542.364 69.5587 539.811 66.6472C537.619 64.1562 535.301 61.7623 532.889 59.4977C530.133 56.9259 526.719 57.1038 524.057 59.7889C522.664 61.18 521.317 62.6034 519.954 64.0268C519.61 64.3826 519.344 64.4959 518.874 64.2371C517.684 63.6224 516.478 63.0563 515.21 62.6681C514.63 62.4901 514.489 62.1505 514.505 61.5843C514.536 59.5624 514.505 57.5244 514.505 55.5024C514.505 54.8554 514.474 54.1922 514.27 53.5614C513.424 50.941 511.592 49.5176 509.024 49H498.14C494.351 49.7117 492.425 52.7041 492.628 56.2465C492.722 57.9611 492.628 59.6757 492.659 61.4064C492.675 62.1343 492.518 62.5063 491.767 62.7489C490.655 63.1048 489.559 63.5901 488.525 64.1562C487.852 64.512 487.476 64.3826 486.991 63.8489C485.722 62.474 484.407 61.1314 483.091 59.8051C480.335 57.0391 476.749 56.9906 473.962 59.7242C471.785 61.8755 469.639 64.0915 467.541 66.3398C464.926 69.1543 464.848 72.632 467.353 75.5597C468.653 77.0802 470.078 78.4874 471.519 79.8623C472.082 80.4123 472.098 80.8652 471.769 81.4637C471.205 82.5313 470.783 83.6797 470.407 84.8281C470.203 85.4428 469.937 85.7016 469.264 85.6693C467.087 85.6046 464.91 85.5722 462.733 85.7178C460.056 85.9119 457.566 88.1117 457.284 90.8615C456.877 94.8083 456.955 98.7874 457.221 102.734C457.44 105.856 459.883 108.056 462.921 108.218C465.035 108.331 467.15 108.298 469.264 108.282C469.874 108.282 470.188 108.412 470.375 109.059C470.736 110.32 471.237 111.517 471.832 112.682C472.098 113.2 472.067 113.539 471.628 113.96C470.25 115.318 468.919 116.726 467.588 118.117C465.004 120.818 464.769 124.328 467.197 127.159C469.264 129.569 471.534 131.769 473.742 134.033C476.639 136.993 480.304 136.977 483.201 134.033C484.516 132.691 485.816 131.348 487.1 129.989C487.492 129.585 487.805 129.456 488.337 129.763C489.48 130.378 490.686 130.895 491.923 131.3C492.44 131.461 492.612 131.752 492.612 132.319C492.581 134.341 492.612 136.379 492.612 138.401C492.644 142.153 495.165 144.871 498.767 144.951C501.946 145.016 505.109 145.016 508.288 144.951C511.905 144.871 514.442 142.169 514.474 138.433C514.489 136.411 514.505 134.373 514.474 132.351C514.474 131.801 514.599 131.478 515.131 131.316C516.368 130.928 517.574 130.394 518.717 129.779C519.265 129.488 519.61 129.601 520.033 130.054C521.583 131.672 523.102 133.338 524.762 134.826C526.907 136.751 530.18 136.783 532.341 134.907C535.082 132.545 537.572 129.892 539.936 127.143C542.254 124.441 542.082 120.996 539.702 118.359C538.323 116.839 536.867 115.383 535.411 113.927C535.035 113.555 535.004 113.264 535.223 112.811C535.834 111.598 536.35 110.32 536.742 109.01C536.898 108.476 537.165 108.298 537.713 108.315C539.623 108.363 541.518 108.315 543.429 108.347C547.453 108.395 549.927 105.257 549.959 102.039C550.006 98.7065 550.021 95.3582 549.959 92.0099L549.99 91.9776ZM518.999 97.0081C519.015 105.775 512.109 112.908 503.574 112.941C495.118 112.973 488.134 105.84 488.118 97.1375C488.102 88.1926 494.946 81.027 503.543 81.0108C512.062 80.9784 518.984 88.1441 518.999 97.0081Z" fill="#DAD4E4"/>
</g>
<path opacity="0.43" d="M394 232C394 234.761 367.137 237 334 237C300.863 237 278.675 234.761 274 232C278.675 229.239 300.863 229 334 229C367.137 229 377.636 235.432 394 232Z" fill="#D9D9D9"/>
</g>
<defs>
<clipPath id="clip0_1370_157661">
<rect width="660.95" height="324.18" fill="white" transform="translate(0.523438 0.359863)"/>
</clipPath>
<clipPath id="clip1_1370_157661">
<rect width="35" height="75" fill="white" transform="translate(151 119)"/>
</clipPath>
<clipPath id="clip2_1370_157661">
<rect width="76" height="75" fill="white" transform="translate(435 69)"/>
</clipPath>
</defs>
</svg>
