<svg width="48" height="38" viewBox="0 0 48 38" fill="none" xmlns="http://www.w3.org/2000/svg">
<path fill-rule="evenodd" clip-rule="evenodd" d="M8.88889 0.333252C7.90707 0.333252 7.11111 1.12926 7.11111 2.11103H40.8889C40.8889 1.12926 40.0929 0.333252 39.1111 0.333252H8.88889ZM3.55556 5.66659C3.55556 4.68482 4.35151 3.88881 5.33333 3.88881H42.6667C43.6485 3.88881 44.4445 4.68482 44.4445 5.66659H3.55556ZM3.55556 7.44437C1.59185 7.44437 0 9.03638 0 10.9999V34.111C0 36.0746 1.59185 37.6666 3.55556 37.6666H44.4445C46.4082 37.6666 48 36.0746 48 34.111V10.9999C48 9.03638 46.4081 7.44437 44.4445 7.44437H3.55556ZM8.88889 14.5555H21.3333V16.3333H8.88889V14.5555ZM5.33333 18.111H21.3333V19.8888H5.33333V18.111ZM21.3333 21.6666H5.33333V23.4444H21.3333V21.6666ZM5.33333 25.2221H21.3333V26.9999H5.33333V25.2221ZM21.3333 28.7777H5.33333V30.5555H21.3333V28.7777ZM28.4445 14.5555H32V30.5555H28.4445V14.5555ZM33.7778 18.111H37.3333V30.5555H33.7778V18.111ZM42.6667 30.5555V21.6666H39.1111V30.5555H42.6667Z" fill="#6C6C6C"/>
</svg>
