<svg width="662" height="339" viewBox="0 0 662 339" fill="none" xmlns="http://www.w3.org/2000/svg">
<path d="M569.182 327.01C580.862 312.86 587.542 294.19 585.442 275.95C583.342 257.72 571.812 240.39 554.962 233.13C537.282 225.51 516.782 229.39 498.672 235.92C473.122 245.13 449.152 254.18 422.302 259.05C400.912 262.93 385.102 258.82 374.052 238.86C343.782 184.2 524.142 14 313.822 14C228.572 14 47.2617 43.12 47.2617 234.44C47.2617 278.47 58.8917 311.36 76.8617 336.33H560.072C563.312 333.52 566.362 330.43 569.182 327.01Z" fill="#D9ECF2"/>
<path d="M522.991 142.67C557.84 142.67 586.091 114.419 586.091 79.57C586.091 44.7208 557.84 16.47 522.991 16.47C488.141 16.47 459.891 44.7208 459.891 79.57C459.891 114.419 488.141 142.67 522.991 142.67Z" fill="#D9ECF2"/>
<path d="M659.903 338.18H2.09344C1.22344 338.18 0.523438 337.48 0.523438 336.61C0.523438 335.74 1.22344 335.04 2.09344 335.04H659.903C660.773 335.04 661.473 335.74 661.473 336.61C661.473 337.48 660.773 338.18 659.903 338.18Z" fill="#194253"/>
<path fill-rule="evenodd" clip-rule="evenodd" d="M286.383 336.61L288.543 334.03C292.513 329.29 294.913 323.52 295.483 317.36L298.313 286.3H363.673L366.503 317.36C367.063 323.52 369.463 329.29 373.443 334.03L375.603 336.61H286.383Z" fill="white"/>
<path d="M362.243 287.87L364.943 317.5C365.533 323.95 368.073 330.07 372.243 335.04H289.743C293.903 330.07 296.453 323.96 297.043 317.5L299.743 287.87H362.243ZM365.113 284.73H296.883L296.623 287.58L293.923 317.21C293.393 323.05 291.113 328.52 287.343 333.02L283.023 338.17H378.963L374.643 333.02C370.873 328.52 368.603 323.06 368.063 317.21L365.363 287.58L365.103 284.73H365.113Z" fill="#194253"/>
<path fill-rule="evenodd" clip-rule="evenodd" d="M297.742 293.98V299.25L365.352 301.78V293.98H297.742Z" fill="#194253"/>
<path d="M357.412 327.73H304.582C303.712 327.73 303.012 327.03 303.012 326.16C303.012 325.29 303.712 324.59 304.582 324.59H357.412C358.282 324.59 358.982 325.29 358.982 326.16C358.982 327.03 358.282 327.73 357.412 327.73Z" fill="#194253"/>
<path d="M502.142 81.1401H159.852C155.196 81.1401 151.422 84.9144 151.422 89.5701V284.99C151.422 289.646 155.196 293.42 159.852 293.42H502.142C506.798 293.42 510.572 289.646 510.572 284.99V89.5701C510.572 84.9144 506.798 81.1401 502.142 81.1401Z" fill="white"/>
<path d="M502.142 79.5701H159.852C154.332 79.5701 149.852 84.0501 149.852 89.5701V284.98C149.852 290.5 154.332 294.98 159.852 294.98H502.132C507.652 294.98 512.132 290.5 512.132 284.98V89.5701C512.132 84.0501 507.652 79.5701 502.132 79.5701H502.142ZM159.852 82.7101H502.132C505.912 82.7101 508.992 85.7901 508.992 89.5701V261.63H152.992V89.5701C152.992 85.7901 156.072 82.7101 159.852 82.7101ZM502.142 291.85H159.852C156.072 291.85 152.992 288.77 152.992 284.99V264.77H509.002V284.99C509.002 288.77 505.922 291.85 502.142 291.85Z" fill="#194253"/>
<path d="M330.992 283.3C333.754 283.3 335.992 281.061 335.992 278.3C335.992 275.539 333.754 273.3 330.992 273.3C328.231 273.3 325.992 275.539 325.992 278.3C325.992 281.061 328.231 283.3 330.992 283.3Z" fill="#194253"/>
<path d="M426.92 322.88C424.65 323.15 422.91 325.77 422.91 328.91V334.52C422.91 335.68 423.59 336.62 424.43 336.62H463.8C464.64 336.62 465.32 335.68 465.32 334.52V328.91C465.32 325.77 463.58 323.16 461.31 322.88C449.86 321.51 438.35 321.51 426.91 322.88H426.92Z" fill="white"/>
<path d="M463.812 338.18H424.442C422.712 338.18 421.352 336.57 421.352 334.51V328.9C421.352 324.95 423.672 321.69 426.742 321.32C438.282 319.94 449.982 319.94 461.512 321.32C464.582 321.69 466.902 324.95 466.902 328.9V334.51C466.902 336.57 465.542 338.18 463.812 338.18ZM424.602 335.04H463.632C463.692 334.95 463.752 334.76 463.752 334.51V328.9C463.752 326.61 462.572 324.6 461.122 324.43C449.832 323.08 438.382 323.08 427.092 324.43C425.642 324.6 424.462 326.61 424.462 328.9V334.51C424.462 334.76 424.532 334.95 424.582 335.04H424.602Z" fill="#194253"/>
<path d="M571.106 261.33C570.586 261.16 569.996 261.41 569.826 261.94C569.286 263.57 568.996 265.31 568.996 267.13C568.996 274.89 574.286 281.4 581.446 283.3C582.186 281.41 582.606 279.37 582.606 277.22C582.606 269.81 577.786 263.54 571.116 261.33H571.106Z" fill="white"/>
<path d="M582.396 285.17L581.046 284.81C573.026 282.68 567.426 275.41 567.426 267.12C567.426 265.2 567.736 263.29 568.336 261.44C568.546 260.8 568.996 260.28 569.596 259.98C570.206 259.67 570.936 259.62 571.596 259.83C579.116 262.32 584.166 269.3 584.166 277.21C584.166 279.47 583.736 281.71 582.906 283.86L582.396 285.16V285.17ZM571.136 263C570.756 264.35 570.556 265.73 570.556 267.12C570.556 273.5 574.556 279.15 580.446 281.33C580.836 279.98 581.026 278.6 581.026 277.21C581.026 270.85 577.076 265.2 571.136 263Z" fill="#194253"/>
<path d="M565.276 271.67C564.766 271.64 564.316 272.01 564.246 272.51C564.066 273.83 564.036 275.18 564.186 276.56C565.096 285.09 572.256 291.42 580.616 291.52C580.916 289.93 581.006 288.28 580.816 286.59C579.936 278.37 573.246 272.19 565.266 271.66L565.276 271.67Z" fill="white"/>
<path d="M581.904 293.11L580.594 293.09C571.334 292.98 563.604 285.94 562.614 276.73C562.454 275.26 562.484 273.77 562.684 272.3C562.864 270.98 564.044 270.01 565.374 270.11C574.274 270.69 581.424 277.56 582.374 286.43C582.564 288.22 582.494 290.04 582.154 291.82L581.904 293.11ZM565.724 273.28C565.624 274.32 565.624 275.36 565.734 276.4C566.504 283.58 572.204 289.16 579.264 289.88C579.364 288.84 579.364 287.8 579.254 286.76C578.484 279.59 572.844 274 565.724 273.28Z" fill="#194253"/>
<path d="M599.375 261.33C599.895 261.16 600.485 261.41 600.655 261.94C601.195 263.57 601.485 265.31 601.485 267.13C601.485 274.89 596.195 281.4 589.035 283.3C588.295 281.41 587.875 279.37 587.875 277.22C587.875 269.81 592.695 263.54 599.365 261.33H599.375Z" fill="white"/>
<path d="M588.094 285.17L587.584 283.87C586.744 281.72 586.324 279.49 586.324 277.22C586.324 269.31 591.374 262.33 598.894 259.84C600.254 259.39 601.714 260.11 602.154 261.44C602.764 263.29 603.064 265.2 603.064 267.12C603.064 275.41 597.464 282.68 589.444 284.81L588.094 285.17ZM599.344 263C593.404 265.21 589.454 270.85 589.454 277.21C589.454 278.6 589.644 279.98 590.034 281.33C595.924 279.14 599.924 273.49 599.924 267.12C599.924 265.73 599.734 264.35 599.344 263Z" fill="#194253"/>
<path d="M605.206 271.67C605.716 271.64 606.166 272.01 606.236 272.51C606.416 273.83 606.446 275.18 606.296 276.56C605.386 285.09 598.226 291.42 589.866 291.52C589.566 289.93 589.476 288.28 589.666 286.59C590.546 278.37 597.236 272.19 605.216 271.66L605.206 271.67Z" fill="white"/>
<path d="M588.574 293.11L588.324 291.82C587.984 290.04 587.904 288.23 588.104 286.43C589.054 277.55 596.204 270.69 605.104 270.11C606.414 270.02 607.614 270.99 607.794 272.31C607.994 273.77 608.014 275.27 607.864 276.74C606.874 285.96 599.154 292.99 589.884 293.1L588.574 293.12V293.11ZM604.754 273.28C597.634 274 591.984 279.59 591.224 286.76C591.114 287.8 591.114 288.84 591.214 289.88C598.274 289.16 603.974 283.58 604.744 276.4C604.854 275.36 604.854 274.32 604.754 273.28Z" fill="#194253"/>
<path d="M586.044 253.81C585.654 253.27 584.824 253.27 584.444 253.81C580.504 259.32 578.184 266.07 578.184 273.36C578.184 281.13 580.824 288.29 585.244 293.98C589.664 288.28 592.304 281.13 592.304 273.36C592.304 266.07 589.984 259.32 586.044 253.81Z" fill="white"/>
<path d="M585.243 296.54L584.003 294.94C579.163 288.71 576.613 281.24 576.613 273.35C576.613 265.97 578.883 258.89 583.163 252.89C583.643 252.22 584.413 251.82 585.243 251.82C586.073 251.82 586.843 252.22 587.323 252.89C591.613 258.89 593.873 265.96 593.873 273.35C593.873 281.24 591.313 288.7 586.483 294.93L585.243 296.53V296.54ZM585.243 255.4C581.643 260.72 579.743 266.91 579.743 273.36C579.743 279.81 581.633 286.01 585.243 291.32C588.843 286.01 590.743 279.84 590.743 273.36C590.743 266.88 588.843 260.72 585.243 255.4Z" fill="#194253"/>
<path d="M560.814 291.27C557.594 296.15 555.794 302.06 556.014 308.39C556.524 323.29 568.504 335.63 583.384 336.55C600.384 337.6 614.494 324.13 614.494 307.36C614.494 301.3 612.654 295.68 609.494 291.01C607.674 288.32 604.574 286.78 601.324 286.78H569.174C565.814 286.78 562.674 288.47 560.814 291.27Z" fill="white"/>
<path d="M610.794 290.13C608.714 287.05 605.174 285.21 601.324 285.21H569.174C565.274 285.21 561.654 287.15 559.514 290.41C555.984 295.76 554.224 302 554.454 308.45C554.994 324.12 567.664 337.15 583.294 338.12C583.954 338.16 584.624 338.18 585.274 338.18C593.154 338.18 600.574 335.25 606.354 329.82C612.524 324.02 616.064 315.83 616.064 307.36C616.064 301.19 614.244 295.23 610.794 290.13ZM562.124 292.13C563.694 289.76 566.324 288.34 569.174 288.34H601.324C604.124 288.34 606.694 289.66 608.194 291.88C610.494 295.28 611.984 299.11 612.594 303.13C610.624 303.71 609.414 305.14 608.404 306.35C607.144 307.86 606.354 308.71 604.734 308.71C603.114 308.71 602.324 307.86 601.064 306.35C599.764 304.8 598.154 302.86 594.984 302.86C591.814 302.86 590.204 304.79 588.904 306.35C587.644 307.86 586.854 308.71 585.234 308.71C583.614 308.71 582.814 307.86 581.564 306.35C580.274 304.8 578.654 302.86 575.484 302.86C572.314 302.86 570.704 304.8 569.404 306.35C568.144 307.86 567.364 308.71 565.734 308.71C564.104 308.71 563.324 307.86 562.064 306.35C561.064 305.14 559.854 303.72 557.894 303.14C558.494 299.22 559.904 295.48 562.114 292.13H562.124ZM604.194 327.53C598.574 332.82 591.224 335.47 583.474 334.98C569.434 334.11 558.064 322.4 557.574 308.33C557.554 307.68 557.554 307.02 557.574 306.38C558.284 306.77 558.884 307.44 559.644 308.36C560.934 309.91 562.554 311.85 565.724 311.85C568.894 311.85 570.504 309.92 571.804 308.36C573.064 306.85 573.854 306 575.474 306C577.094 306 577.884 306.85 579.144 308.36C580.434 309.91 582.054 311.85 585.224 311.85C588.394 311.85 590.004 309.92 591.304 308.36C592.564 306.85 593.354 306 594.974 306C596.594 306 597.394 306.85 598.644 308.36C599.944 309.91 601.554 311.85 604.724 311.85C607.894 311.85 609.514 309.92 610.804 308.36C611.564 307.44 612.164 306.77 612.874 306.39C612.884 306.71 612.914 307.04 612.914 307.36C612.914 315.08 609.814 322.24 604.184 327.53H604.194Z" fill="#194253"/>
<path d="M604.742 306C605.609 306 606.312 305.297 606.312 304.43C606.312 303.563 605.609 302.86 604.742 302.86C603.875 302.86 603.172 303.563 603.172 304.43C603.172 305.297 603.875 306 604.742 306Z" fill="#194253"/>
<path d="M594.992 311.85C595.859 311.85 596.562 311.147 596.562 310.28C596.562 309.413 595.859 308.71 594.992 308.71C594.125 308.71 593.422 309.413 593.422 310.28C593.422 311.147 594.125 311.85 594.992 311.85Z" fill="#194253"/>
<path d="M585.242 306C586.109 306 586.812 305.297 586.812 304.43C586.812 303.563 586.109 302.86 585.242 302.86C584.375 302.86 583.672 303.563 583.672 304.43C583.672 305.297 584.375 306 585.242 306Z" fill="#194253"/>
<path d="M575.492 311.85C576.359 311.85 577.062 311.147 577.062 310.28C577.062 309.413 576.359 308.71 575.492 308.71C574.625 308.71 573.922 309.413 573.922 310.28C573.922 311.147 574.625 311.85 575.492 311.85Z" fill="#194253"/>
<path d="M565.742 306C566.609 306 567.312 305.297 567.312 304.43C567.312 303.563 566.609 302.86 565.742 302.86C564.875 302.86 564.172 303.563 564.172 304.43C564.172 305.297 564.875 306 565.742 306Z" fill="#194253"/>
<path d="M159.851 71.7799C158.981 71.7799 158.281 71.0799 158.281 70.2099V60.2099C158.281 59.3399 158.981 58.6399 159.851 58.6399C160.721 58.6399 161.421 59.3399 161.421 60.2099V70.2099C161.421 71.0799 160.721 71.7799 159.851 71.7799Z" fill="#194253"/>
<path d="M146.161 77.4499C145.761 77.4499 145.361 77.2999 145.051 76.9899L137.981 69.9199C137.371 69.3099 137.371 68.3099 137.981 67.6999C138.591 67.0899 139.591 67.0899 140.201 67.6999L147.271 74.7699C147.881 75.3799 147.881 76.3799 147.271 76.9899C146.961 77.2999 146.561 77.4499 146.161 77.4499Z" fill="#194253"/>
<path d="M140.492 91.14H130.492C129.622 91.14 128.922 90.44 128.922 89.57C128.922 88.7 129.622 88 130.492 88H140.492C141.362 88 142.062 88.7 142.062 89.57C142.062 90.44 141.362 91.14 140.492 91.14Z" fill="#194253"/>
<path d="M53.543 251.97L62.163 336.61H101.373L109.993 251.97H53.543Z" fill="white"/>
<path d="M102.785 338.18H60.7447L51.8047 250.4H111.725L102.785 338.18ZM63.5847 335.04H99.9547L108.255 253.54H55.2747L63.5747 335.04H63.5847Z" fill="#194253"/>
<path d="M111.652 241.8C111.412 240.94 110.622 240.34 109.722 240.34H53.812C52.912 240.34 52.132 240.94 51.882 241.8L49.752 249.43C49.392 250.71 50.352 251.97 51.682 251.97H111.862C113.182 251.97 114.142 250.71 113.792 249.43L111.662 241.8H111.652Z" fill="white"/>
<path d="M111.853 253.54H51.6733C50.5433 253.54 49.5133 253.03 48.8333 252.13C48.1533 251.23 47.9333 250.1 48.2433 249.01L50.3733 241.38C50.8033 239.84 52.2133 238.77 53.8133 238.77H109.723C111.313 238.77 112.733 239.84 113.163 241.38L115.293 249.01C115.593 250.09 115.383 251.23 114.703 252.13C114.023 253.03 112.983 253.54 111.863 253.54H111.853ZM53.8133 241.91C53.6233 241.91 53.4533 242.04 53.3933 242.23L51.2633 249.86C51.2133 250.04 51.2833 250.17 51.3333 250.24C51.3833 250.3 51.4933 250.41 51.6733 250.41H111.853C112.043 250.41 112.153 250.3 112.193 250.24C112.243 250.18 112.313 250.04 112.263 249.86L110.133 242.23C110.083 242.04 109.913 241.91 109.713 241.91H53.8033H53.8133Z" fill="#194253"/>
<path d="M58.323 233.97L56.543 240.34H106.993L105.213 233.97C104.973 233.11 104.183 232.51 103.283 232.51H60.253C59.353 232.51 58.573 233.11 58.323 233.97Z" fill="white"/>
<path d="M109.053 241.91H54.4727L56.8127 233.55C57.2427 232.02 58.6527 230.94 60.2527 230.94H103.283C104.873 230.94 106.293 232.01 106.723 233.55L109.063 241.91H109.053ZM58.6127 238.77H104.923L103.693 234.39C103.643 234.2 103.473 234.08 103.273 234.08H60.2427C60.0527 234.08 59.8827 234.21 59.8227 234.4L58.6027 238.78L58.6127 238.77Z" fill="#194253"/>
<path d="M53.7822 276.87L57.4622 313.03C57.5622 314.05 58.4222 314.83 59.4522 314.83H104.072C105.102 314.83 105.962 314.05 106.062 313.03L109.742 276.87C109.862 275.69 108.932 274.67 107.752 274.67H55.7622C54.5822 274.67 53.6522 275.69 53.7722 276.87H53.7822Z" fill="white"/>
<path d="M104.082 316.4H59.4624C57.6224 316.4 56.1024 315.02 55.9124 313.19L52.2324 277.03C52.1324 276.03 52.4624 275.02 53.1324 274.28C53.8124 273.53 54.7724 273.1 55.7824 273.1H107.772C108.782 273.1 109.742 273.53 110.422 274.28C111.102 275.03 111.422 276.03 111.322 277.03L107.642 313.19C107.452 315.02 105.932 316.4 104.092 316.4H104.082ZM55.7724 276.23C55.6124 276.23 55.5124 276.31 55.4524 276.37C55.3924 276.43 55.3224 276.55 55.3424 276.7L59.0224 312.86C59.0424 313.08 59.2324 313.25 59.4524 313.25H104.072C104.292 313.25 104.482 313.08 104.502 312.86L108.182 276.7C108.202 276.53 108.122 276.42 108.072 276.37C108.012 276.31 107.912 276.23 107.752 276.23H55.7624H55.7724Z" fill="#194253"/>
<path d="M59.9414 313.83H103.591L102.941 319.5L60.3214 317.3L59.9414 313.83Z" fill="#194253"/>
<path d="M53.543 251.97L53.903 254.75L109.293 257.3L109.993 251.97H53.543Z" fill="#194253"/>
<g style="mix-blend-mode:multiply" opacity="0.25">
<path d="M411.943 79.7359L283.858 64.9685C280.576 64.5902 277.609 66.9352 277.23 70.207L258.775 229.34C258.395 232.612 260.747 235.571 264.028 235.949L392.113 250.717C395.395 251.095 398.362 248.75 398.742 245.478L417.197 86.3447C417.576 83.0729 415.224 80.1141 411.943 79.7359Z" fill="#3A7EC1"/>
</g>
<path d="M417.876 74.8299L289.791 60.0625C286.51 59.6842 283.543 62.0292 283.163 65.301L264.708 224.434C264.329 227.706 266.681 230.665 269.962 231.043L398.047 245.811C401.328 246.189 404.296 243.844 404.675 240.572L423.13 81.4387C423.51 78.1669 421.158 75.2081 417.876 74.8299Z" fill="#DBE2EF"/>
<path d="M398.738 247.47C398.448 247.47 398.154 247.452 397.86 247.419L269.776 232.651C267.758 232.42 265.951 231.418 264.689 229.83C263.428 228.243 262.861 226.261 263.094 224.25L281.548 65.1155C281.781 63.1039 282.787 61.3023 284.379 60.0442C285.971 58.786 287.957 58.2283 289.975 58.4537L418.059 73.221C420.078 73.4535 421.884 74.4557 423.145 76.0422C424.407 77.6296 424.974 79.6116 424.741 81.6222L406.287 240.757C405.839 244.616 402.544 247.469 398.738 247.469V247.47ZM289.095 61.6408C288.117 61.6408 287.174 61.9661 286.396 62.5819C285.484 63.3027 284.908 64.3345 284.774 65.4866L266.32 224.621C266.186 225.774 266.511 226.91 267.234 227.819C267.958 228.728 268.992 229.302 270.148 229.436L398.232 244.203C400.634 244.483 402.786 242.766 403.061 240.387L421.515 81.2521C421.649 80.099 421.325 78.9632 420.602 78.0548C419.879 77.1453 418.844 76.5713 417.688 76.4377L289.604 61.6704C289.433 61.65 289.263 61.6408 289.095 61.6408Z" fill="#4D7393"/>
<g style="mix-blend-mode:multiply" opacity="0.25">
<path d="M370.567 56.1178L242.084 66.9119C238.793 67.1882 236.35 70.0726 236.627 73.3545L250.116 232.983C250.394 236.265 253.286 238.7 256.578 238.424L385.061 227.63C388.352 227.354 390.795 224.469 390.518 221.187L377.029 61.5592C376.751 58.2772 373.859 55.8415 370.567 56.1178Z" fill="#3A7EC1"/>
</g>
<path d="M375.598 49.8158L247.116 60.6099C243.824 60.8862 241.381 63.7706 241.658 67.0525L255.148 226.681C255.425 229.963 258.318 232.398 261.609 232.122L390.092 221.328C393.384 221.052 395.826 218.167 395.549 214.885L382.06 55.2572C381.783 51.9752 378.89 49.5395 375.598 49.8158Z" fill="#008CBF"/>
<path d="M261.105 233.763C257.198 233.763 253.866 230.767 253.531 226.816L240.043 67.1882C239.692 63.0233 242.804 59.3488 246.982 58.9961L375.464 48.2019C379.625 47.8665 383.328 50.9548 383.682 55.1207L397.17 214.749C397.521 218.915 394.408 222.589 390.231 222.941L261.748 233.736C261.533 233.754 261.318 233.763 261.106 233.763H261.105ZM375.736 51.4289L247.254 62.223C244.861 62.4238 243.076 64.5302 243.278 66.916L256.766 226.544C256.968 228.931 259.056 230.711 261.474 230.509L389.957 219.714C391.117 219.617 392.169 219.076 392.919 218.189C393.67 217.303 394.03 216.177 393.932 215.021L380.443 55.3929C380.241 53.0071 378.132 51.227 375.735 51.4289H375.736Z" fill="#4D7393"/>
<g style="mix-blend-mode:multiply" opacity="0.25">
<path d="M392.02 48.1111H263.082C259.779 48.1111 257.102 50.781 257.102 54.0745V214.267C257.102 217.561 259.779 220.231 263.082 220.231H392.02C395.323 220.231 398.001 217.561 398.001 214.267V54.0745C398.001 50.781 395.323 48.1111 392.02 48.1111Z" fill="#3A7EC1"/>
</g>
<path d="M268.504 42.7044H397.442C400.743 42.7044 403.423 45.3767 403.423 48.6678V208.862C403.423 212.153 400.743 214.825 397.442 214.825H268.504C265.204 214.825 262.523 212.153 262.523 208.862V48.6668C262.523 45.3756 265.204 42.7034 268.504 42.7034V42.7044Z" fill="white"/>
<path d="M397.444 216.443H268.506C264.314 216.443 260.902 213.042 260.902 208.862V48.6667C260.902 44.4865 264.314 41.0852 268.506 41.0852H397.445C401.637 41.0852 405.049 44.4865 405.049 48.6667V208.861C405.049 213.041 401.637 216.442 397.445 216.442L397.444 216.443ZM268.506 44.3223C266.104 44.3223 264.149 46.2707 264.149 48.6667V208.861C264.149 211.255 266.103 213.205 268.506 213.205H397.445C399.847 213.205 401.802 211.257 401.802 208.861V48.6667C401.802 46.2717 399.848 44.3223 397.445 44.3223H268.506Z" fill="#4D7393"/>
<path d="M337.121 72.0596H282.164C280.289 72.0596 278.77 73.5751 278.77 75.4445V75.7249C278.77 77.5944 280.289 79.1098 282.164 79.1098H337.121C338.995 79.1098 340.515 77.5944 340.515 75.7249V75.4445C340.515 73.5751 338.995 72.0596 337.121 72.0596Z" fill="#008CBF"/>
<path d="M383.781 93.0728H282.164C280.289 93.0728 278.77 94.5882 278.77 96.4577V96.7381C278.77 98.6075 280.289 100.123 282.164 100.123H383.781C385.656 100.123 387.176 98.6075 387.176 96.7381V96.4577C387.176 94.5882 385.656 93.0728 383.781 93.0728Z" fill="#E4ECF9"/>
<path d="M383.781 115.746H282.164C280.289 115.746 278.77 117.261 278.77 119.131V119.411C278.77 121.281 280.289 122.796 282.164 122.796H383.781C385.656 122.796 387.176 121.281 387.176 119.411V119.131C387.176 117.261 385.656 115.746 383.781 115.746Z" fill="#E4ECF9"/>
<path d="M383.781 138.418H282.164C280.289 138.418 278.77 139.933 278.77 141.803V142.083C278.77 143.953 280.289 145.468 282.164 145.468H383.781C385.656 145.468 387.176 143.953 387.176 142.083V141.803C387.176 139.933 385.656 138.418 383.781 138.418Z" fill="#E4ECF9"/>
<path d="M282.164 161.09H383.781C385.654 161.09 387.176 162.607 387.176 164.475V164.755C387.176 166.623 385.654 168.14 383.781 168.14H282.164C280.291 168.14 278.77 166.623 278.77 164.755V164.475C278.77 162.607 280.291 161.09 282.164 161.09Z" fill="#E4ECF9"/>
<path d="M383.781 183.071H282.164C280.289 183.071 278.77 184.586 278.77 186.456V186.736C278.77 188.606 280.289 190.121 282.164 190.121H383.781C385.656 190.121 387.176 188.606 387.176 186.736V186.456C387.176 184.586 385.656 183.071 383.781 183.071Z" fill="#E4ECF9"/>
<g style="mix-blend-mode:multiply" opacity="0.25">
<path d="M419.043 89.4319C398.7 89.4319 382.152 105.933 382.152 126.215C382.152 146.497 398.701 162.996 419.043 162.996C439.385 162.996 455.934 146.496 455.934 126.215C455.934 105.934 439.385 89.4319 419.043 89.4319Z" fill="#3A7EC1"/>
</g>
<path d="M422.111 156.341C441.588 156.341 457.377 140.598 457.377 121.177C457.377 101.757 441.588 86.0134 422.111 86.0134C402.633 86.0134 386.844 101.757 386.844 121.177C386.844 140.598 402.633 156.341 422.111 156.341Z" fill="white"/>
<path d="M422.109 157.961C401.767 157.961 385.219 141.46 385.219 121.178C385.219 100.896 401.768 84.3962 422.109 84.3962C442.451 84.3962 458.999 100.897 458.999 121.178C458.999 141.459 442.45 157.961 422.109 157.961ZM422.109 87.6323C403.557 87.6323 388.465 102.68 388.465 121.177C388.465 139.674 403.557 154.723 422.109 154.723C440.662 154.723 455.752 139.675 455.752 121.177C455.752 102.679 440.661 87.6323 422.109 87.6323Z" fill="#4D7393"/>
<path d="M416.838 136.641L404.056 123.574C403.288 122.789 403.288 121.516 404.056 120.731L406.837 117.887C407.605 117.102 408.85 117.102 409.618 117.887L418.228 126.69L436.67 107.836C437.438 107.051 438.683 107.051 439.451 107.836L442.232 110.679C443 111.464 443 112.737 442.232 113.522L419.619 136.641C418.851 137.426 417.606 137.426 416.838 136.641Z" fill="#008CBF"/>
<path d="M272.161 20.4401C273.137 16.314 270.574 12.1797 266.436 11.2058C262.298 10.2319 258.151 12.7874 257.175 16.9135C256.198 21.0396 258.761 25.174 262.899 26.1478C267.037 27.1217 271.184 24.5663 272.161 20.4401Z" fill="#008CBF"/>
<path d="M434.905 62.3501C438.369 58.8964 438.369 53.2969 434.905 49.8432C431.441 46.3896 425.825 46.3896 422.362 49.8432C418.898 53.2969 418.898 58.8964 422.362 62.3501C425.825 65.8038 431.441 65.8038 434.905 62.3501Z" fill="#BACCE5"/>
<path d="M346.858 271C351.756 271 355.728 267.041 355.728 262.156C355.728 257.272 351.756 253.313 346.858 253.313C341.959 253.313 337.988 257.272 337.988 262.156C337.988 267.041 341.959 271 346.858 271Z" fill="#008CBF"/>
<path d="M224.419 166.511C227.053 166.511 229.189 164.382 229.189 161.755C229.189 159.128 227.053 156.999 224.419 156.999C221.784 156.999 219.648 159.128 219.648 161.755C219.648 164.382 221.784 166.511 224.419 166.511Z" fill="#BACCE5"/>
<path d="M240 190C238.139 190 236.988 188.105 236.963 185C236.985 188.102 235.861 190 234 190C235.861 190 236.985 191.895 236.963 195C236.985 191.898 238.136 190 240 190Z" fill="#DAD4E4"/>
<path d="M473 115.82C471.139 115.82 469.988 113.925 469.963 110.82C469.985 113.922 468.861 115.82 467 115.82C468.861 115.82 469.985 117.715 469.963 120.82C469.985 117.718 471.136 115.82 473 115.82Z" fill="#DAD4E4"/>
<path d="M497 122.82C492.657 122.82 489.971 118.65 489.913 111.82C489.965 118.645 487.343 122.82 483 122.82C487.343 122.82 489.965 126.989 489.913 133.82C489.965 126.995 492.651 122.82 497 122.82Z" fill="#DAD4E4"/>
<path d="M456 180C448.865 180 444.453 173.177 444.358 162C444.443 173.168 440.135 180 433 180C440.135 180 444.443 186.823 444.358 198C444.443 186.832 448.855 180 456 180Z" fill="#DAD4E4"/>
<path d="M199 178C194.657 178 191.971 173.831 191.913 167C191.965 173.825 189.343 178 185 178C189.343 178 191.965 182.169 191.913 189C191.965 182.175 194.651 178 199 178Z" fill="#DAD4E4"/>
<path d="M230 107.82C223.175 107.82 218.955 101.376 218.864 90.8198C218.946 101.367 214.825 107.82 208 107.82C214.825 107.82 218.946 114.263 218.864 124.82C218.946 114.272 223.166 107.82 230 107.82Z" fill="#DAD4E4"/>
</svg>
