<svg width="44" height="36" viewBox="0 0 44 36" fill="none" xmlns="http://www.w3.org/2000/svg">
<path d="M42.366 8.54895L37.8702 1.37234C37.4685 0.728104 36.755 0.333252 35.993 0.333252H8.00694C7.24494 0.333252 6.53144 0.728104 6.12966 1.37234L1.63388 8.54895C-0.686741 12.255 1.37065 17.4089 5.70709 17.9977C6.01882 18.0393 6.33747 18.06 6.65613 18.06C8.70659 18.06 10.5215 17.1595 11.7684 15.7671C13.0153 17.1595 14.8372 18.06 16.8807 18.06C18.9312 18.06 20.7461 17.1595 21.993 15.7671C23.2399 17.1595 25.0618 18.06 27.1053 18.06C29.1558 18.06 30.9707 17.1595 32.2176 15.7671C33.4714 17.1595 35.2864 18.06 37.3299 18.06C37.6555 18.06 37.9672 18.0393 38.2789 17.9977C42.6292 17.4158 44.6936 12.2619 42.366 8.54895ZM37.3438 20.2837C36.651 20.2837 35.9652 20.1798 35.3002 20.0204V26.9338H8.69966V20.0204C8.03464 20.1728 7.34885 20.2837 6.65613 20.2837C6.24049 20.2837 5.81793 20.256 5.40922 20.2006C5.0213 20.1451 4.6403 20.0551 4.27316 19.9512V33.584C4.27316 34.8101 5.26375 35.8007 6.48987 35.8007H37.5239C38.75 35.8007 39.7406 34.8101 39.7406 33.584V19.9512C39.3665 20.062 38.9924 20.1521 38.6045 20.2006C38.182 20.256 37.7663 20.2837 37.3438 20.2837Z" fill="#6C6C6C"/>
</svg>
